<svg width="281" height="95" viewBox="0 0 281 95" fill="none" xmlns="http://www.w3.org/2000/svg">
<mask id="path-1-outside-1" maskUnits="userSpaceOnUse" x="0" y="0" width="281" height="95" fill="black">
<rect fill="white" width="281" height="95"/>
<path fill-rule="evenodd" clip-rule="evenodd" d="M173.905 19.6332C172.949 18.3247 173.221 16.474 174.516 15.4976C192.264 2.12269 217.593 6.10946 230.979 24.386C231.458 25.0403 231.629 25.8296 231.518 26.5784C231.408 27.3272 231.016 28.0335 230.369 28.5216C229.074 29.4981 227.247 29.2286 226.289 27.9199C214.816 12.2563 193.148 8.8095 177.985 20.2349C176.689 21.2113 174.863 20.9419 173.905 19.6332ZM7 69.7953V24.4437C7 22.1468 8.05469 20.9867 10.1641 20.9632H13.0469C13.7734 20.9632 14.3477 21.0218 14.7695 21.139C15.1914 21.2328 15.6016 21.5375 16 22.0531C16.4219 22.5453 16.6328 23.2718 16.6328 24.2328V43.9554C19.7969 40.7914 23.6172 39.1976 28.0938 39.1742C29.8281 39.1742 31.3281 39.3382 32.5938 39.6664C33.8594 39.9711 34.8672 40.4515 35.6172 41.1078C36.3672 41.7406 36.9648 42.3617 37.4102 42.9711C37.8789 43.5804 38.1953 44.4242 38.3594 45.5023C38.5234 46.5804 38.6289 47.4476 38.6758 48.1039C38.7227 48.7367 38.7461 49.6273 38.7461 50.7757V69.7953C38.7461 71.9047 37.7148 72.9593 35.6523 72.9593H32.2773C30.9883 72.9593 30.1094 72.6898 29.6406 72.1507C29.1719 71.5882 28.9375 70.8031 28.9375 69.7953V49.6156C28.9375 47.8812 28.668 46.5922 28.1289 45.7484C27.6133 44.8812 26.5 44.4476 24.7891 44.4476C22.6328 44.4476 20.8516 45.1859 19.4453 46.6625C18.0625 48.1156 17.2188 49.8031 16.9141 51.725C16.8672 51.9593 16.8438 52.8031 16.8438 54.2562V69.3734C16.8438 69.9593 16.8203 70.4047 16.7734 70.7093C16.7266 71.014 16.6094 71.3773 16.4219 71.7992C16.2344 72.1976 15.8828 72.4906 15.3672 72.6781C14.875 72.8656 14.2422 72.9593 13.4688 72.9593H10.3047C8.10156 72.9593 7 71.9047 7 69.7953ZM45.25 56.1898C45.25 50.3304 46.7852 45.9593 49.8555 43.0765C52.9492 40.1937 57.1797 38.7523 62.5469 38.7523C65.4297 38.7523 67.8906 39.1976 69.9297 40.0882C71.9688 40.9789 73.5273 42.2093 74.6055 43.7797C75.6836 45.3265 76.4453 46.9672 76.8906 48.7015C77.3594 50.4359 77.5938 52.3578 77.5938 54.4672C77.5938 56.5297 76.5391 57.5609 74.4297 57.5609H54.5664C54.7539 64.85 57.8008 68.4945 63.707 68.4945C65.8164 68.4945 67.7383 68.1547 69.4727 67.475C71.2305 66.7718 72.6602 65.9984 73.7617 65.1547C74.8867 64.3109 75.543 63.8656 75.7305 63.8187H76.0117L76.3633 63.9593C76.5977 64.1937 76.7734 64.7328 76.8906 65.5765C77.0312 66.4203 77.1016 67.2054 77.1016 67.932L77.1719 68.9867C77.1719 69.6195 76.7852 70.1468 76.0117 70.5687C72.3086 72.6781 68.1602 73.7445 63.5664 73.7679C57.5664 73.7679 53.0078 72.2797 49.8906 69.3031C46.7969 66.3265 45.25 61.9554 45.25 56.1898ZM54.6367 52.8851H69.543C69.4023 50.0961 68.8516 47.9281 67.8906 46.3812C66.9297 44.8109 65.1484 44.0257 62.5469 44.0257C57.8594 44.0257 55.2227 46.9789 54.6367 52.8851ZM82.0234 41.7757C82.0234 40.5804 82.8438 39.9828 84.4844 39.9828H86.9453C88.6797 39.9828 89.9688 40.557 90.8125 41.7054C91.0469 41.9398 91.75 43.2992 92.9219 45.7836C94.1172 48.2445 95.3828 51.2211 96.7188 54.7132C98.0781 58.182 98.9219 60.9711 99.25 63.0804C99.4375 60.5961 101.242 54.2914 104.664 44.1664C105.344 42.3382 105.941 41.2132 106.457 40.7914C107.137 40.2523 108.098 39.9828 109.34 39.9828H111.344C113.031 39.9828 113.875 40.6273 113.875 41.9164C113.875 42.2445 113.77 42.7015 113.559 43.2875L102.414 75.7718C101.781 77.5531 101.301 78.7718 100.973 79.4281C98.1836 85.0062 94.1055 87.7953 88.7383 87.7953C85.7148 87.7953 83.8867 87.4789 83.2539 86.8461C83.0195 86.6117 82.7852 84.9593 82.5508 81.889C82.5039 80.975 82.6211 80.3773 82.9023 80.0961L83.2539 79.9554H83.5352C83.7227 80.0023 84.0977 80.1781 84.6602 80.4828C85.2227 80.7875 85.8555 81.0453 86.5586 81.2562C87.2852 81.4906 88.082 81.6078 88.9492 81.6078C89.957 81.6078 90.8359 81.3851 91.5859 80.9398C92.3359 80.5179 92.9336 79.9203 93.3789 79.1468C93.8242 78.3734 94.2109 77.5648 94.5391 76.7211C94.8906 75.9007 95.207 75.0336 95.4883 74.1195C95.582 73.7914 95.6641 73.5218 95.7344 73.3109C95.7812 72.889 95.6758 72.432 95.418 71.9398L82.6914 43.8148C82.2461 42.8304 82.0234 42.1507 82.0234 41.7757ZM120.133 69.725V42.7953C120.133 40.6859 121.211 39.6312 123.367 39.6312H126.25C126.719 39.6312 127.082 39.6547 127.34 39.7015C127.621 39.7484 127.961 39.8539 128.359 40.0179C128.781 40.182 129.086 40.4984 129.273 40.9672C129.461 41.4125 129.555 41.9984 129.555 42.725V44.1664C130.469 43.2992 131.184 42.6429 131.699 42.1976C132.238 41.7289 133.445 41.1078 135.32 40.3343C137.195 39.5609 139.188 39.1742 141.297 39.1742C144.133 39.1742 146.324 39.5961 147.871 40.4398C149.441 41.2836 150.59 42.6429 151.316 44.5179C154.293 40.9554 158.277 39.1742 163.27 39.1742C165.332 39.1742 167.066 39.432 168.473 39.9476C169.879 40.4398 170.934 41.014 171.637 41.6703C172.34 42.3265 172.867 43.264 173.219 44.4828C173.594 45.7015 173.805 46.7093 173.852 47.5062C173.898 48.3031 173.922 49.4164 173.922 50.8461V69.725C173.922 70.7797 173.688 71.5882 173.219 72.1507C172.773 72.6898 171.895 72.9593 170.582 72.9593H167.418C167.043 72.9593 166.691 72.9359 166.363 72.889C166.059 72.8422 165.801 72.7718 165.59 72.6781C165.379 72.5843 165.203 72.4789 165.062 72.3617C164.922 72.2211 164.781 72.0687 164.641 71.9047C164.523 71.7406 164.43 71.6 164.359 71.4828C164.289 71.3656 164.242 71.1898 164.219 70.9554C164.195 70.6976 164.172 70.5336 164.148 70.4632C164.125 70.3929 164.113 70.2406 164.113 70.0062V69.5843V50.0023C164.113 49.0882 164.09 48.3968 164.043 47.9281C163.996 47.4359 163.844 46.8851 163.586 46.2757C163.328 45.6429 162.895 45.1859 162.285 44.9047C161.676 44.6 160.867 44.4476 159.859 44.4476C157.891 44.4476 156.262 45.057 154.973 46.2757C153.684 47.4945 152.793 48.8773 152.301 50.4242C152.066 51.2445 151.949 52.4867 151.949 54.1507V69.057V69.4789C151.949 69.6429 151.891 69.9593 151.773 70.4281C151.656 70.8734 151.492 71.2601 151.281 71.5882C151.094 71.9164 150.789 72.2328 150.367 72.5375C149.945 72.8187 149.418 72.9593 148.785 72.9593H145.48C144.145 72.9593 143.242 72.6898 142.773 72.1507C142.305 71.5882 142.07 70.7797 142.07 69.725V49.6859C142.07 47.8109 141.777 46.475 141.191 45.6781C140.629 44.8578 139.539 44.4476 137.922 44.4476C135.812 44.4476 133.961 45.2562 132.367 46.8734C130.773 48.4672 129.977 50.7054 129.977 53.5882V69.725C129.977 71.8812 128.898 72.9593 126.742 72.9593H123.508C121.258 72.9593 120.133 71.8812 120.133 69.725ZM180.391 63.0804C180.391 61.2054 180.941 59.5765 182.043 58.1937C183.168 56.8109 184.504 55.7328 186.051 54.9593C187.621 54.1859 189.473 53.5765 191.605 53.1312C193.738 52.6625 195.578 52.3578 197.125 52.2172C198.695 52.0765 200.277 52.0062 201.871 52.0062V50.4945C201.871 48.432 201.531 46.8031 200.852 45.6078C200.172 44.4125 198.801 43.8148 196.738 43.8148C194.863 43.8148 193.152 44.0726 191.605 44.5882C190.082 45.0804 188.945 45.6429 188.195 46.2757C187.469 46.8851 186.777 47.4593 186.121 47.9984C185.488 48.514 185.02 48.7718 184.715 48.7718L184.434 48.7015L184.152 48.4906C184.012 48.2562 183.883 47.6703 183.766 46.7328C183.648 45.7953 183.566 44.9398 183.52 44.1664L183.414 42.9359C183.414 42.7015 183.426 42.5257 183.449 42.4086C183.496 42.2914 183.59 42.1625 183.73 42.0218C183.871 41.8578 183.977 41.7523 184.047 41.7054C184.117 41.6586 184.316 41.5648 184.645 41.4242C184.996 41.2836 185.266 41.1664 185.453 41.0726C188.898 39.5257 192.66 38.7523 196.738 38.7523C202.199 38.7523 206.043 39.7836 208.27 41.8461C210.52 43.9086 211.645 46.8851 211.645 50.7757V69.725C211.645 71.8812 210.566 72.9593 208.41 72.9593H204.965C203.91 72.9593 203.148 72.6781 202.68 72.1156C202.234 71.5297 202.012 70.85 202.012 70.0765C198.848 72.514 195.145 73.7445 190.902 73.7679C187.691 73.7679 185.137 72.6664 183.238 70.4632C181.34 68.2367 180.391 65.7757 180.391 63.0804ZM189.848 63.0804C189.848 64.4632 190.305 65.7172 191.219 66.8422C192.133 67.9437 193.328 68.4945 194.805 68.4945C196.445 68.4945 198.027 67.9789 199.551 66.9476C201.098 65.9164 201.871 64.2289 201.871 61.8851V56.2601C200.395 56.4007 199.117 56.5531 198.039 56.7172C196.984 56.8812 195.73 57.1976 194.277 57.6664C192.848 58.1117 191.746 58.8031 190.973 59.7406C190.223 60.6781 189.848 61.7914 189.848 63.0804ZM218.289 69.3734C218.289 69.1859 218.582 67.4984 219.168 64.3109C219.309 63.2093 219.648 62.6586 220.188 62.6586C220.422 62.6586 220.984 63.1039 221.875 63.9945C222.766 64.8851 224.066 65.7875 225.777 66.7015C227.512 67.6156 229.504 68.0726 231.754 68.0726C235.504 68.0726 237.379 66.7953 237.379 64.2406C237.379 62.9047 236.805 61.932 235.656 61.3226C234.508 60.6898 232.82 60.1976 230.594 59.8461C228.391 59.4711 226.914 59.1429 226.164 58.8617C224.289 58.1351 222.566 56.9867 220.996 55.4164C219.449 53.8226 218.676 51.725 218.676 49.1234C218.676 42.3968 222.707 38.9398 230.77 38.7523H232.633C235.703 38.7992 238.633 39.3968 241.422 40.5453C242.148 40.8265 242.617 41.0726 242.828 41.2836C243.039 41.4711 243.145 41.8109 243.145 42.3031C243.145 42.5843 242.91 44.0961 242.441 46.8382C242.254 47.5648 241.961 47.9164 241.562 47.8929C241.234 47.8929 240.672 47.5765 239.875 46.9437C239.078 46.2875 237.93 45.6429 236.43 45.0101C234.953 44.3539 233.184 44.0257 231.121 44.0257C227.559 44.0257 225.777 45.1742 225.777 47.4711C225.777 48.7132 226.445 49.6273 227.781 50.2132C229.141 50.7757 230.957 51.2679 233.23 51.6898C235.527 52.0882 237.203 52.5804 238.258 53.1664C239.172 53.5882 240.027 54.139 240.824 54.8187C241.645 55.4984 242.477 56.5765 243.32 58.0531C244.164 59.5062 244.586 61.1117 244.586 62.8695C244.586 66.9007 243.426 69.725 241.105 71.3422C238.809 72.9593 235.645 73.7679 231.613 73.7679C226.621 73.7679 222.332 72.6078 218.746 70.2875L218.465 69.9359C218.348 69.6547 218.289 69.4672 218.289 69.3734ZM247.961 42.5843C247.961 40.85 249.016 39.9828 251.125 39.9828H252.848V33.7953C252.848 31.639 254.008 30.5609 256.328 30.5609H258.895C261.051 30.5609 262.129 31.639 262.129 33.7953V39.9828H268.703C269.57 39.9828 270.262 40.182 270.777 40.5804C271.316 40.9554 271.645 41.307 271.762 41.6351C271.879 41.9632 271.938 42.3031 271.938 42.6547C271.938 42.9828 271.879 43.3226 271.762 43.6742C271.645 44.0023 271.328 44.3539 270.812 44.7289C270.32 45.0804 269.664 45.2562 268.844 45.2562H262.129V59.6351C262.129 59.8695 262.117 60.1859 262.094 60.5843C262.07 60.9593 262.059 61.264 262.059 61.4984C262.059 64.0531 262.293 65.7992 262.762 66.7367C263.254 67.6742 264.027 68.1429 265.082 68.1429C266.418 68.1429 267.812 67.7211 269.266 66.8773C270.719 66.0336 271.492 65.6117 271.586 65.6117C271.914 65.6117 272.207 65.9515 272.465 66.6312C272.746 67.2875 272.957 67.9554 273.098 68.6351L273.238 69.5843C273.238 70.4984 271.738 71.4242 268.738 72.3617C265.738 73.2992 262.867 73.7679 260.125 73.7679C256.609 73.7679 254.336 72.0336 253.305 68.5648C252.883 67.1351 252.66 64.9554 252.637 62.0257V45.2562H251.125C249.016 45.2562 247.961 44.3656 247.961 42.5843ZM182.936 26.9877C181.64 27.964 181.368 29.8147 182.325 31.1242C183.283 32.4329 185.109 32.7023 186.404 31.7259C195.464 24.8993 208.288 26.7909 214.991 35.9425C215.949 37.2513 217.776 37.5208 219.07 36.5443C219.718 36.0552 220.11 35.3489 220.22 34.6001C220.331 33.8513 220.16 33.062 219.681 32.4077C211.065 20.642 194.582 18.2107 182.936 26.9877Z"/>
</mask>
<path fill-rule="evenodd" clip-rule="evenodd" d="M173.905 19.6332C172.949 18.3247 173.221 16.474 174.516 15.4976C192.264 2.12269 217.593 6.10946 230.979 24.386C231.458 25.0403 231.629 25.8296 231.518 26.5784C231.408 27.3272 231.016 28.0335 230.369 28.5216C229.074 29.4981 227.247 29.2286 226.289 27.9199C214.816 12.2563 193.148 8.8095 177.985 20.2349C176.689 21.2113 174.863 20.9419 173.905 19.6332ZM7 69.7953V24.4437C7 22.1468 8.05469 20.9867 10.1641 20.9632H13.0469C13.7734 20.9632 14.3477 21.0218 14.7695 21.139C15.1914 21.2328 15.6016 21.5375 16 22.0531C16.4219 22.5453 16.6328 23.2718 16.6328 24.2328V43.9554C19.7969 40.7914 23.6172 39.1976 28.0938 39.1742C29.8281 39.1742 31.3281 39.3382 32.5938 39.6664C33.8594 39.9711 34.8672 40.4515 35.6172 41.1078C36.3672 41.7406 36.9648 42.3617 37.4102 42.9711C37.8789 43.5804 38.1953 44.4242 38.3594 45.5023C38.5234 46.5804 38.6289 47.4476 38.6758 48.1039C38.7227 48.7367 38.7461 49.6273 38.7461 50.7757V69.7953C38.7461 71.9047 37.7148 72.9593 35.6523 72.9593H32.2773C30.9883 72.9593 30.1094 72.6898 29.6406 72.1507C29.1719 71.5882 28.9375 70.8031 28.9375 69.7953V49.6156C28.9375 47.8812 28.668 46.5922 28.1289 45.7484C27.6133 44.8812 26.5 44.4476 24.7891 44.4476C22.6328 44.4476 20.8516 45.1859 19.4453 46.6625C18.0625 48.1156 17.2188 49.8031 16.9141 51.725C16.8672 51.9593 16.8438 52.8031 16.8438 54.2562V69.3734C16.8438 69.9593 16.8203 70.4047 16.7734 70.7093C16.7266 71.014 16.6094 71.3773 16.4219 71.7992C16.2344 72.1976 15.8828 72.4906 15.3672 72.6781C14.875 72.8656 14.2422 72.9593 13.4688 72.9593H10.3047C8.10156 72.9593 7 71.9047 7 69.7953ZM45.25 56.1898C45.25 50.3304 46.7852 45.9593 49.8555 43.0765C52.9492 40.1937 57.1797 38.7523 62.5469 38.7523C65.4297 38.7523 67.8906 39.1976 69.9297 40.0882C71.9688 40.9789 73.5273 42.2093 74.6055 43.7797C75.6836 45.3265 76.4453 46.9672 76.8906 48.7015C77.3594 50.4359 77.5938 52.3578 77.5938 54.4672C77.5938 56.5297 76.5391 57.5609 74.4297 57.5609H54.5664C54.7539 64.85 57.8008 68.4945 63.707 68.4945C65.8164 68.4945 67.7383 68.1547 69.4727 67.475C71.2305 66.7718 72.6602 65.9984 73.7617 65.1547C74.8867 64.3109 75.543 63.8656 75.7305 63.8187H76.0117L76.3633 63.9593C76.5977 64.1937 76.7734 64.7328 76.8906 65.5765C77.0312 66.4203 77.1016 67.2054 77.1016 67.932L77.1719 68.9867C77.1719 69.6195 76.7852 70.1468 76.0117 70.5687C72.3086 72.6781 68.1602 73.7445 63.5664 73.7679C57.5664 73.7679 53.0078 72.2797 49.8906 69.3031C46.7969 66.3265 45.25 61.9554 45.25 56.1898ZM54.6367 52.8851H69.543C69.4023 50.0961 68.8516 47.9281 67.8906 46.3812C66.9297 44.8109 65.1484 44.0257 62.5469 44.0257C57.8594 44.0257 55.2227 46.9789 54.6367 52.8851ZM82.0234 41.7757C82.0234 40.5804 82.8438 39.9828 84.4844 39.9828H86.9453C88.6797 39.9828 89.9688 40.557 90.8125 41.7054C91.0469 41.9398 91.75 43.2992 92.9219 45.7836C94.1172 48.2445 95.3828 51.2211 96.7188 54.7132C98.0781 58.182 98.9219 60.9711 99.25 63.0804C99.4375 60.5961 101.242 54.2914 104.664 44.1664C105.344 42.3382 105.941 41.2132 106.457 40.7914C107.137 40.2523 108.098 39.9828 109.34 39.9828H111.344C113.031 39.9828 113.875 40.6273 113.875 41.9164C113.875 42.2445 113.77 42.7015 113.559 43.2875L102.414 75.7718C101.781 77.5531 101.301 78.7718 100.973 79.4281C98.1836 85.0062 94.1055 87.7953 88.7383 87.7953C85.7148 87.7953 83.8867 87.4789 83.2539 86.8461C83.0195 86.6117 82.7852 84.9593 82.5508 81.889C82.5039 80.975 82.6211 80.3773 82.9023 80.0961L83.2539 79.9554H83.5352C83.7227 80.0023 84.0977 80.1781 84.6602 80.4828C85.2227 80.7875 85.8555 81.0453 86.5586 81.2562C87.2852 81.4906 88.082 81.6078 88.9492 81.6078C89.957 81.6078 90.8359 81.3851 91.5859 80.9398C92.3359 80.5179 92.9336 79.9203 93.3789 79.1468C93.8242 78.3734 94.2109 77.5648 94.5391 76.7211C94.8906 75.9007 95.207 75.0336 95.4883 74.1195C95.582 73.7914 95.6641 73.5218 95.7344 73.3109C95.7812 72.889 95.6758 72.432 95.418 71.9398L82.6914 43.8148C82.2461 42.8304 82.0234 42.1507 82.0234 41.7757ZM120.133 69.725V42.7953C120.133 40.6859 121.211 39.6312 123.367 39.6312H126.25C126.719 39.6312 127.082 39.6547 127.34 39.7015C127.621 39.7484 127.961 39.8539 128.359 40.0179C128.781 40.182 129.086 40.4984 129.273 40.9672C129.461 41.4125 129.555 41.9984 129.555 42.725V44.1664C130.469 43.2992 131.184 42.6429 131.699 42.1976C132.238 41.7289 133.445 41.1078 135.32 40.3343C137.195 39.5609 139.188 39.1742 141.297 39.1742C144.133 39.1742 146.324 39.5961 147.871 40.4398C149.441 41.2836 150.59 42.6429 151.316 44.5179C154.293 40.9554 158.277 39.1742 163.27 39.1742C165.332 39.1742 167.066 39.432 168.473 39.9476C169.879 40.4398 170.934 41.014 171.637 41.6703C172.34 42.3265 172.867 43.264 173.219 44.4828C173.594 45.7015 173.805 46.7093 173.852 47.5062C173.898 48.3031 173.922 49.4164 173.922 50.8461V69.725C173.922 70.7797 173.688 71.5882 173.219 72.1507C172.773 72.6898 171.895 72.9593 170.582 72.9593H167.418C167.043 72.9593 166.691 72.9359 166.363 72.889C166.059 72.8422 165.801 72.7718 165.59 72.6781C165.379 72.5843 165.203 72.4789 165.062 72.3617C164.922 72.2211 164.781 72.0687 164.641 71.9047C164.523 71.7406 164.43 71.6 164.359 71.4828C164.289 71.3656 164.242 71.1898 164.219 70.9554C164.195 70.6976 164.172 70.5336 164.148 70.4632C164.125 70.3929 164.113 70.2406 164.113 70.0062V69.5843V50.0023C164.113 49.0882 164.09 48.3968 164.043 47.9281C163.996 47.4359 163.844 46.8851 163.586 46.2757C163.328 45.6429 162.895 45.1859 162.285 44.9047C161.676 44.6 160.867 44.4476 159.859 44.4476C157.891 44.4476 156.262 45.057 154.973 46.2757C153.684 47.4945 152.793 48.8773 152.301 50.4242C152.066 51.2445 151.949 52.4867 151.949 54.1507V69.057V69.4789C151.949 69.6429 151.891 69.9593 151.773 70.4281C151.656 70.8734 151.492 71.2601 151.281 71.5882C151.094 71.9164 150.789 72.2328 150.367 72.5375C149.945 72.8187 149.418 72.9593 148.785 72.9593H145.48C144.145 72.9593 143.242 72.6898 142.773 72.1507C142.305 71.5882 142.07 70.7797 142.07 69.725V49.6859C142.07 47.8109 141.777 46.475 141.191 45.6781C140.629 44.8578 139.539 44.4476 137.922 44.4476C135.812 44.4476 133.961 45.2562 132.367 46.8734C130.773 48.4672 129.977 50.7054 129.977 53.5882V69.725C129.977 71.8812 128.898 72.9593 126.742 72.9593H123.508C121.258 72.9593 120.133 71.8812 120.133 69.725ZM180.391 63.0804C180.391 61.2054 180.941 59.5765 182.043 58.1937C183.168 56.8109 184.504 55.7328 186.051 54.9593C187.621 54.1859 189.473 53.5765 191.605 53.1312C193.738 52.6625 195.578 52.3578 197.125 52.2172C198.695 52.0765 200.277 52.0062 201.871 52.0062V50.4945C201.871 48.432 201.531 46.8031 200.852 45.6078C200.172 44.4125 198.801 43.8148 196.738 43.8148C194.863 43.8148 193.152 44.0726 191.605 44.5882C190.082 45.0804 188.945 45.6429 188.195 46.2757C187.469 46.8851 186.777 47.4593 186.121 47.9984C185.488 48.514 185.02 48.7718 184.715 48.7718L184.434 48.7015L184.152 48.4906C184.012 48.2562 183.883 47.6703 183.766 46.7328C183.648 45.7953 183.566 44.9398 183.52 44.1664L183.414 42.9359C183.414 42.7015 183.426 42.5257 183.449 42.4086C183.496 42.2914 183.59 42.1625 183.73 42.0218C183.871 41.8578 183.977 41.7523 184.047 41.7054C184.117 41.6586 184.316 41.5648 184.645 41.4242C184.996 41.2836 185.266 41.1664 185.453 41.0726C188.898 39.5257 192.66 38.7523 196.738 38.7523C202.199 38.7523 206.043 39.7836 208.27 41.8461C210.52 43.9086 211.645 46.8851 211.645 50.7757V69.725C211.645 71.8812 210.566 72.9593 208.41 72.9593H204.965C203.91 72.9593 203.148 72.6781 202.68 72.1156C202.234 71.5297 202.012 70.85 202.012 70.0765C198.848 72.514 195.145 73.7445 190.902 73.7679C187.691 73.7679 185.137 72.6664 183.238 70.4632C181.34 68.2367 180.391 65.7757 180.391 63.0804ZM189.848 63.0804C189.848 64.4632 190.305 65.7172 191.219 66.8422C192.133 67.9437 193.328 68.4945 194.805 68.4945C196.445 68.4945 198.027 67.9789 199.551 66.9476C201.098 65.9164 201.871 64.2289 201.871 61.8851V56.2601C200.395 56.4007 199.117 56.5531 198.039 56.7172C196.984 56.8812 195.73 57.1976 194.277 57.6664C192.848 58.1117 191.746 58.8031 190.973 59.7406C190.223 60.6781 189.848 61.7914 189.848 63.0804ZM218.289 69.3734C218.289 69.1859 218.582 67.4984 219.168 64.3109C219.309 63.2093 219.648 62.6586 220.188 62.6586C220.422 62.6586 220.984 63.1039 221.875 63.9945C222.766 64.8851 224.066 65.7875 225.777 66.7015C227.512 67.6156 229.504 68.0726 231.754 68.0726C235.504 68.0726 237.379 66.7953 237.379 64.2406C237.379 62.9047 236.805 61.932 235.656 61.3226C234.508 60.6898 232.82 60.1976 230.594 59.8461C228.391 59.4711 226.914 59.1429 226.164 58.8617C224.289 58.1351 222.566 56.9867 220.996 55.4164C219.449 53.8226 218.676 51.725 218.676 49.1234C218.676 42.3968 222.707 38.9398 230.77 38.7523H232.633C235.703 38.7992 238.633 39.3968 241.422 40.5453C242.148 40.8265 242.617 41.0726 242.828 41.2836C243.039 41.4711 243.145 41.8109 243.145 42.3031C243.145 42.5843 242.91 44.0961 242.441 46.8382C242.254 47.5648 241.961 47.9164 241.562 47.8929C241.234 47.8929 240.672 47.5765 239.875 46.9437C239.078 46.2875 237.93 45.6429 236.43 45.0101C234.953 44.3539 233.184 44.0257 231.121 44.0257C227.559 44.0257 225.777 45.1742 225.777 47.4711C225.777 48.7132 226.445 49.6273 227.781 50.2132C229.141 50.7757 230.957 51.2679 233.23 51.6898C235.527 52.0882 237.203 52.5804 238.258 53.1664C239.172 53.5882 240.027 54.139 240.824 54.8187C241.645 55.4984 242.477 56.5765 243.32 58.0531C244.164 59.5062 244.586 61.1117 244.586 62.8695C244.586 66.9007 243.426 69.725 241.105 71.3422C238.809 72.9593 235.645 73.7679 231.613 73.7679C226.621 73.7679 222.332 72.6078 218.746 70.2875L218.465 69.9359C218.348 69.6547 218.289 69.4672 218.289 69.3734ZM247.961 42.5843C247.961 40.85 249.016 39.9828 251.125 39.9828H252.848V33.7953C252.848 31.639 254.008 30.5609 256.328 30.5609H258.895C261.051 30.5609 262.129 31.639 262.129 33.7953V39.9828H268.703C269.57 39.9828 270.262 40.182 270.777 40.5804C271.316 40.9554 271.645 41.307 271.762 41.6351C271.879 41.9632 271.938 42.3031 271.938 42.6547C271.938 42.9828 271.879 43.3226 271.762 43.6742C271.645 44.0023 271.328 44.3539 270.812 44.7289C270.32 45.0804 269.664 45.2562 268.844 45.2562H262.129V59.6351C262.129 59.8695 262.117 60.1859 262.094 60.5843C262.07 60.9593 262.059 61.264 262.059 61.4984C262.059 64.0531 262.293 65.7992 262.762 66.7367C263.254 67.6742 264.027 68.1429 265.082 68.1429C266.418 68.1429 267.812 67.7211 269.266 66.8773C270.719 66.0336 271.492 65.6117 271.586 65.6117C271.914 65.6117 272.207 65.9515 272.465 66.6312C272.746 67.2875 272.957 67.9554 273.098 68.6351L273.238 69.5843C273.238 70.4984 271.738 71.4242 268.738 72.3617C265.738 73.2992 262.867 73.7679 260.125 73.7679C256.609 73.7679 254.336 72.0336 253.305 68.5648C252.883 67.1351 252.66 64.9554 252.637 62.0257V45.2562H251.125C249.016 45.2562 247.961 44.3656 247.961 42.5843ZM182.936 26.9877C181.64 27.964 181.368 29.8147 182.325 31.1242C183.283 32.4329 185.109 32.7023 186.404 31.7259C195.464 24.8993 208.288 26.7909 214.991 35.9425C215.949 37.2513 217.776 37.5208 219.07 36.5443C219.718 36.0552 220.11 35.3489 220.22 34.6001C220.331 33.8513 220.16 33.062 219.681 32.4077C211.065 20.642 194.582 18.2107 182.936 26.9877Z" fill="white"/>
<path d="M174.516 15.4976L170.303 9.90726L170.302 9.90767L174.516 15.4976ZM173.905 19.6332L168.254 23.7638L168.257 23.7686L173.905 19.6332ZM230.979 24.386L236.626 20.2505L236.626 20.2499L230.979 24.386ZM230.369 28.5216L226.155 22.9317L226.153 22.9335L230.369 28.5216ZM226.289 27.9199L231.937 23.7845L231.936 23.7835L226.289 27.9199ZM177.985 20.2349L173.772 14.6443L173.771 14.645L177.985 20.2349ZM10.1641 20.9632V13.9632H10.1252L10.0863 13.9637L10.1641 20.9632ZM14.7695 21.139L12.896 27.8837L13.0724 27.9326L13.251 27.9723L14.7695 21.139ZM16 22.0531L10.461 26.3332L10.5696 26.4738L10.6852 26.6086L16 22.0531ZM16.6328 43.9554H9.63281V60.8549L21.5826 48.9052L16.6328 43.9554ZM28.0938 39.1742V32.1742H28.0754L28.0571 32.1743L28.0938 39.1742ZM32.5938 39.6664L30.837 46.4423L30.8961 46.4577L30.9554 46.4719L32.5938 39.6664ZM35.6172 41.1078L31.0077 46.3758L31.055 46.4172L31.1031 46.4578L35.6172 41.1078ZM37.4102 42.9711L31.7584 47.1012L31.8093 47.1707L31.8618 47.239L37.4102 42.9711ZM38.6758 48.1039L31.6936 48.6026L31.6942 48.6118L31.6949 48.621L38.6758 48.1039ZM29.6406 72.1507L24.2631 76.632L24.3101 76.6885L24.3584 76.744L29.6406 72.1507ZM28.1289 45.7484L22.1122 49.3259L22.1696 49.4225L22.23 49.5171L28.1289 45.7484ZM19.4453 46.6625L14.3763 41.8349L14.3744 41.8369L19.4453 46.6625ZM16.9141 51.725L23.7781 53.0978L23.8057 52.9599L23.8277 52.821L16.9141 51.725ZM16.4219 71.7992L22.7556 74.7798L22.7878 74.7113L22.8186 74.6422L16.4219 71.7992ZM15.3672 72.6781L12.975 66.0995L12.925 66.1177L12.8752 66.1367L15.3672 72.6781ZM49.8555 43.0765L45.0834 37.9553L45.0737 37.9643L45.064 37.9734L49.8555 43.0765ZM74.6055 43.7797L68.8347 47.7417L68.8486 47.762L68.8627 47.7822L74.6055 43.7797ZM76.8906 48.7015L70.1105 50.4424L70.1215 50.4852L70.1331 50.5279L76.8906 48.7015ZM54.5664 57.5609V50.5609H47.384L47.5687 57.7409L54.5664 57.5609ZM69.4727 67.475L72.0268 73.9924L72.0496 73.9834L72.0724 73.9743L69.4727 67.475ZM73.7617 65.1547L69.5617 59.5547L69.5333 59.5759L69.5052 59.5975L73.7617 65.1547ZM75.7305 63.8187V56.8187H74.8687L74.0327 57.0277L75.7305 63.8187ZM76.0117 63.8187L78.6115 57.3194L77.3598 56.8187H76.0117V63.8187ZM76.3633 63.9593L81.313 59.0096L80.2971 57.9936L78.963 57.46L76.3633 63.9593ZM76.8906 65.5765L69.9572 66.5395L69.9702 66.6336L69.9859 66.7273L76.8906 65.5765ZM77.1016 67.932H70.1016V68.1651L70.1171 68.3976L77.1016 67.932ZM77.1719 68.9867H84.1719V68.7536L84.1564 68.521L77.1719 68.9867ZM76.0117 70.5687L72.6598 64.4234L72.6031 64.4543L72.547 64.4863L76.0117 70.5687ZM63.5664 73.7679V80.7679H63.5843L63.6021 80.7678L63.5664 73.7679ZM49.8906 69.3031L45.0373 74.3475L45.0468 74.3566L45.0564 74.3657L49.8906 69.3031ZM69.543 52.8851V59.8851H76.9048L76.5341 52.5326L69.543 52.8851ZM54.6367 52.8851L47.6709 52.1941L46.9079 59.8851H54.6367V52.8851ZM67.8906 46.3812L61.9199 50.035L61.9321 50.055L61.9445 50.075L67.8906 46.3812ZM90.8125 41.7054L85.1713 45.85L85.4864 46.2789L85.8628 46.6552L90.8125 41.7054ZM92.9219 45.7836L86.5909 48.7699L86.6079 48.806L86.6253 48.8419L92.9219 45.7836ZM96.7188 54.7132L90.1808 57.2143L90.191 57.2409L90.2014 57.2674L96.7188 54.7132ZM99.25 63.0804L92.3332 64.1564L106.23 63.6072L99.25 63.0804ZM104.664 44.1664L98.1029 41.727L98.0662 41.8255L98.0325 41.9252L104.664 44.1664ZM106.457 40.7914L102.107 35.3069L102.066 35.34L102.024 35.3737L106.457 40.7914ZM113.559 43.2875L106.972 40.9164L106.955 40.966L106.937 41.0159L113.559 43.2875ZM102.414 75.7718L109.01 78.1152L109.023 78.0794L109.035 78.0434L102.414 75.7718ZM82.5508 81.889L75.56 82.2475L75.5644 82.3348L75.5711 82.4218L82.5508 81.889ZM82.9023 80.0961L80.3026 73.5967L78.9686 74.1303L77.9526 75.1463L82.9023 80.0961ZM83.2539 79.9554V72.9554H81.9058L80.6542 73.4561L83.2539 79.9554ZM83.5352 79.9554L85.2329 73.1644L84.3969 72.9554H83.5352V79.9554ZM86.5586 81.2562L88.7076 74.5943L88.639 74.5721L88.57 74.5514L86.5586 81.2562ZM91.5859 80.9398L88.1541 74.8388L88.0827 74.879L88.0122 74.9208L91.5859 80.9398ZM94.5391 76.7211L88.105 73.9636L88.0582 74.073L88.015 74.1839L94.5391 76.7211ZM95.4883 74.1195L102.179 76.1781L102.2 76.1105L102.219 76.0425L95.4883 74.1195ZM95.7344 73.3109L102.375 75.5245L102.61 74.821L102.692 74.0839L95.7344 73.3109ZM95.418 71.9398L89.0405 74.8256L89.1236 75.0093L89.2171 75.1879L95.418 71.9398ZM82.6914 43.8148L76.3137 46.7L76.3139 46.7006L82.6914 43.8148ZM127.34 39.7015L126.088 46.5886L126.138 46.5978L126.189 46.6063L127.34 39.7015ZM128.359 40.0179L125.694 46.4907L125.758 46.517L125.822 46.542L128.359 40.0179ZM129.273 40.9672L122.774 43.5669L122.798 43.6254L122.822 43.6836L129.273 40.9672ZM129.555 44.1664H122.555V60.4564L134.373 49.2446L129.555 44.1664ZM131.699 42.1976L136.275 47.4954L136.284 47.4876L136.292 47.4799L131.699 42.1976ZM147.871 40.4398L144.519 46.5851L144.538 46.5956L144.558 46.6061L147.871 40.4398ZM151.316 44.5179L144.789 47.0472L149.078 58.1145L156.688 49.0062L151.316 44.5179ZM168.473 39.9476L166.063 46.5198L166.111 46.5376L166.16 46.5546L168.473 39.9476ZM173.219 44.4828L166.493 46.4229L166.51 46.4823L166.528 46.5414L173.219 44.4828ZM173.219 72.1507L167.841 67.6695L167.832 67.681L167.822 67.6926L173.219 72.1507ZM166.363 72.889L165.299 79.8076L165.336 79.8134L165.373 79.8187L166.363 72.889ZM165.062 72.3617L160.113 77.3114L160.337 77.536L160.581 77.7392L165.062 72.3617ZM164.641 71.9047L158.944 75.9733L159.124 76.2252L159.326 76.4602L164.641 71.9047ZM164.219 70.9554L157.247 71.5892L157.25 71.6206L157.253 71.652L164.219 70.9554ZM164.043 47.9281L157.075 48.5918L157.076 48.6082L157.078 48.6246L164.043 47.9281ZM163.586 46.2757L157.103 48.9168L157.121 48.9601L157.139 49.0032L163.586 46.2757ZM162.285 44.9047L159.155 51.1656L159.252 51.2145L159.352 51.2604L162.285 44.9047ZM152.301 50.4242L145.63 48.3018L145.599 48.401L145.57 48.5011L152.301 50.4242ZM151.773 70.4281L158.543 72.2095L158.554 72.1678L158.564 72.1258L151.773 70.4281ZM151.281 71.5882L145.393 67.8029L145.294 67.9566L145.204 68.1153L151.281 71.5882ZM150.367 72.5375L154.25 78.3618L154.359 78.289L154.466 78.2122L150.367 72.5375ZM142.773 72.1507L137.396 76.632L137.443 76.6885L137.491 76.744L142.773 72.1507ZM141.191 45.6781L135.418 49.6368L135.484 49.7319L135.552 49.8248L141.191 45.6781ZM132.367 46.8734L137.317 51.8231L137.335 51.8051L137.353 51.7869L132.367 46.8734ZM182.043 58.1937L176.613 53.7761L176.59 53.804L176.568 53.8322L182.043 58.1937ZM186.051 54.9593L182.958 48.6797L182.939 48.689L182.92 48.6983L186.051 54.9593ZM191.605 53.1312L193.036 59.9834L193.072 59.9759L193.108 59.968L191.605 53.1312ZM197.125 52.2172L196.501 45.245L196.491 45.2459L197.125 52.2172ZM201.871 52.0062V59.0062H208.871V52.0062H201.871ZM191.605 44.5882L193.757 51.2492L193.788 51.2393L193.819 51.229L191.605 44.5882ZM188.195 46.2757L192.694 51.6391L192.702 51.6324L192.709 51.6258L188.195 46.2757ZM186.121 47.9984L190.543 53.425L190.554 53.4163L190.564 53.4075L186.121 47.9984ZM184.715 48.7718L183.017 55.5628L183.853 55.7718H184.715V48.7718ZM184.434 48.7015L180.234 54.3015L181.364 55.1497L182.736 55.4925L184.434 48.7015ZM184.152 48.4906L178.15 52.0921L178.855 53.2679L179.952 54.0906L184.152 48.4906ZM183.52 44.1664L190.507 43.7429L190.501 43.6557L190.494 43.5686L183.52 44.1664ZM183.414 42.9359H176.414V43.2354L176.44 43.5337L183.414 42.9359ZM183.449 42.4086L176.95 39.8088L176.711 40.4055L176.585 41.0357L183.449 42.4086ZM183.73 42.0218L188.68 46.9716L188.87 46.7815L189.045 46.5774L183.73 42.0218ZM184.645 41.4242L182.045 34.9248L181.966 34.9565L181.887 34.9902L184.645 41.4242ZM185.453 41.0726L182.586 34.6867L182.453 34.7464L182.323 34.8116L185.453 41.0726ZM208.27 41.8461L203.513 46.9814L203.526 46.9938L203.539 47.0061L208.27 41.8461ZM202.68 72.1156L197.107 76.3512L197.202 76.4762L197.302 76.5969L202.68 72.1156ZM202.012 70.0765H209.012V55.8476L197.74 64.5312L202.012 70.0765ZM190.902 73.7679V80.7679H190.922L190.941 80.7678L190.902 73.7679ZM183.238 70.4632L177.912 75.0049L177.924 75.0188L177.935 75.0327L183.238 70.4632ZM191.219 66.8422L185.786 71.2563L185.809 71.2843L185.832 71.3122L191.219 66.8422ZM199.551 66.9476L195.668 61.1233L195.647 61.137L195.627 61.1509L199.551 66.9476ZM201.871 56.2601H208.871V48.5618L201.207 49.2917L201.871 56.2601ZM198.039 56.7172L196.986 49.7968L196.975 49.7986L196.963 49.8003L198.039 56.7172ZM194.277 57.6664L196.359 64.3497L196.393 64.3392L196.426 64.3283L194.277 57.6664ZM190.973 59.7406L185.573 55.2859L185.54 55.3266L185.507 55.3677L190.973 59.7406ZM219.168 64.3109L226.053 65.5765L226.087 65.3877L226.112 65.1973L219.168 64.3109ZM225.777 66.7015L222.479 72.8757L222.496 72.8849L222.514 72.8941L225.777 66.7015ZM235.656 61.3226L232.278 67.4535L232.326 67.4802L232.375 67.5061L235.656 61.3226ZM230.594 59.8461L229.419 66.7468L229.461 66.7539L229.502 66.7604L230.594 59.8461ZM226.164 58.8617L223.635 65.3888L223.67 65.4026L223.706 65.416L226.164 58.8617ZM220.996 55.4164L215.973 60.2917L216.009 60.3292L216.046 60.3661L220.996 55.4164ZM230.77 38.7523V31.7523H230.688L230.607 31.7542L230.77 38.7523ZM232.633 38.7523L232.74 31.7531L232.686 31.7523H232.633V38.7523ZM241.422 40.5453L238.757 47.018L238.825 47.0464L238.895 47.0733L241.422 40.5453ZM242.828 41.2836L237.878 46.2333L238.024 46.3788L238.178 46.5154L242.828 41.2836ZM242.441 46.8382L249.219 48.5874L249.292 48.3051L249.341 48.0177L242.441 46.8382ZM241.562 47.8929L241.974 40.905L241.768 40.8929H241.562V47.8929ZM239.875 46.9437L235.425 52.3472L235.473 52.3868L235.522 52.4255L239.875 46.9437ZM236.43 45.0101L233.587 51.4068L233.647 51.4338L233.709 51.4597L236.43 45.0101ZM227.781 50.2132L224.97 56.6238L225.037 56.6533L225.105 56.6814L227.781 50.2132ZM233.23 51.6898L231.953 58.5723L231.994 58.5798L232.034 58.5868L233.23 51.6898ZM238.258 53.1664L234.858 59.2855L235.087 59.4125L235.324 59.5221L238.258 53.1664ZM240.824 54.8187L236.282 60.1446L236.32 60.177L236.358 60.2089L240.824 54.8187ZM243.32 58.0531L237.243 61.5261L237.255 61.5471L237.267 61.568L243.32 58.0531ZM241.105 71.3422L237.103 65.5994L237.089 65.6089L237.076 65.6185L241.105 71.3422ZM218.746 70.2875L213.28 74.6603L213.99 75.5474L214.943 76.1645L218.746 70.2875ZM218.465 69.9359L212.003 72.6282L212.383 73.5386L212.999 74.3088L218.465 69.9359ZM252.848 39.9828V46.9828H259.848V39.9828H252.848ZM262.129 39.9828H255.129V46.9828H262.129V39.9828ZM270.777 40.5804L266.497 46.1194L266.636 46.2266L266.78 46.3268L270.777 40.5804ZM271.762 43.6742L278.354 46.0285L278.379 45.9584L278.403 45.8878L271.762 43.6742ZM270.812 44.7289L274.881 50.425L274.906 50.4076L274.93 50.39L270.812 44.7289ZM262.129 45.2562V38.2562H255.129V45.2562H262.129ZM262.094 60.5843L269.08 61.021L269.081 61.0082L269.082 60.9954L262.094 60.5843ZM262.762 66.7367L256.501 69.8672L256.532 69.9292L256.564 69.9905L262.762 66.7367ZM272.465 66.6312L265.92 69.1138L265.972 69.2524L266.031 69.3886L272.465 66.6312ZM273.098 68.6351L280.022 67.6093L279.993 67.4121L279.952 67.2169L273.098 68.6351ZM273.238 69.5843H280.238V69.0686L280.163 68.5585L273.238 69.5843ZM253.305 68.5648L246.591 70.5459L246.593 70.5528L246.595 70.5596L253.305 68.5648ZM252.637 62.0257H245.637V62.0537L245.637 62.0817L252.637 62.0257ZM252.637 45.2562H259.637V38.2562H252.637V45.2562ZM182.325 31.1242L176.672 35.2524L176.677 35.2596L182.325 31.1242ZM182.936 26.9877L178.723 21.3975L178.722 21.3977L182.936 26.9877ZM186.404 31.7259L182.192 26.1355L182.191 26.136L186.404 31.7259ZM214.991 35.9425L220.639 31.8071L220.638 31.8064L214.991 35.9425ZM219.07 36.5443L223.286 42.1325L223.289 42.1307L219.07 36.5443ZM219.681 32.4077L225.329 28.2722L225.328 28.272L219.681 32.4077ZM170.302 9.90767C165.948 13.1901 165.043 19.3711 168.254 23.7638L179.556 15.5025C180.854 17.2783 180.493 19.7578 178.729 21.0876L170.302 9.90767ZM236.626 20.2499C221.01 -1.07124 191.271 -5.89405 170.303 9.90726L178.729 21.088C193.257 10.1394 214.175 13.2902 225.331 28.5221L236.626 20.2499ZM238.443 27.5998C238.809 25.1204 238.245 22.4605 236.626 20.2505L225.331 28.5215C224.671 27.6202 224.448 26.5389 224.593 25.5569L238.443 27.5998ZM234.582 34.1116C236.769 32.463 238.078 30.0794 238.443 27.5998L224.593 25.5569C224.738 24.5749 225.263 23.604 226.155 22.9317L234.582 34.1116ZM220.641 32.0553C223.905 36.5126 230.17 37.4398 234.584 34.1098L226.153 22.9335C227.978 21.5564 230.59 21.9447 231.937 23.7845L220.641 32.0553ZM182.197 25.8255C194.123 16.8391 211.385 19.4193 220.642 32.0563L231.936 23.7835C218.246 5.09335 192.172 0.779947 173.772 14.6443L182.197 25.8255ZM168.257 23.7686C171.522 28.2272 177.785 29.1511 182.198 25.8249L173.771 14.645C175.593 13.2715 178.205 13.6567 179.553 15.4978L168.257 23.7686ZM0 24.4437V69.7953H14V24.4437H0ZM10.0863 13.9637C7.78652 13.9892 4.85356 14.6759 2.61144 17.1422C0.469289 19.4986 0 22.3502 0 24.4437H14C14 24.2403 14.0581 25.3634 12.9706 26.5597C11.7832 27.8658 10.4322 27.9607 10.2418 27.9628L10.0863 13.9637ZM13.0469 13.9632H10.1641V27.9632H13.0469V13.9632ZM16.643 14.3944C15.3425 14.0331 14.049 13.9632 13.0469 13.9632V27.9632C13.1353 27.9632 13.2018 27.965 13.2482 27.9671C13.2951 27.9693 13.3152 27.9714 13.3119 27.971C13.3091 27.9707 13.2727 27.967 13.2081 27.9556C13.1444 27.9444 13.0371 27.9228 12.896 27.8837L16.643 14.3944ZM21.539 17.773C20.6282 16.5943 18.9436 14.8958 16.288 14.3057L13.251 27.9723C11.4392 27.5697 10.5749 26.4806 10.461 26.3332L21.539 17.773ZM23.6328 24.2328C23.6328 22.3836 23.2434 19.7476 21.3148 17.4976L10.6852 26.6086C10.147 25.9808 9.87884 25.3551 9.75219 24.9188C9.6317 24.5038 9.63281 24.2437 9.63281 24.2328H23.6328ZM23.6328 43.9554V24.2328H9.63281V43.9554H23.6328ZM28.0571 32.1743C21.7377 32.2074 16.1515 34.5372 11.6831 39.0057L21.5826 48.9052C23.4422 47.0455 25.4967 46.1879 28.1304 46.1741L28.0571 32.1743ZM34.3505 32.8904C32.3596 32.3742 30.2406 32.1742 28.0938 32.1742V46.1742C29.4156 46.1742 30.2967 46.3023 30.837 46.4423L34.3505 32.8904ZM40.2267 35.8397C38.4046 34.2454 36.2724 33.352 34.2321 32.8608L30.9554 46.4719C31.071 46.4998 31.1543 46.5253 31.2095 46.5444C31.2647 46.5634 31.2884 46.5749 31.2864 46.5739C31.2808 46.5712 31.1684 46.5164 31.0077 46.3758L40.2267 35.8397ZM43.0619 38.8409C42.2062 37.6699 41.1879 36.6493 40.1313 35.7577L31.1031 46.4578C31.5464 46.8319 31.7235 47.0534 31.7584 47.1012L43.0619 38.8409ZM45.2797 44.4492C45.0078 42.6621 44.3884 40.5619 42.9585 38.7031L31.8618 47.239C31.6075 46.9084 31.4894 46.6379 31.4447 46.5188C31.4014 46.4034 31.4153 46.3997 31.439 46.5554L45.2797 44.4492ZM45.658 47.6051C45.5921 46.6828 45.4562 45.6089 45.2797 44.4492L31.439 46.5554C31.5907 47.552 31.6657 48.2124 31.6936 48.6026L45.658 47.6051ZM45.7461 50.7757C45.7461 49.5687 45.7226 48.4766 45.6567 47.5868L31.6949 48.621C31.7227 48.9967 31.7461 49.6859 31.7461 50.7757H45.7461ZM45.7461 69.7953V50.7757H31.7461V69.7953H45.7461ZM35.6523 79.9593C37.803 79.9593 40.6925 79.3992 42.9777 77.0621C45.2344 74.7542 45.7461 71.89 45.7461 69.7953H31.7461C31.7461 69.7736 31.7463 69.4738 31.8973 69.0104C32.0588 68.5149 32.3818 67.8736 32.9676 67.2745C34.2215 65.9921 35.5642 65.9593 35.6523 65.9593V79.9593ZM32.2773 79.9593H35.6523V65.9593H32.2773V79.9593ZM24.3584 76.744C26.9042 79.6717 30.4813 79.9593 32.2773 79.9593V65.9593C32.0718 65.9593 32.2707 65.932 32.7037 66.0648C33.1621 66.2054 34.0839 66.5927 34.9229 67.5575L24.3584 76.744ZM21.9375 69.7953C21.9375 71.8274 22.411 74.4095 24.2631 76.632L35.0182 67.6695C35.9328 68.767 35.9375 69.7788 35.9375 69.7953H21.9375ZM21.9375 49.6156V69.7953H35.9375V49.6156H21.9375ZM22.23 49.5171C22.0727 49.2709 21.9838 49.0689 21.9373 48.9462C21.891 48.8243 21.8796 48.7621 21.8835 48.7807C21.8873 48.7985 21.9016 48.8744 21.9146 49.0199C21.9275 49.1645 21.9375 49.3609 21.9375 49.6156H35.9375C35.9375 47.4062 35.6399 44.503 34.0278 41.9797L22.23 49.5171ZM24.7891 51.4476C25.1203 51.4476 24.889 51.4989 24.3668 51.2956C23.7467 51.0541 22.7924 50.47 22.1122 49.3259L34.1457 42.1709C31.6735 38.0131 27.2087 37.4476 24.7891 37.4476V51.4476ZM24.5143 51.4901C24.5561 51.4461 24.5737 51.4357 24.5647 51.442C24.5547 51.4489 24.5363 51.4595 24.5162 51.4679C24.4966 51.476 24.498 51.4726 24.5322 51.4662C24.5681 51.4594 24.6501 51.4476 24.7891 51.4476V37.4476C20.8403 37.4476 17.1865 38.8843 14.3763 41.8349L24.5143 51.4901ZM23.8277 52.821C23.9031 52.3456 24.0793 51.9472 24.5162 51.488L14.3744 41.8369C12.0457 44.284 10.5344 47.2605 10.0004 50.6289L23.8277 52.821ZM23.8438 54.2562C23.8438 53.5555 23.8495 53.0552 23.8586 52.7279C23.8608 52.6494 23.863 52.5881 23.8649 52.5421C23.8659 52.5193 23.8667 52.5019 23.8674 52.4894C23.8677 52.4832 23.868 52.4785 23.8682 52.4753C23.8684 52.472 23.8685 52.4705 23.8685 52.4706C23.8685 52.4706 23.8683 52.4727 23.868 52.4766C23.8678 52.4805 23.8673 52.4867 23.8666 52.4951C23.8653 52.5108 23.8628 52.5399 23.8585 52.5797C23.8532 52.6303 23.8319 52.8288 23.7781 53.0978L10.05 50.3522C9.88607 51.1718 9.87096 52.0896 9.86403 52.3392C9.84968 52.8556 9.84375 53.5038 9.84375 54.2562H23.8438ZM23.8438 69.3734V54.2562H9.84375V69.3734H23.8438ZM23.692 71.7737C23.8216 70.9313 23.8438 70.059 23.8438 69.3734H9.84375C9.84375 69.5792 9.83948 69.7098 9.83585 69.7789C9.83412 69.8117 9.8332 69.8177 9.83476 69.8011C9.83616 69.7862 9.84157 69.7311 9.85484 69.6449L23.692 71.7737ZM22.8186 74.6422C23.1462 73.9049 23.5165 72.9147 23.692 71.7737L9.85484 69.6449C9.89944 69.355 9.95852 69.154 9.98843 69.0613C10.0197 68.9644 10.0383 68.9267 10.0252 68.9562L22.8186 74.6422ZM17.7594 79.2566C19.561 78.6015 21.5976 77.2405 22.7556 74.7798L10.0881 68.8186C10.8711 67.1548 12.2046 66.3797 12.975 66.0995L17.7594 79.2566ZM13.4688 79.9593C14.7312 79.9593 16.2909 79.8169 17.8592 79.2195L12.8752 66.1367C13.1906 66.0165 13.4156 65.9768 13.4976 65.9646C13.5823 65.9521 13.5805 65.9593 13.4688 65.9593V79.9593ZM10.3047 79.9593H13.4688V65.9593H10.3047V79.9593ZM0 69.7953C0 72.0084 0.593546 74.9346 2.98517 77.2245C5.31997 79.4599 8.19836 79.9593 10.3047 79.9593V65.9593C10.3059 65.9593 10.3674 65.9592 10.4788 65.9745C10.5905 65.9898 10.7658 66.0223 10.9872 66.093C11.4493 66.2405 12.0733 66.5436 12.6672 67.1122C13.9572 68.3473 14 69.6915 14 69.7953H0ZM45.064 37.9734C40.1036 42.6309 38.25 49.1745 38.25 56.1898H52.25C52.25 51.4864 53.4667 49.2878 54.6469 48.1796L45.064 37.9734ZM62.5469 31.7523C55.9044 31.7523 49.795 33.5649 45.0834 37.9553L54.6275 48.1978C56.1035 46.8225 58.455 45.7523 62.5469 45.7523V31.7523ZM72.7316 33.6735C69.589 32.3009 66.1211 31.7523 62.5469 31.7523V45.7523C64.7382 45.7523 66.1922 46.0944 67.1278 46.503L72.7316 33.6735ZM80.3763 39.8176C78.4401 36.9976 75.7651 34.9985 72.7316 33.6735L67.1278 46.503C68.1724 46.9593 68.6146 47.4211 68.8347 47.7417L80.3763 39.8176ZM83.6707 46.9607C83.0066 44.3742 81.8788 41.9731 80.3483 39.7771L68.8627 47.7822C69.4884 48.6799 69.884 49.5601 70.1105 50.4424L83.6707 46.9607ZM84.5938 54.4672C84.5938 51.8451 84.3029 49.2977 83.6482 46.8752L70.1331 50.5279C70.4158 51.5741 70.5938 52.8705 70.5938 54.4672H84.5938ZM74.4297 64.5609C76.5244 64.5609 79.3886 64.0492 81.6966 61.7925C84.0337 59.5073 84.5938 56.6178 84.5938 54.4672H70.5938C70.5938 54.379 70.6265 53.0363 71.9089 51.7824C72.508 51.1967 73.1493 50.8736 73.6448 50.7121C74.1082 50.5611 74.408 50.5609 74.4297 50.5609V64.5609ZM54.5664 64.5609H74.4297V50.5609H54.5664V64.5609ZM63.707 61.4945C62.9401 61.4945 62.5701 61.3755 62.4527 61.3277C62.3739 61.2957 62.3773 61.2889 62.3627 61.2713C62.2682 61.1584 61.6378 60.2473 61.5641 57.3809L47.5687 57.7409C47.6825 62.1635 48.6693 66.7193 51.6217 70.2509C54.7916 74.0425 59.2302 75.4945 63.707 75.4945V61.4945ZM66.9185 60.9576C66.0984 61.279 65.0572 61.4945 63.707 61.4945V75.4945C66.5756 75.4945 69.3781 75.0303 72.0268 73.9924L66.9185 60.9576ZM69.5052 59.5975C69.0565 59.9412 68.2376 60.4298 66.8729 60.9756L72.0724 73.9743C74.2233 73.1139 76.2638 72.0556 78.0183 70.7118L69.5052 59.5975ZM74.0327 57.0277C72.9025 57.3103 72.0419 57.843 71.9749 57.8821C71.6745 58.0573 71.3927 58.2425 71.1671 58.3955C70.7038 58.7099 70.1564 59.1086 69.5617 59.5547L77.9617 70.7547C78.2194 70.5614 78.4385 70.3998 78.6215 70.2674C78.8069 70.1331 78.9399 70.0401 79.0282 69.9802C79.0713 69.9509 79.0945 69.9359 79.1006 69.9319C79.109 69.9266 79.0827 69.9438 79.0291 69.975C78.9847 70.0009 78.8569 70.0745 78.6712 70.1637C78.5754 70.2098 78.4312 70.276 78.2494 70.3474C78.0782 70.4147 77.7937 70.5184 77.4282 70.6097L74.0327 57.0277ZM76.0117 56.8187H75.7305V70.8187H76.0117V56.8187ZM78.963 57.46L78.6115 57.3194L73.412 70.3181L73.7635 70.4587L78.963 57.46ZM83.8241 64.6135C83.7339 63.964 83.5888 63.1751 83.326 62.3693C83.1073 61.6986 82.5792 60.2757 81.313 59.0096L71.4135 68.9091C70.8511 68.3467 70.5208 67.8054 70.3438 67.4718C70.1609 67.1268 70.0623 66.8521 70.0158 66.7096C69.9288 66.4428 69.9302 66.3453 69.9572 66.5395L83.8241 64.6135ZM84.1016 67.932C84.1016 66.7593 83.9886 65.585 83.7954 64.4257L69.9859 66.7273C70.0739 67.2555 70.1016 67.6515 70.1016 67.932H84.1016ZM84.1564 68.521L84.0861 67.4664L70.1171 68.3976L70.1874 69.4523L84.1564 68.521ZM79.3637 76.714C81.3874 75.6101 84.1719 73.1466 84.1719 68.9867H70.1719C70.1719 67.7619 70.5814 66.6113 71.237 65.7173C71.824 64.9168 72.4414 64.5426 72.6598 64.4234L79.3637 76.714ZM63.6021 80.7678C69.3021 80.7388 74.6472 79.4019 79.4764 76.6511L72.547 64.4863C69.9699 65.9542 67.0182 66.7502 63.5307 66.768L63.6021 80.7678ZM45.0564 74.3657C49.9135 79.0037 56.4788 80.7679 63.5664 80.7679V66.7679C58.654 66.7679 56.1021 65.5556 54.7249 64.2405L45.0564 74.3657ZM38.25 56.1898C38.25 63.182 40.1507 69.6459 45.0373 74.3475L54.7439 64.2587C53.443 63.0071 52.25 60.7288 52.25 56.1898H38.25ZM69.543 45.8851H54.6367V59.8851H69.543V45.8851ZM61.9445 50.075C62.0326 50.2167 62.4418 51.055 62.5518 53.2376L76.5341 52.5326C76.3629 49.1371 75.6706 45.6395 73.8367 42.6874L61.9445 50.075ZM62.5469 51.0257C63.1854 51.0257 63.2551 51.1277 63.0106 51.02C62.8743 50.9599 62.673 50.848 62.455 50.6607C62.2341 50.471 62.0532 50.2528 61.9199 50.035L73.8614 42.7275C71.1406 38.2812 66.4764 37.0257 62.5469 37.0257V51.0257ZM61.6025 53.5762C61.8184 51.4003 62.3263 50.8455 62.2753 50.9027C62.2205 50.9641 62.1176 51.0377 62.0334 51.0716C61.9769 51.0944 62.1075 51.0257 62.5469 51.0257V37.0257C58.6108 37.0257 54.7245 38.339 51.8321 41.5785C49.1444 44.5888 48.041 48.4637 47.6709 52.1941L61.6025 53.5762ZM84.4844 32.9828C83.0219 32.9828 80.6597 33.212 78.5167 34.7734C75.9614 36.6351 75.0234 39.3927 75.0234 41.7757H89.0234C89.0234 42.2726 88.9374 43.0408 88.5427 43.9036C88.1302 44.8051 87.4967 45.5524 86.7607 46.0887C86.0666 46.5944 85.4294 46.8073 85.0597 46.8971C84.8696 46.9433 84.7229 46.9638 84.6322 46.9732C84.5411 46.9827 84.4893 46.9828 84.4844 46.9828V32.9828ZM86.9453 32.9828H84.4844V46.9828H86.9453V32.9828ZM96.4537 37.5609C93.9994 34.2204 90.3642 32.9828 86.9453 32.9828V46.9828C87.0502 46.9828 86.7971 47.0004 86.3645 46.8077C85.8871 46.5951 85.4618 46.2453 85.1713 45.85L96.4537 37.5609ZM99.2529 42.7972C98.6542 41.528 98.1431 40.4773 97.7331 39.6848C97.5314 39.2948 97.3191 38.899 97.1097 38.543C97.0464 38.4354 96.5455 37.5389 95.7622 36.7557L85.8628 46.6552C85.6098 46.4023 85.4344 46.1855 85.3458 46.0721C85.2476 45.9464 85.1774 45.8461 85.1388 45.7894C85.0643 45.6802 85.0293 45.6187 85.0426 45.6413C85.0676 45.6838 85.1483 45.827 85.2981 46.1167C85.5913 46.6835 86.0177 47.5547 86.5909 48.7699L99.2529 42.7972ZM103.257 52.2122C101.873 48.5941 100.528 45.4205 99.2184 42.7252L86.6253 48.8419C87.7068 51.0685 88.893 53.8481 90.1808 57.2143L103.257 52.2122ZM106.167 62.0045C105.723 59.1499 104.666 55.8081 103.236 52.1591L90.2014 57.2674C91.4901 60.5559 92.121 62.7923 92.3332 64.1564L106.167 62.0045ZM98.0325 41.9252C96.3053 47.0359 94.9598 51.2596 94.0144 54.5623C93.1262 57.6653 92.4244 60.5052 92.2699 62.5536L106.23 63.6072C106.263 63.1713 106.557 61.6167 107.474 58.415C108.333 55.4129 109.601 51.4218 111.296 46.4076L98.0325 41.9252ZM102.024 35.3737C100.657 36.4923 99.8503 37.8957 99.4403 38.6674C98.9418 39.6056 98.5003 40.658 98.1029 41.727L111.225 46.6058C111.361 46.2401 111.481 45.9428 111.583 45.7061C111.687 45.4663 111.761 45.3156 111.804 45.2356C111.851 45.147 111.832 45.1964 111.736 45.3286C111.686 45.399 111.598 45.5144 111.47 45.6568C111.345 45.7972 111.153 45.9938 110.89 46.2091L102.024 35.3737ZM109.34 32.9828C107.183 32.9828 104.46 33.4408 102.107 35.3069L110.807 46.2759C109.813 47.0639 109.012 46.9828 109.34 46.9828V32.9828ZM111.344 32.9828H109.34V46.9828H111.344V32.9828ZM120.875 41.9164C120.875 39.6116 120.023 36.8373 117.491 34.9035C115.316 33.242 112.881 32.9828 111.344 32.9828V46.9828C111.343 46.9828 111.108 46.985 110.724 46.8872C110.33 46.787 109.683 46.556 108.993 46.0289C108.265 45.473 107.675 44.7259 107.301 43.87C106.946 43.0556 106.875 42.3489 106.875 41.9164H120.875ZM120.145 45.6585C120.429 44.8679 120.875 43.4852 120.875 41.9164H106.875C106.875 41.6308 106.897 41.4046 106.918 41.2547C106.938 41.1022 106.961 40.9917 106.975 40.9312C107.001 40.8188 107.012 40.8054 106.972 40.9164L120.145 45.6585ZM109.035 78.0434L120.18 45.559L106.937 41.0159L95.7929 73.5003L109.035 78.0434ZM107.234 82.5586C107.777 81.4711 108.385 79.8754 109.01 78.1152L95.8179 73.4285C95.1776 75.2308 94.8242 76.0726 94.7117 76.2976L107.234 82.5586ZM88.7383 94.7953C92.7045 94.7953 96.4697 93.7412 99.7739 91.4814C103.02 89.261 105.444 86.138 107.234 82.5586L94.7117 76.2976C93.7123 78.2963 92.7022 79.3569 91.8707 79.9255C91.0967 80.4548 90.1392 80.7953 88.7383 80.7953V94.7953ZM78.3042 91.7958C80.2709 93.7625 82.8152 94.2667 83.9058 94.4554C85.3812 94.7108 87.0421 94.7953 88.7383 94.7953V80.7953C88.0996 80.7953 87.574 80.7784 87.1504 80.7508C86.7203 80.7227 86.4447 80.6867 86.2934 80.6605C86.1219 80.6308 86.2171 80.6321 86.4717 80.7303C86.6086 80.7831 86.8396 80.8823 87.1236 81.0511C87.4063 81.2191 87.7955 81.4881 88.2037 81.8963L78.3042 91.7958ZM75.5711 82.4218C75.6919 84.0048 75.8226 85.3627 75.9717 86.4141C76.0438 86.9224 76.1418 87.5173 76.2847 88.0922C76.3545 88.3734 76.472 88.8024 76.6622 89.2803C76.781 89.5786 77.2354 90.727 78.3042 91.7958L88.2037 81.8963C88.7759 82.4686 89.1186 83.0156 89.293 83.3219C89.4818 83.6535 89.6019 83.9325 89.6698 84.1031C89.8014 84.4338 89.8603 84.6712 89.8716 84.7166C89.8972 84.8198 89.8781 84.7658 89.833 84.448C89.7477 83.847 89.644 82.8436 89.5305 81.3562L75.5711 82.4218ZM77.9526 75.1463C76.4341 76.6648 75.9281 78.4199 75.7343 79.4083C75.5254 80.4737 75.5203 81.4746 75.56 82.2475L89.5416 81.5305C89.5344 81.3894 89.5644 81.6345 89.4727 82.1021C89.3961 82.4929 89.0894 83.8085 87.8521 85.0458L77.9526 75.1463ZM80.6542 73.4561L80.3026 73.5967L85.5021 86.5954L85.8536 86.4548L80.6542 73.4561ZM83.5352 72.9554H83.2539V86.9554H83.5352V72.9554ZM87.9941 74.3277C87.6238 74.1271 86.4421 73.4667 85.2329 73.1644L81.8374 86.7464C81.6365 86.6962 81.4781 86.646 81.3758 86.6115C81.2698 86.5757 81.1875 86.5443 81.1346 86.5234C81.0803 86.5019 81.041 86.4851 81.0195 86.4757C81.0081 86.4707 80.9996 86.4669 80.9943 86.4645C80.989 86.462 80.9861 86.4607 80.986 86.4606C80.9858 86.4606 80.9878 86.4615 80.9921 86.4636C80.9964 86.4656 81.0026 86.4687 81.0109 86.4727C81.0276 86.4809 81.0507 86.4925 81.0808 86.508C81.1419 86.5393 81.2229 86.5819 81.3262 86.6378L87.9941 74.3277ZM88.57 74.5514C88.2597 74.4583 88.0795 74.374 87.9941 74.3277L81.3262 86.6378C82.3658 87.201 83.4512 87.6322 84.5472 87.961L88.57 74.5514ZM88.9492 74.6078C88.714 74.6078 88.6527 74.5765 88.7076 74.5943L84.4096 87.9182C85.9176 88.4046 87.45 88.6078 88.9492 88.6078V74.6078ZM88.0122 74.9208C88.2379 74.7868 88.4587 74.7024 88.6452 74.6551C88.8262 74.6093 88.937 74.6078 88.9492 74.6078V88.6078C91.0163 88.6078 93.1695 88.1405 95.1597 86.9588L88.0122 74.9208ZM87.3125 75.6541C87.3794 75.538 87.4876 75.3848 87.6469 75.2254C87.8074 75.0649 87.9832 74.9349 88.1541 74.8388L95.0178 87.0408C96.9062 85.9786 98.3965 84.461 99.4453 82.6396L87.3125 75.6541ZM88.015 74.1839C87.8133 74.7028 87.5789 75.1916 87.3125 75.6541L99.4453 82.6396C100.07 81.5553 100.609 80.4268 101.063 79.2582L88.015 74.1839ZM88.7978 72.0609C88.5845 72.7543 88.3521 73.3871 88.105 73.9636L100.973 79.4785C101.429 78.4144 101.83 77.3128 102.179 76.1781L88.7978 72.0609ZM89.0936 71.0973C88.9791 71.4407 88.8662 71.8163 88.7576 72.1964L102.219 76.0425C102.298 75.7664 102.349 75.6029 102.375 75.5245L89.0936 71.0973ZM89.2171 75.1879C89.0254 74.8218 88.629 73.8716 88.7772 72.5379L102.692 74.0839C102.934 71.9065 102.326 70.0422 101.619 68.6918L89.2171 75.1879ZM76.3139 46.7006L89.0405 74.8256L101.795 69.054L89.0689 40.929L76.3139 46.7006ZM75.0234 41.7757C75.0234 43.1003 75.3657 44.2192 75.5383 44.7459C75.7571 45.4138 76.0336 46.081 76.3137 46.7L89.0692 40.9296C88.9912 40.7573 88.9347 40.6241 88.8953 40.526C88.855 40.4256 88.8409 40.3823 88.8426 40.3876C88.844 40.3918 88.852 40.4165 88.8639 40.4594C88.8755 40.5015 88.894 40.5724 88.9142 40.6682C88.9341 40.7625 88.9598 40.9002 88.9812 41.0735C89.0023 41.2441 89.0234 41.4836 89.0234 41.7757H75.0234ZM113.133 42.7953V69.725H127.133V42.7953H113.133ZM123.367 32.6312C121.248 32.6312 118.366 33.1492 116.046 35.4184C113.698 37.7154 113.133 40.6221 113.133 42.7953H127.133C127.133 42.8591 127.106 44.1837 125.836 45.4261C125.243 46.0062 124.609 46.3252 124.122 46.4841C123.667 46.6324 123.377 46.6312 123.367 46.6312V32.6312ZM126.25 32.6312H123.367V46.6312H126.25V32.6312ZM128.592 32.8144C127.719 32.6557 126.866 32.6312 126.25 32.6312V46.6312C126.31 46.6312 126.354 46.632 126.385 46.6328C126.416 46.6337 126.428 46.6346 126.423 46.6343C126.419 46.634 126.39 46.6321 126.339 46.6263C126.29 46.6207 126.203 46.6096 126.088 46.5886L128.592 32.8144ZM131.025 33.5452C130.36 33.2714 129.483 32.9622 128.491 32.7968L126.189 46.6063C125.952 46.5667 125.793 46.5205 125.731 46.5012C125.665 46.4806 125.65 46.4724 125.694 46.4907L131.025 33.5452ZM135.773 38.3674C134.957 36.328 133.344 34.4457 130.896 33.4939L125.822 46.542C125.117 46.2676 124.436 45.8294 123.862 45.2338C123.301 44.6514 122.966 44.0474 122.774 43.5669L135.773 38.3674ZM136.555 42.725C136.555 41.4908 136.409 39.8763 135.725 38.2508L122.822 43.6836C122.656 43.2883 122.595 42.9865 122.572 42.8465C122.549 42.7033 122.555 42.6532 122.555 42.725H136.555ZM136.555 44.1664V42.725H122.555V44.1664H136.555ZM127.124 36.8999C126.484 37.4526 125.676 38.1973 124.737 39.0881L134.373 49.2446C135.262 48.401 135.883 47.8332 136.275 47.4954L127.124 36.8999ZM132.651 33.8633C130.921 34.5767 128.642 35.5796 127.106 36.9154L136.292 47.4799C136.058 47.6841 135.906 47.7741 135.935 47.7557C135.948 47.748 136.031 47.6975 136.212 47.6045C136.579 47.4157 137.154 47.15 137.99 46.8054L132.651 33.8633ZM141.297 32.1742C138.309 32.1742 135.406 32.7267 132.651 33.8633L137.99 46.8054C138.984 46.3952 140.066 46.1742 141.297 46.1742V32.1742ZM151.223 34.2945C148.204 32.6477 144.665 32.1742 141.297 32.1742V46.1742C142.384 46.1742 143.183 46.2563 143.744 46.3644C144.31 46.4733 144.523 46.5873 144.519 46.5851L151.223 34.2945ZM157.843 41.9887C156.596 38.7693 154.414 36.0091 151.184 34.2736L144.558 46.6061C144.571 46.6132 144.57 46.6139 144.563 46.6078C144.555 46.6017 144.555 46.5999 144.563 46.6096C144.576 46.6249 144.67 46.7403 144.789 47.0472L157.843 41.9887ZM163.27 32.1742C156.381 32.1742 150.361 34.7436 145.945 40.0297L156.688 49.0062C158.225 47.1673 160.174 46.1742 163.27 46.1742V32.1742ZM170.882 33.3755C168.474 32.4923 165.866 32.1742 163.27 32.1742V46.1742C164.798 46.1742 165.659 46.3717 166.063 46.5198L170.882 33.3755ZM176.413 36.5529C174.719 34.9722 172.656 33.9955 170.785 33.3406L166.16 46.5546C166.588 46.7043 166.844 46.8258 166.971 46.8953C167.103 46.967 167.031 46.9469 166.86 46.7877L176.413 36.5529ZM179.945 42.5427C179.351 40.4854 178.291 38.3061 176.413 36.5529L166.86 46.7877C166.388 46.347 166.383 46.0426 166.493 46.4229L179.945 42.5427ZM180.839 47.0952C180.746 45.5092 180.364 43.9008 179.909 42.4242L166.528 46.5414C166.667 46.9914 166.754 47.3359 166.807 47.5867C166.861 47.8446 166.865 47.9446 166.864 47.9173L180.839 47.0952ZM180.922 50.8461C180.922 49.368 180.898 48.0955 180.839 47.0952L166.864 47.9173C166.899 48.5106 166.922 49.4647 166.922 50.8461H180.922ZM180.922 69.725V50.8461H166.922V69.725H180.922ZM178.596 76.632C180.49 74.3592 180.922 71.7117 180.922 69.725H166.922C166.922 69.8476 166.885 68.8173 167.841 67.6695L178.596 76.632ZM170.582 79.9593C172.294 79.9593 176.048 79.7168 178.615 76.6089L167.822 67.6926C168.707 66.6209 169.709 66.2072 170.173 66.0648C170.616 65.929 170.814 65.9593 170.582 65.9593V79.9593ZM167.418 79.9593H170.582V65.9593H167.418V79.9593ZM165.373 79.8187C166.069 79.918 166.754 79.9593 167.418 79.9593V65.9593C167.376 65.9593 167.35 65.958 167.339 65.9573C167.327 65.9565 167.333 65.9565 167.353 65.9594L165.373 79.8187ZM162.747 79.0748C163.678 79.4887 164.572 79.6958 165.299 79.8076L167.428 65.9704C167.545 65.9885 167.923 66.055 168.433 66.2814L162.747 79.0748ZM160.581 77.7392C161.328 78.3614 162.092 78.7836 162.747 79.0748L168.433 66.2814C168.666 66.3851 169.078 66.5963 169.544 66.9841L160.581 77.7392ZM159.326 76.4602C159.573 76.7488 159.835 77.0338 160.113 77.3114L170.012 67.4119C170.009 67.4083 169.989 67.3887 169.955 67.3491L159.326 76.4602ZM158.357 75.0842C158.556 75.4167 158.765 75.7215 158.944 75.9733L170.337 67.836C170.314 67.8039 170.305 67.7904 170.307 67.7932C170.308 67.7951 170.313 67.8032 170.322 67.8169C170.331 67.8306 170.344 67.8523 170.362 67.8813L158.357 75.0842ZM157.253 71.652C157.316 72.2734 157.502 73.659 158.357 75.0842L170.362 67.8813C170.753 68.5337 170.942 69.1105 171.035 69.4594C171.132 69.8222 171.169 70.1049 171.184 70.2589L157.253 71.652ZM157.508 72.6768C157.44 72.4737 157.395 72.3049 157.366 72.1918C157.337 72.0742 157.316 71.9763 157.302 71.9064C157.275 71.7708 157.26 71.6712 157.254 71.629C157.242 71.5464 157.241 71.5213 157.247 71.5892L171.19 70.3217C171.188 70.2943 171.121 69.2462 170.789 68.2497L157.508 72.6768ZM157.113 70.0062C157.113 70.219 157.118 70.5109 157.143 70.8331C157.156 71.0108 157.21 71.7842 157.508 72.6768L170.789 68.2497C170.951 68.734 171.019 69.1248 171.047 69.3034C171.08 69.511 171.095 69.6721 171.101 69.7594C171.115 69.9293 171.113 70.0278 171.113 70.0062H157.113ZM157.113 69.5843V70.0062H171.113V69.5843H157.113ZM157.113 50.0023V69.5843H171.113V50.0023H157.113ZM157.078 48.6246C157.089 48.7373 157.113 49.148 157.113 50.0023H171.113C171.113 49.0285 171.091 48.0564 171.008 47.2316L157.078 48.6246ZM157.139 49.0032C157.168 49.0703 157.163 49.0714 157.147 49.012C157.131 48.9531 157.095 48.8091 157.075 48.5918L171.011 47.2644C170.878 45.8677 170.481 44.6074 170.033 43.5483L157.139 49.0032ZM159.352 51.2604C158.904 51.0536 158.422 50.7329 157.989 50.2762C157.557 49.8212 157.275 49.3384 157.103 48.9168L170.069 43.6347C169.155 41.3916 167.471 39.5886 165.219 38.5489L159.352 51.2604ZM159.859 51.4476C160.021 51.4476 160.031 51.4607 159.926 51.4409C159.82 51.421 159.535 51.356 159.155 51.1656L165.416 38.6437C163.481 37.6764 161.475 37.4476 159.859 37.4476V51.4476ZM159.782 51.3623C159.779 51.3651 159.758 51.384 159.72 51.4079C159.681 51.432 159.643 51.4499 159.614 51.4609C159.585 51.4716 159.582 51.4692 159.616 51.4636C159.65 51.4577 159.728 51.4476 159.859 51.4476V37.4476C156.315 37.4476 152.899 38.6025 150.164 41.1892L159.782 51.3623ZM158.971 52.5466C159.071 52.2323 159.272 51.8441 159.782 51.3623L150.164 41.1892C148.095 43.1449 146.515 45.5223 145.63 48.3018L158.971 52.5466ZM158.949 54.1507C158.949 53.4709 158.974 52.9729 159.006 52.6285C159.041 52.2586 159.073 52.2021 159.031 52.3472L145.57 48.5011C145.059 50.2895 144.949 52.3294 144.949 54.1507H158.949ZM158.949 69.057V54.1507H144.949V69.057H158.949ZM158.949 69.4789V69.057H144.949V69.4789H158.949ZM158.564 72.1258C158.648 71.7907 158.949 70.6447 158.949 69.4789H144.949C144.949 69.2969 144.957 69.1474 144.965 69.0416C144.973 68.9335 144.982 68.8456 144.99 68.7831C145.004 68.6625 145.019 68.5842 145.022 68.5646C145.029 68.5296 145.021 68.5742 144.982 68.7303L158.564 72.1258ZM157.169 75.3735C157.842 74.328 158.272 73.2402 158.543 72.2095L145.004 68.6466C145.041 68.5066 145.143 68.1922 145.393 67.8029L157.169 75.3735ZM154.466 78.2122C155.41 77.5301 156.527 76.5178 157.359 75.0612L145.204 68.1153C145.661 67.3149 146.168 66.9355 146.269 66.8627L154.466 78.2122ZM148.785 79.9593C150.456 79.9593 152.422 79.5803 154.25 78.3618L146.484 66.7131C147.468 66.0571 148.38 65.9593 148.785 65.9593V79.9593ZM145.48 79.9593H148.785V65.9593H145.48V79.9593ZM137.491 76.744C140.071 79.7112 143.734 79.9593 145.48 79.9593V65.9593C145.232 65.9593 145.398 65.9282 145.805 66.05C146.229 66.1766 147.183 66.554 148.056 67.5575L137.491 76.744ZM135.07 69.725C135.07 71.7117 135.502 74.3592 137.396 76.632L148.151 67.6695C149.108 68.8173 149.07 69.8476 149.07 69.725H135.07ZM135.07 49.6859V69.725H149.07V49.6859H135.07ZM135.552 49.8248C135.312 49.4982 135.176 49.2179 135.104 49.0439C135.067 48.9552 135.044 48.8868 135.031 48.8434C135.025 48.8214 135.02 48.8047 135.017 48.7938C135.014 48.7829 135.013 48.7772 135.013 48.7772C135.013 48.7771 135.014 48.782 135.016 48.7924C135.018 48.8027 135.021 48.8179 135.024 48.8383C135.03 48.8794 135.037 48.9383 135.044 49.0168C135.059 49.1759 135.07 49.3962 135.07 49.6859H149.07C149.07 47.4637 148.798 44.2059 146.831 41.5314L135.552 49.8248ZM137.922 51.4476C138.192 51.4476 137.971 51.489 137.487 51.3066C136.925 51.0953 136.08 50.6011 135.418 49.6368L146.965 41.7194C144.442 38.0403 140.377 37.4476 137.922 37.4476V51.4476ZM137.353 51.7869C137.601 51.535 137.739 51.475 137.753 51.469C137.765 51.4636 137.774 51.4606 137.788 51.4578C137.803 51.4548 137.844 51.4476 137.922 51.4476V37.4476C133.785 37.4476 130.179 39.1208 127.381 41.9599L137.353 51.7869ZM136.977 53.5882C136.977 52.7816 137.089 52.3193 137.169 52.0952C137.238 51.9005 137.294 51.8458 137.317 51.8231L127.417 41.9237C124.171 45.1698 122.977 49.3919 122.977 53.5882H136.977ZM136.977 69.725V53.5882H122.977V69.725H136.977ZM126.742 79.9593C128.899 79.9593 131.803 79.4153 134.118 77.1005C136.433 74.7857 136.977 71.8821 136.977 69.725H122.977C122.977 69.7241 122.982 68.4377 124.218 67.201C125.455 65.9643 126.741 65.9593 126.742 65.9593V79.9593ZM123.508 79.9593H126.742V65.9593H123.508V79.9593ZM113.133 69.725C113.133 71.9598 113.731 74.9028 116.133 77.2047C118.48 79.4533 121.377 79.9593 123.508 79.9593V65.9593C123.389 65.9593 124.599 65.9263 125.82 67.0968C127.097 68.3206 127.133 69.6464 127.133 69.725H113.133ZM176.568 53.8322C174.417 56.5326 173.391 59.724 173.391 63.0804H187.391C187.391 62.8367 187.425 62.7245 187.435 62.6947C187.443 62.67 187.458 62.6306 187.518 62.5553L176.568 53.8322ZM182.92 48.6983C180.457 49.9299 178.345 51.6469 176.613 53.7761L187.473 62.6113C187.991 61.9749 188.551 61.5356 189.181 61.2203L182.92 48.6983ZM190.175 46.279C187.6 46.8166 185.166 47.5921 182.958 48.6797L189.144 61.239C190.076 60.7797 191.345 60.3365 193.036 59.9834L190.175 46.279ZM196.491 45.2459C194.562 45.4213 192.417 45.7858 190.103 46.2944L193.108 59.968C195.06 59.5392 196.595 59.2942 197.759 59.1884L196.491 45.2459ZM201.871 45.0062C200.071 45.0062 198.281 45.0856 196.501 45.2451L197.749 59.1893C199.11 59.0674 200.484 59.0062 201.871 59.0062V45.0062ZM194.871 50.4945V52.0062H208.871V50.4945H194.871ZM194.767 49.0679C194.68 48.916 194.712 48.9092 194.764 49.1556C194.816 49.4039 194.871 49.8345 194.871 50.4945H208.871C208.871 47.7796 208.443 44.7965 206.937 42.1477L194.767 49.0679ZM196.738 50.8148C197.149 50.8148 196.98 50.8821 196.516 50.6799C196.265 50.5702 195.94 50.3861 195.605 50.0933C195.265 49.7961 194.981 49.4442 194.767 49.0679L206.937 42.1477C204.457 37.7875 199.946 36.8148 196.738 36.8148V50.8148ZM193.819 51.229C194.554 50.984 195.505 50.8148 196.738 50.8148V36.8148C194.222 36.8148 191.75 37.1613 189.392 37.9475L193.819 51.229ZM192.709 51.6258C192.549 51.7608 192.513 51.7529 192.715 51.6531C192.908 51.5575 193.242 51.4158 193.757 51.2492L189.453 37.9273C187.543 38.5445 185.428 39.4522 183.681 40.9257L192.709 51.6258ZM190.564 53.4075C191.241 52.8516 191.951 52.2621 192.694 51.6391L183.697 40.9124C182.987 41.5082 182.314 42.067 181.678 42.5893L190.564 53.4075ZM184.715 55.7718C186.631 55.7718 188.075 55.0383 188.668 54.712C189.412 54.3032 190.05 53.8263 190.543 53.425L181.699 42.5718C181.559 42.6862 181.647 42.596 181.921 42.445C182.067 42.3648 182.354 42.2181 182.761 42.0827C183.152 41.9522 183.833 41.7718 184.715 41.7718V55.7718ZM182.736 55.4925L183.017 55.5628L186.413 41.9808L186.131 41.9105L182.736 55.4925ZM179.952 54.0906L180.234 54.3015L188.634 43.1015L188.352 42.8906L179.952 54.0906ZM176.82 47.601C176.892 48.1771 176.985 48.7928 177.114 49.3794C177.194 49.7435 177.449 50.9233 178.15 52.0921L190.155 44.8891C190.339 45.197 190.462 45.4601 190.537 45.6358C190.615 45.8174 190.667 45.9656 190.699 46.0638C190.761 46.2522 190.786 46.3691 190.787 46.3713C190.787 46.372 190.757 46.2259 190.712 45.8645L176.82 47.601ZM176.532 44.5898C176.59 45.5399 176.688 46.5464 176.82 47.601L190.712 45.8645C190.609 45.0441 190.543 44.3397 190.507 43.7429L176.532 44.5898ZM176.44 43.5337L176.545 44.7642L190.494 43.5686L190.388 42.3381L176.44 43.5337ZM176.585 41.0357C176.422 41.8524 176.414 42.5907 176.414 42.9359H190.414C190.414 42.9268 190.415 42.9859 190.407 43.0939C190.401 43.1824 190.382 43.4364 190.313 43.7814L176.585 41.0357ZM178.781 37.0721C178.313 37.5398 177.493 38.4513 176.95 39.8088L189.949 45.0083C189.709 45.6075 189.425 46.0532 189.216 46.3412C189.003 46.6343 188.808 46.8438 188.68 46.9716L178.781 37.0721ZM180.164 35.8811C179.191 36.5295 178.523 37.3412 178.416 37.4663L189.045 46.5774C189.041 46.5821 189.025 46.6006 188.999 46.6297C188.973 46.6577 188.928 46.7065 188.865 46.7694C188.804 46.8298 188.705 46.9261 188.572 47.0414C188.448 47.149 188.229 47.3305 187.93 47.5298L180.164 35.8811ZM181.887 34.9902C181.804 35.0259 180.895 35.3936 180.164 35.8811L187.93 47.5298C187.764 47.6402 187.629 47.7196 187.552 47.7634C187.469 47.8108 187.403 47.8461 187.362 47.8676C187.282 47.9091 187.232 47.9327 187.23 47.9337C187.225 47.9361 187.273 47.9134 187.402 47.8582L181.887 34.9902ZM182.323 34.8116C182.375 34.7855 182.381 34.7845 182.319 34.8113C182.263 34.8359 182.174 34.8733 182.045 34.9248L187.244 47.9235C187.657 47.7582 188.137 47.5569 188.584 47.3336L182.323 34.8116ZM196.738 31.7523C191.752 31.7523 187.003 32.7035 182.586 34.6867L188.32 47.4585C190.794 46.348 193.569 45.7523 196.738 45.7523V31.7523ZM213.026 36.7107C208.804 32.7996 202.689 31.7523 196.738 31.7523V45.7523C201.709 45.7523 203.282 46.7675 203.513 46.9814L213.026 36.7107ZM218.645 50.7757C218.645 45.4965 217.071 40.4178 213 36.686L203.539 47.0061C203.968 47.3994 204.645 48.2738 204.645 50.7757H218.645ZM218.645 69.725V50.7757H204.645V69.725H218.645ZM208.41 79.9593C210.567 79.9593 213.471 79.4153 215.786 77.1005C218.101 74.7857 218.645 71.8821 218.645 69.725H204.645C204.645 69.7241 204.649 68.4377 205.886 67.201C207.123 65.9643 208.409 65.9593 208.41 65.9593V79.9593ZM204.965 79.9593H208.41V65.9593H204.965V79.9593ZM197.302 76.5969C199.607 79.3621 202.779 79.9593 204.965 79.9593V65.9593C205.041 65.9593 206.69 65.9941 208.057 67.6343L197.302 76.5969ZM195.012 70.0765C195.012 72.2964 195.686 74.4824 197.107 76.3512L208.253 67.88C208.488 68.1894 208.693 68.5648 208.831 68.9872C208.968 69.4058 209.012 69.7832 209.012 70.0765H195.012ZM190.941 80.7678C196.614 80.7365 201.828 79.0547 206.284 75.6218L197.74 64.5312C195.868 65.9734 193.675 66.7525 190.864 66.768L190.941 80.7678ZM177.935 75.0327C181.312 78.9509 185.893 80.7679 190.902 80.7679V66.7679C189.49 66.7679 188.962 66.3818 188.541 65.8938L177.935 75.0327ZM173.391 63.0804C173.391 67.5878 175.033 71.6284 177.912 75.0049L188.565 65.9216C187.647 64.845 187.391 63.9637 187.391 63.0804H173.391ZM196.652 62.428C196.643 62.4176 196.707 62.4962 196.767 62.6608C196.829 62.8297 196.848 62.9842 196.848 63.0804H182.848C182.848 66.1528 183.911 68.9486 185.786 71.2563L196.652 62.428ZM194.805 61.4945C194.954 61.4945 195.303 61.527 195.73 61.7239C196.164 61.9235 196.454 62.1897 196.606 62.3721L185.832 71.3122C188.123 74.0738 191.321 75.4945 194.805 75.4945V61.4945ZM195.627 61.1509C195.116 61.4967 194.88 61.4945 194.805 61.4945V75.4945C198.01 75.4945 200.939 74.4611 203.475 72.7444L195.627 61.1509ZM194.871 61.8851C194.871 62.3063 194.8 62.2705 194.928 61.992C194.993 61.8488 195.096 61.6778 195.241 61.5069C195.387 61.3361 195.539 61.2092 195.668 61.1233L203.434 72.772C207.439 70.1016 208.871 65.8797 208.871 61.8851H194.871ZM194.871 56.2601V61.8851H208.871V56.2601H194.871ZM199.092 63.6375C200.004 63.4987 201.146 63.3609 202.535 63.2286L201.207 49.2917C199.643 49.4406 198.23 49.6075 196.986 49.7968L199.092 63.6375ZM196.426 64.3283C197.665 63.9288 198.542 63.7231 199.115 63.634L196.963 49.8003C195.427 50.0394 193.796 50.4664 192.128 51.0044L196.426 64.3283ZM196.372 64.1953C196.314 64.2658 196.256 64.3234 196.205 64.368C196.154 64.4122 196.117 64.4376 196.1 64.4478C196.069 64.4674 196.136 64.4192 196.359 64.3497L192.196 50.9831C189.77 51.7387 187.394 53.0784 185.573 55.2859L196.372 64.1953ZM196.848 63.0804C196.848 63.1221 196.84 63.2832 196.763 63.5132C196.683 63.7493 196.564 63.9575 196.439 64.1135L185.507 55.3677C183.688 57.641 182.848 60.3274 182.848 63.0804H196.848ZM212.283 63.0453C211.989 64.6456 211.764 65.8914 211.612 66.7698C211.536 67.205 211.474 67.5784 211.428 67.8709C211.406 68.0136 211.382 68.1736 211.361 68.3289C211.351 68.4054 211.338 68.5152 211.326 68.6403C211.319 68.7124 211.289 69.0074 211.289 69.3734H225.289C225.289 69.7159 225.262 69.9758 225.259 70.001C225.252 70.0793 225.245 70.1304 225.244 70.1366C225.242 70.1513 225.246 70.1239 225.26 70.0322C225.288 69.8559 225.335 69.573 225.406 69.1645C225.546 68.3554 225.761 67.1637 226.053 65.5765L212.283 63.0453ZM220.188 55.6586C216.972 55.6586 214.718 57.5374 213.571 59.3959C212.63 60.9217 212.343 62.4942 212.224 63.4245L226.112 65.1973C226.112 65.1973 226.108 65.2265 226.097 65.2804C226.087 65.3336 226.067 65.4235 226.032 65.5425C225.97 65.7556 225.82 66.2054 225.486 66.7474C225.143 67.3022 224.535 68.0684 223.538 68.6934C222.488 69.3511 221.313 69.6586 220.188 69.6586V55.6586ZM226.825 59.0447C226.308 58.5278 225.724 57.9741 225.13 57.5042C224.842 57.2761 224.395 56.9418 223.84 56.6314C223.511 56.4481 222.117 55.6586 220.188 55.6586V69.6586C219.164 69.6586 218.38 69.4278 217.967 69.2826C217.523 69.1261 217.194 68.9554 217.01 68.8527C216.654 68.6537 216.447 68.4863 216.44 68.4809C216.409 68.4563 216.552 68.5706 216.925 68.9442L226.825 59.0447ZM229.076 60.5274C227.682 59.7828 227.04 59.2601 226.825 59.0447L216.925 68.9442C218.491 70.5101 220.451 71.7921 222.479 72.8757L229.076 60.5274ZM231.754 61.0726C230.472 61.0726 229.63 60.8191 229.041 60.5089L222.514 72.8941C225.394 74.4121 228.536 75.0726 231.754 75.0726V61.0726ZM230.379 64.2406C230.379 64.0213 230.422 63.4905 230.74 62.8406C231.073 62.1587 231.562 61.6491 232.032 61.3295C232.455 61.0413 232.735 60.991 232.665 61.0069C232.595 61.0226 232.316 61.0726 231.754 61.0726V75.0726C234.205 75.0726 237.279 74.6948 239.914 72.8997C243.03 70.7766 244.379 67.493 244.379 64.2406H230.379ZM232.375 67.5061C231.985 67.2989 231.384 66.8524 230.92 66.0678C230.463 65.2936 230.379 64.5939 230.379 64.2406H244.379C244.379 62.5513 244.007 60.6973 242.976 58.9505C241.939 57.1932 240.476 55.9557 238.937 55.1392L232.375 67.5061ZM229.502 66.7604C230.399 66.9021 231.077 67.0553 231.569 67.1989C231.812 67.2696 231.99 67.3323 232.113 67.3811C232.237 67.4304 232.286 67.4579 232.278 67.4535L239.034 55.1918C236.842 53.9834 234.223 53.3324 231.685 52.9317L229.502 66.7604ZM223.706 65.416C225.174 65.9663 227.292 66.3848 229.419 66.7468L231.768 52.9453C230.733 52.7691 229.937 52.6153 229.352 52.4854C228.706 52.3418 228.531 52.2732 228.622 52.3074L223.706 65.416ZM216.046 60.3661C218.233 62.5525 220.761 64.2753 223.635 65.3888L228.693 52.3346C227.817 51.9949 226.9 51.4209 225.946 50.4666L216.046 60.3661ZM211.676 49.1234C211.676 53.2105 212.943 57.1697 215.973 60.2917L226.019 50.541C225.956 50.4756 225.676 50.2394 225.676 49.1234H211.676ZM230.607 31.7542C225.761 31.8669 220.879 32.9676 217.142 36.172C213.18 39.5703 211.676 44.3047 211.676 49.1234H225.676C225.676 47.2156 226.188 46.8581 226.256 46.7994C226.551 46.5468 227.715 45.8252 230.932 45.7504L230.607 31.7542ZM232.633 31.7523H230.77V45.7523H232.633V31.7523ZM244.087 34.0725C240.471 32.5835 236.672 31.8132 232.74 31.7531L232.526 45.7515C234.734 45.7852 236.795 46.2101 238.757 47.018L244.087 34.0725ZM247.778 36.3338C246.929 35.4854 246.027 34.9819 245.572 34.743C245.02 34.4533 244.456 34.2138 243.949 34.0173L238.895 47.0733C239.114 47.158 239.148 47.1822 239.065 47.1386C239.019 47.1144 238.891 47.0457 238.716 46.9277C238.554 46.8188 238.238 46.5931 237.878 46.2333L247.778 36.3338ZM250.145 42.3031C250.145 41.215 249.983 38.2781 247.479 36.0517L238.178 46.5154C237.111 45.5671 236.608 44.4877 236.38 43.7539C236.162 43.0499 236.145 42.5119 236.145 42.3031H250.145ZM249.341 48.0177C249.578 46.6347 249.761 45.5296 249.886 44.7203C249.948 44.3193 250.002 43.956 250.042 43.6521C250.058 43.5273 250.145 42.9125 250.145 42.3031H236.145C236.145 42.1033 236.154 41.9544 236.158 41.8999C236.162 41.8319 236.167 41.7863 236.168 41.7731C236.17 41.7485 236.169 41.7638 236.16 41.8374C236.141 41.9817 236.106 42.2205 236.051 42.5754C235.942 43.2778 235.774 44.2996 235.541 45.6588L249.341 48.0177ZM241.151 54.8809C243.916 55.0435 246.128 53.7247 247.459 52.1281C248.561 50.8052 249.012 49.389 249.219 48.5874L235.663 45.0891C235.683 45.014 235.894 44.1369 236.704 43.1655C237.154 42.6248 237.849 41.9868 238.84 41.5162C239.864 41.0305 240.95 40.8448 241.974 40.905L241.151 54.8809ZM235.522 52.4255C236.065 52.8571 236.729 53.3442 237.463 53.7567C237.96 54.0365 239.509 54.8929 241.562 54.8929V40.8929C242.547 40.8929 243.277 41.1172 243.616 41.2375C243.989 41.37 244.235 41.5035 244.326 41.5546C244.497 41.6507 244.481 41.6631 244.228 41.4619L235.522 52.4255ZM233.709 51.4597C234.271 51.697 234.69 51.9041 234.99 52.0725C235.138 52.1554 235.246 52.2228 235.32 52.2727C235.395 52.3228 235.427 52.3488 235.425 52.3472L244.325 41.5402C242.794 40.2796 240.959 39.3235 239.151 38.5606L233.709 51.4597ZM231.121 51.0257C232.465 51.0257 233.216 51.2421 233.587 51.4068L239.273 38.6134C236.69 37.4656 233.902 37.0257 231.121 37.0257V51.0257ZM232.777 47.4711C232.777 47.81 232.707 48.4477 232.329 49.1785C231.939 49.9331 231.39 50.4582 230.906 50.7703C230.47 51.0519 230.184 51.0998 230.254 51.0848C230.319 51.0709 230.585 51.0257 231.121 51.0257V37.0257C228.812 37.0257 225.874 37.3573 223.32 39.0039C220.239 40.9906 218.777 44.1816 218.777 47.4711H232.777ZM230.593 43.8027C230.737 43.8658 231.354 44.1695 231.93 44.9581C232.558 45.8171 232.777 46.7593 232.777 47.4711H218.777C218.777 49.425 219.331 51.4453 220.627 53.2184C221.871 54.9211 223.49 55.9747 224.97 56.6238L230.593 43.8027ZM234.508 44.8073C232.475 44.4301 231.187 44.0468 230.458 43.7451L225.105 56.6814C227.094 57.5047 229.439 58.1058 231.953 58.5723L234.508 44.8073ZM241.657 47.0473C239.543 45.8727 236.916 45.2246 234.427 44.7928L232.034 58.5868C233.001 58.7546 233.723 58.9229 234.237 59.0741C234.779 59.2331 234.935 59.3279 234.858 59.2855L241.657 47.0473ZM245.367 49.4929C244.103 48.4148 242.709 47.5113 241.191 46.8107L235.324 59.5221C235.634 59.6652 235.952 59.8633 236.282 60.1446L245.367 49.4929ZM249.398 54.5801C248.356 52.756 247.029 50.8688 245.29 49.4286L236.358 60.2089C236.277 60.142 236.339 60.1773 236.522 60.4138C236.7 60.6441 236.943 61.0021 237.243 61.5261L249.398 54.5801ZM251.586 62.8695C251.586 59.9364 250.867 57.1091 249.374 54.5381L237.267 61.568C237.461 61.9033 237.586 62.287 237.586 62.8695H251.586ZM245.108 77.0849C250.025 73.6581 251.586 68.1463 251.586 62.8695H237.586C237.586 64.2498 237.383 65.0062 237.241 65.3513C237.175 65.5115 237.126 65.5755 237.118 65.5853C237.113 65.5918 237.114 65.5916 237.103 65.5994L245.108 77.0849ZM231.613 80.7679C236.485 80.7679 241.247 79.8036 245.135 77.0658L237.076 65.6185C236.37 66.1151 234.804 66.7679 231.613 66.7679V80.7679ZM214.943 76.1645C219.843 79.3346 225.504 80.7679 231.613 80.7679V66.7679C227.738 66.7679 224.821 65.881 222.549 64.4105L214.943 76.1645ZM212.999 74.3088L213.28 74.6603L224.212 65.9146L223.931 65.563L212.999 74.3088ZM211.289 69.3734C211.289 70.5475 211.59 71.4746 211.652 71.6723C211.77 72.0497 211.902 72.3845 212.003 72.6282L224.926 67.2436C224.911 67.206 224.955 67.3064 225.014 67.4964C225.045 67.5939 225.101 67.7821 225.153 68.0336C225.198 68.2482 225.289 68.7353 225.289 69.3734H211.289ZM251.125 32.9828C249.288 32.9828 246.609 33.3325 244.306 35.2262C241.741 37.3356 240.961 40.2375 240.961 42.5843H254.961C254.961 43.1968 254.708 44.7979 253.198 46.0401C251.949 47.0667 250.853 46.9828 251.125 46.9828V32.9828ZM252.848 32.9828H251.125V46.9828H252.848V32.9828ZM245.848 33.7953V39.9828H259.848V33.7953H245.848ZM256.328 23.5609C254.211 23.5609 251.32 24.0422 248.953 26.2418C246.489 28.5313 245.848 31.5011 245.848 33.7953H259.848C259.848 33.9332 259.787 35.2858 258.483 36.4972C257.276 37.6187 256.125 37.5609 256.328 37.5609V23.5609ZM258.895 23.5609H256.328V37.5609H258.895V23.5609ZM269.129 33.7953C269.129 31.6381 268.585 28.7346 266.27 26.4197C263.955 24.1049 261.052 23.5609 258.895 23.5609V37.5609C258.894 37.5609 257.607 37.5559 256.371 36.3192C255.134 35.0825 255.129 33.7962 255.129 33.7953H269.129ZM269.129 39.9828V33.7953H255.129V39.9828H269.129ZM268.703 32.9828H262.129V46.9828H268.703V32.9828ZM275.057 35.0414C272.965 33.4247 270.608 32.9828 268.703 32.9828V46.9828C268.532 46.9828 267.558 46.9393 266.497 46.1194L275.057 35.0414ZM278.354 39.2808C277.473 36.815 275.604 35.411 274.775 34.8341L266.78 46.3268C266.779 46.3264 266.581 46.192 266.31 45.9016C266.055 45.6276 265.53 44.9976 265.17 43.9895L278.354 39.2808ZM278.938 42.6547C278.938 41.5081 278.743 40.3714 278.354 39.2808L265.17 43.9895C265.014 43.5551 264.938 43.0981 264.938 42.6547H278.938ZM278.403 45.8878C278.727 44.9136 278.938 43.8255 278.938 42.6547H264.938C264.938 42.14 265.031 41.7317 265.121 41.4606L278.403 45.8878ZM274.93 50.39C275.767 49.7807 277.51 48.391 278.354 46.0285L265.17 41.3198C265.506 40.3769 265.986 39.776 266.233 39.5012C266.493 39.2134 266.685 39.0753 266.695 39.0677L274.93 50.39ZM268.844 52.2562C270.613 52.2562 272.845 51.8794 274.881 50.425L266.744 39.0327C267.796 38.2814 268.715 38.2562 268.844 38.2562V52.2562ZM262.129 52.2562H268.844V38.2562H262.129V52.2562ZM269.129 59.6351V45.2562H255.129V59.6351H269.129ZM269.082 60.9954C269.108 60.5406 269.129 60.0687 269.129 59.6351H255.129C255.129 59.6703 255.126 59.8312 255.106 60.1733L269.082 60.9954ZM269.059 61.4984C269.059 61.4694 269.061 61.3258 269.08 61.021L255.107 60.1477C255.08 60.5928 255.059 61.0587 255.059 61.4984H269.059ZM269.023 63.6062C269.105 63.7701 269.155 63.8986 269.183 63.9768C269.212 64.0559 269.224 64.1023 269.226 64.1078C269.227 64.1119 269.202 64.017 269.172 63.7927C269.11 63.3317 269.059 62.5896 269.059 61.4984H255.059C255.059 62.9619 255.124 64.3702 255.297 65.6552C255.457 66.8469 255.765 68.3953 256.501 69.8672L269.023 63.6062ZM265.082 61.1429C265.618 61.1429 266.461 61.2728 267.339 61.805C268.216 62.3362 268.716 63.0189 268.96 63.4828L256.564 69.9905C257.3 71.3919 258.433 72.7778 260.083 73.7778C261.734 74.7787 263.491 75.1429 265.082 75.1429V61.1429ZM265.751 60.8238C265.094 61.2053 264.903 61.1429 265.082 61.1429V75.1429C267.933 75.1429 270.531 74.2369 272.781 72.9308L265.751 60.8238ZM271.586 58.6117C270.534 58.6117 269.731 58.858 269.579 58.9028C269.281 58.991 269.045 59.0817 268.919 59.1321C268.659 59.2362 268.443 59.3391 268.326 59.3961C268.071 59.5202 267.808 59.6602 267.584 59.7828C267.113 60.0393 266.492 60.3932 265.751 60.8238L272.781 72.9308C273.492 72.5177 273.984 72.2387 274.288 72.0734C274.449 71.985 274.489 71.9669 274.45 71.9854C274.442 71.9897 274.313 72.0531 274.119 72.1308C274.025 72.1681 273.818 72.2489 273.542 72.3304C273.4 72.3721 273.18 72.4322 272.905 72.4854C272.659 72.5331 272.187 72.6117 271.586 72.6117V58.6117ZM279.01 64.1486C278.748 63.4586 278.26 62.3479 277.354 61.296C276.39 60.1779 274.458 58.6117 271.586 58.6117V72.6117C269.042 72.6117 267.421 71.2153 266.75 70.4371C266.136 69.7251 265.924 69.1241 265.92 69.1138L279.01 64.1486ZM279.952 67.2169C279.714 66.0648 279.36 64.9488 278.899 63.8738L266.031 69.3886C266.133 69.6261 266.2 69.846 266.243 70.0534L279.952 67.2169ZM280.163 68.5585L280.022 67.6093L266.173 69.661L266.314 70.6102L280.163 68.5585ZM270.826 79.043C272.522 78.5131 274.299 77.8409 275.79 76.921C276.772 76.3147 280.238 74.0377 280.238 69.5843H266.238C266.238 67.7733 267.009 66.4904 267.532 65.8488C267.79 65.532 268.023 65.3225 268.166 65.2056C268.311 65.0862 268.412 65.023 268.437 65.0074C268.475 64.984 268.366 65.0538 268.029 65.1933C267.706 65.327 267.255 65.4915 266.65 65.6803L270.826 79.043ZM260.125 80.7679C263.67 80.7679 267.247 80.1615 270.826 79.043L266.65 65.6803C264.229 66.4369 262.064 66.7679 260.125 66.7679V80.7679ZM246.595 70.5596C247.42 73.3348 248.942 76.0521 251.537 78.0325C254.152 80.0273 257.193 80.7679 260.125 80.7679V66.7679C259.818 66.7679 259.706 66.7299 259.73 66.7372C259.743 66.7411 259.783 66.7544 259.841 66.7838C259.9 66.8135 259.965 66.853 260.029 66.9018C260.093 66.9504 260.143 66.9982 260.178 67.0372C260.213 67.0757 260.225 67.0964 260.22 67.0882C260.208 67.0693 260.119 66.9218 260.014 66.57L246.595 70.5596ZM245.637 62.0817C245.662 65.163 245.883 68.1454 246.591 70.5459L260.018 66.5837C259.883 66.1248 259.659 64.7478 259.636 61.9697L245.637 62.0817ZM245.637 45.2562V62.0257H259.637V45.2562H245.637ZM251.125 52.2562H252.637V38.2562H251.125V52.2562ZM240.961 42.5843C240.961 44.8933 241.7 47.7956 244.236 49.9365C246.544 51.8859 249.253 52.2562 251.125 52.2562V38.2562C250.888 38.2562 252.014 38.1812 253.268 39.24C254.749 40.4903 254.961 42.0566 254.961 42.5843H240.961ZM187.978 26.996C189.272 28.7685 188.915 31.2469 187.149 32.5777L178.722 21.3977C174.366 24.6812 173.465 30.8609 176.672 35.2524L187.978 26.996ZM182.191 26.136C184.013 24.7625 186.624 25.1477 187.973 26.9888L176.677 35.2596C179.941 39.7182 186.205 40.6421 190.618 37.3159L182.191 26.136ZM220.638 31.8064C211.629 19.5058 194.368 16.9598 182.192 26.1355L190.617 37.3164C196.559 32.8388 204.947 34.0761 209.343 40.0786L220.638 31.8064ZM214.855 30.9561C216.68 29.5791 219.292 29.9674 220.639 31.8071L209.343 40.0779C212.607 44.5352 218.872 45.4625 223.286 42.1325L214.855 30.9561ZM213.295 33.5786C213.44 32.5955 213.966 31.6275 214.852 30.9579L223.289 42.1307C225.471 40.4828 226.779 38.1022 227.145 35.6215L213.295 33.5786ZM214.033 36.5431C213.373 35.6418 213.15 34.5606 213.295 33.5786L227.145 35.6215C227.511 33.1421 226.947 30.4822 225.329 28.2722L214.033 36.5431ZM187.149 32.5778C195.677 26.1504 207.724 27.9272 214.033 36.5433L225.328 28.272C214.406 13.3568 193.486 10.271 178.723 21.3975L187.149 32.5778Z" fill="black" fill-opacity="0.8" mask="url(#path-1-outside-1)"/>
</svg>
