<?xml version="1.0" encoding="UTF-8" standalone="no"?>
<!-- Created with Inkscape (http://www.inkscape.org/) -->
<svg
   xmlns:svg="http://www.w3.org/2000/svg"
   xmlns="http://www.w3.org/2000/svg"
   version="1.0"
   width="535"
   height="456"
   viewBox="-0.642 -0.936 535 456"
   id="svg2"
   xml:space="preserve">
	<defs
   id="defs4">
	</defs>
	<g
   id="g6">
		<g
   id="g8">
			<path
   d="M 41.728,454.886 C 27.709,454.886 16.108,454.474 7.09,444.673 C -2.037,434.909 -0.53,424.265 1.676,411.53 L 67.317,39.401 C 69.36,27.879 71.435,18.211 82.768,9.263 C 94.159,0.369 104.886,0 117.608,0 L 492.325,0.035 C 506.313,0.035 517.981,0.439 527.003,10.213 C 536.052,20.039 534.622,30.692 532.347,43.418 L 466.736,415.476 C 464.693,427.007 462.588,436.72 451.215,445.622 C 439.856,454.509 429.137,454.886 416.445,454.886 L 41.728,454.886 L 41.728,454.886 z "
   style="fill:#294293;fill-rule:evenodd"
   id="path10" />
		</g>
		<path
   d="M 457.274,277.839 C 460.68,277.558 463.299,278.007 465.106,279.913 C 467.004,281.917 467.315,284.194 466.735,287.64 L 465.483,294.777 C 464.969,297.783 464.081,299.513 461.876,301.386 C 459.657,303.257 456.831,303.97 453.394,304.515 C 447.581,305.331 441.078,305.869 430.97,305.869 C 380.032,305.869 355.437,271.099 355.437,232.277 C 355.437,193.482 380.033,158.704 430.97,158.704 C 440.47,158.704 445.845,159.152 449.761,159.688 C 452.884,160.101 455.306,161.226 456.8,162.791 C 458.712,164.699 459.212,167.238 459.212,170.578 L 459.212,175.105 C 459.212,178.55 458.941,180.853 457.042,182.9 C 455.104,184.939 452.884,185.484 449.69,185.238 L 448.331,185.15 C 422.163,183.234 398.138,196.779 398.138,232.171 C 398.138,262.151 416.24,278.753 441.212,278.753 C 446.179,278.753 451.73,278.384 455.538,278.007 L 457.274,277.839 L 457.274,277.839 z "
   style="fill:#ffffff;fill-rule:evenodd"
   id="path12" />
		<path
   d="M 137.208,304.515 C 140.614,304.515 143.4,304.374 146.054,302.062 C 148.638,299.681 148.708,297.097 148.708,294.039 L 148.708,194.906 C 148.708,191.847 148.853,189.263 151.437,186.908 C 154.021,184.527 156.847,184.465 160.213,184.465 L 174.363,184.465 C 177.769,184.465 180.594,184.36 183.183,182.014 C 185.767,179.631 185.872,177.047 185.872,173.989 L 185.872,170.315 C 185.872,167.213 185.767,164.655 183.183,162.317 C 180.595,159.935 177.769,159.821 174.363,159.821 L 80.453,159.821 C 77.078,159.821 74.261,159.935 71.638,162.317 C 69.014,164.654 68.949,167.213 68.949,170.315 L 68.949,173.989 C 68.949,177.048 69.015,179.632 71.638,182.014 C 74.262,184.36 77.078,184.465 80.453,184.465 L 94.603,184.465 C 97.943,184.465 100.795,184.528 103.423,186.908 C 106.007,189.263 106.112,191.847 106.112,194.906 L 106.112,294.039 C 106.112,297.098 106.209,299.682 108.793,302.062 C 111.346,304.375 114.242,304.515 117.608,304.515 L 137.208,304.515 L 137.208,304.515 z "
   style="fill:#ffffff;fill-rule:evenodd"
   id="path14" />
		<path
   d="M 197.853,199.16 C 197.853,196.137 197.95,193.517 200.573,191.162 C 203.157,188.824 205.983,188.719 209.349,188.719 L 224.049,188.719 C 227.415,188.719 230.28,188.614 232.829,186.258 C 235.453,183.885 235.584,181.336 235.584,178.27 L 235.584,170.315 C 235.584,167.213 235.654,164.655 238.278,162.317 C 240.822,159.935 243.679,159.821 247.054,159.821 L 256.304,159.821 C 307.522,159.821 331.882,190.522 331.882,232.172 C 331.882,273.815 307.523,304.516 256.304,304.516 L 209.348,304.516 C 205.982,304.516 203.156,304.375 200.572,302.063 C 197.984,299.682 197.852,297.098 197.852,294.04 L 197.852,199.16 L 197.853,199.16 z "
   style="fill:#ffffff;fill-rule:evenodd"
   id="path16" />
		<g
   id="g18">
			<path
   d="M 238.511,270.009 C 238.511,273.103 238.612,275.687 241.2,278.007 C 243.824,280.388 246.64,280.458 250.015,280.458 L 251.782,280.458 C 276.901,280.458 291.628,262.353 291.6,233.12 C 291.627,203.852 276.901,185.747 251.782,185.747 L 250.015,185.747 C 246.64,185.747 243.823,185.862 241.2,188.208 C 238.612,190.556 238.511,193.165 238.511,196.198 L 238.511,270.009 L 238.511,270.009 z "
   style="fill:#294293;fill-rule:evenodd"
   id="path20" />
		</g>
	</g>
</svg>