<svg width="83" height="87" viewBox="0 0 83 87" fill="none" xmlns="http://www.w3.org/2000/svg">
<path d="M57.2009 64.595C68.4576 58.0636 76.5097 49.8678 80.222 41.1382C81.7491 34.8573 82.6228 28.095 82.6228 20.9558C82.6228 19.958 82.577 19.0038 82.4855 18.0931C81.8298 28.6506 68.1853 41.9247 50.1336 50.602C28.3586 61.0613 12.0214 63.8761 4.73407 55.8959C7.26558 60.8958 10.6555 65.9435 14.5115 70.4684C23.4742 78.4355 38.2537 75.5816 57.2009 64.595Z" fill="#990AE3"/>
<path d="M47.5911 43.1163C68.133 33.2103 82.4376 19.1127 79.9431 9.76877C75.8474 2.69709 67.56 0 58.6736 0C32.3302 0 0 17.3655 0 39.5195C0 42.3647 0.627432 45.5542 1.75376 48.8852C7.76229 56.861 26.1321 53.469 47.5911 43.1163Z" fill="#990AE3"/>
<path d="M45.8592 74.5163C31.4152 80.3745 23.1453 78.5052 18.5746 74.8561L18.5093 74.7995C25.5831 81.8537 33.6439 86.8144 40.7112 86.8144C53.0921 86.8144 70.0415 71.8017 78.0608 48.5127C73.5425 56.9177 63.8434 67.2463 45.8592 74.5163Z" fill="#990AE3"/>
<path d="M45.8592 74.5162C63.8434 67.2463 73.5424 56.9176 78.063 48.5083C78.8799 46.1358 79.6054 43.674 80.2241 41.136C76.5096 49.8656 68.4576 58.0614 57.203 64.5928C38.2559 75.5794 23.4764 78.4355 14.5115 70.4662C15.7991 71.9716 17.1367 73.4291 18.5114 74.7951L18.5768 74.8517C23.1453 78.5052 31.4152 80.3744 45.8592 74.5162H45.8592Z" fill="white"/>
<path d="M50.1314 50.6019C68.1831 41.9268 81.8276 28.6505 82.4833 18.0931C82.1609 14.8187 81.272 12.0628 79.9409 9.77094C82.4376 19.1149 68.133 33.2125 47.589 43.1185C26.1278 53.4711 7.76012 56.8632 1.75159 48.8852C2.52281 51.1727 3.52931 53.5321 4.72971 55.8959C12.0214 63.876 28.3586 61.0613 50.1314 50.6019Z" fill="white"/>
</svg>
