<svg width="129" height="32" viewBox="0 0 129 32" fill="none" xmlns="http://www.w3.org/2000/svg">
<g clip-path="url(#clip0)">
<mask id="mask0" mask-type="alpha" maskUnits="userSpaceOnUse" x="-1" y="0" width="34" height="29">
<ellipse cx="16" cy="14.5" rx="17" ry="14.5" fill="black"/>
</mask>
<g mask="url(#mask0)">
<path d="M16.0888 57.0556C16.3224 57.0556 16.5463 56.9631 16.7114 56.7986C16.8766 56.6341 16.9693 56.411 16.9693 56.1784V52.3541L26.6547 45.8106L29.2962 52.1348C29.3381 52.2452 29.4021 52.346 29.4841 52.4312C29.5661 52.5164 29.6646 52.5842 29.7735 52.6306C29.8825 52.677 29.9998 52.701 30.1183 52.7011C30.2367 52.7013 30.3541 52.6776 30.4632 52.6316C30.5723 52.5855 30.6709 52.518 30.7532 52.433C30.8354 52.348 30.8997 52.2474 30.942 52.1371C30.9843 52.0269 31.0038 51.9092 30.9994 51.7913C30.995 51.6733 30.9667 51.5574 30.9163 51.4506L17.3215 19.1105C17.2171 18.8711 17.0448 18.6673 16.8259 18.524C16.607 18.3807 16.3508 18.304 16.0888 18.3035C15.8263 18.3074 15.5709 18.3886 15.3547 18.5369C15.1384 18.6852 14.9711 18.8939 14.8738 19.1368L2.06266 51.4682C2.01977 51.5753 1.99851 51.6898 2.00008 51.8051C2.00166 51.9204 2.02604 52.0343 2.07184 52.1402C2.11763 52.2461 2.18395 52.342 2.26698 52.4223C2.35001 52.5027 2.44814 52.5659 2.55574 52.6085C2.65945 52.6493 2.77 52.6701 2.88152 52.6699C3.05786 52.67 3.23019 52.6174 3.37619 52.5189C3.52219 52.4204 3.63512 52.2805 3.70037 52.1173L6.07769 46.1176L15.2083 52.2576V56.1784C15.2083 56.411 15.3011 56.6341 15.4662 56.7986C15.6314 56.9631 15.8553 57.0556 16.0888 57.0556ZM16.9693 33.9341L20.6322 31.4694L22.8246 36.6445L16.9693 40.5829V33.9341ZM15.2083 40.4952L9.75813 36.8287L11.8449 31.5659L15.2083 33.8377V40.4952ZM16.9693 50.2402V42.7055L23.5202 38.3198L25.9943 44.1879L16.9693 50.2402ZM19.9366 29.8642L16.9693 31.8115V22.8471L19.9366 29.8642ZM15.2083 23.0752V31.7237L12.5053 29.8642L15.2083 23.0752ZM6.73805 44.4423L9.09776 38.4953L15.2083 42.6091V50.1437L6.73805 44.4423Z" stroke="black" stroke-width="6"/>
<path d="M18.7303 14.0757C18.7303 13.5552 18.5754 13.0465 18.2851 12.6137C17.9949 12.181 17.5823 11.8437 17.0997 11.6446C16.617 11.4454 16.0859 11.3933 15.5735 11.4948C15.0611 11.5964 14.5904 11.847 14.221 12.215C13.8516 12.583 13.6 13.0519 13.4981 13.5623C13.3962 14.0728 13.4485 14.6019 13.6484 15.0827C13.8484 15.5635 14.1869 15.9745 14.6213 16.2636C15.0557 16.5528 15.5664 16.7071 16.0888 16.7071C16.7894 16.7071 17.4612 16.4299 17.9566 15.9364C18.452 15.4429 18.7303 14.7736 18.7303 14.0757ZM15.2083 14.0757C15.2083 13.9022 15.26 13.7326 15.3567 13.5884C15.4535 13.4441 15.591 13.3317 15.7519 13.2653C15.9128 13.1989 16.0898 13.1816 16.2606 13.2154C16.4314 13.2492 16.5883 13.3328 16.7114 13.4555C16.8346 13.5781 16.9184 13.7344 16.9524 13.9046C16.9864 14.0747 16.9689 14.2511 16.9023 14.4114C16.8356 14.5716 16.7228 14.7086 16.578 14.805C16.4332 14.9014 16.263 14.9528 16.0888 14.9528C15.8553 14.9528 15.6313 14.8604 15.4662 14.6959C15.3011 14.5314 15.2083 14.3083 15.2083 14.0757Z" stroke="black" stroke-width="6"/>
<path d="M20.8085 20.0139C20.9669 20.1447 21.1663 20.2161 21.372 20.2157C21.5014 20.2159 21.6292 20.1877 21.7463 20.1331C21.8635 20.0786 21.9672 19.9989 22.05 19.8999C23.2091 18.5172 23.8967 16.8031 24.0135 15.0055C24.1148 12.8715 23.4148 10.7765 22.05 9.12863C21.9005 8.9495 21.6858 8.83686 21.4529 8.81547C21.2201 8.79409 20.9883 8.86572 20.8085 9.0146C20.6287 9.16349 20.5156 9.37743 20.4941 9.60937C20.4727 9.84131 20.5446 10.0722 20.694 10.2514C21.7068 11.4427 22.2626 12.9532 22.2626 14.5143C22.2626 16.0754 21.7068 17.5859 20.694 18.7772C20.6199 18.8658 20.564 18.9681 20.5297 19.0783C20.4953 19.1885 20.4831 19.3043 20.4937 19.4192C20.5043 19.5341 20.5376 19.6458 20.5916 19.7478C20.6456 19.8499 20.7193 19.9403 20.8085 20.0139Z" stroke="black" stroke-width="6"/>
<path d="M25.3338 21.8559C25.4343 21.9139 25.5453 21.9515 25.6605 21.9666C25.7756 21.9817 25.8926 21.9739 26.0047 21.9438C26.1169 21.9136 26.2219 21.8616 26.3138 21.7909C26.4056 21.7201 26.4825 21.6319 26.5401 21.5314C27.7765 19.3979 28.4275 16.9778 28.4275 14.5143C28.4275 12.0507 27.7765 9.63062 26.5401 7.49715C26.4233 7.29476 26.2306 7.14687 26.0044 7.086C25.7782 7.02514 25.537 7.05629 25.3338 7.17261C25.1306 7.28892 24.9822 7.48088 24.9211 7.70623C24.86 7.93159 24.8913 8.1719 25.008 8.37429C26.0899 10.2411 26.6595 12.3587 26.6595 14.5143C26.6595 16.6699 26.0899 18.7875 25.008 20.6543C24.9498 20.7544 24.912 20.865 24.8969 20.9797C24.8818 21.0944 24.8896 21.2109 24.9199 21.3226C24.9501 21.4343 25.0023 21.539 25.0733 21.6305C25.1444 21.722 25.2329 21.7986 25.3338 21.8559Z" stroke="black" stroke-width="6"/>
<path d="M11.3782 9.01463C11.2892 8.94077 11.1865 8.88512 11.0759 8.85088C10.9653 8.81663 10.849 8.80445 10.7337 8.81504C10.6184 8.82564 10.5063 8.85879 10.4038 8.9126C10.3014 8.96642 10.2106 9.03984 10.1367 9.12865C8.76493 10.7731 8.06127 12.8698 8.16441 15.0055C8.28114 16.8032 8.96878 18.5173 10.1279 19.8999C10.2107 19.9989 10.3144 20.0786 10.4315 20.1332C10.5487 20.1877 10.6765 20.2159 10.8059 20.2157C11.0116 20.2161 11.211 20.1447 11.3694 20.014C11.4579 19.9397 11.5309 19.8488 11.5841 19.7464C11.6373 19.6441 11.6697 19.5323 11.6796 19.4174C11.6894 19.3025 11.6764 19.1869 11.6413 19.077C11.6062 18.9672 11.5497 18.8653 11.475 18.7772C10.4639 17.5851 9.90921 16.0749 9.90921 14.5143C9.90921 12.9537 10.4639 11.4434 11.475 10.2514C11.5502 10.1639 11.6073 10.0624 11.6431 9.95289C11.6789 9.84336 11.6927 9.72787 11.6838 9.61303C11.6748 9.49818 11.6431 9.38622 11.5907 9.28355C11.5383 9.18088 11.4661 9.08949 11.3782 9.01463Z" stroke="black" stroke-width="6"/>
<path d="M6.844 7.17263C6.64182 7.05827 6.40245 7.02822 6.17811 7.08902C5.95378 7.14982 5.76268 7.29654 5.64653 7.49717C4.41007 9.63064 3.75912 12.0508 3.75912 14.5143C3.75912 16.9778 4.41007 19.3979 5.64653 21.5314C5.70405 21.6319 5.78097 21.7201 5.87285 21.7909C5.96472 21.8616 6.06974 21.9136 6.18187 21.9438C6.29399 21.9739 6.41099 21.9817 6.52614 21.9666C6.64129 21.9516 6.75231 21.9139 6.8528 21.8559C6.95369 21.7986 7.04221 21.722 7.11325 21.6305C7.18429 21.539 7.23646 21.4343 7.26674 21.3226C7.29702 21.211 7.30482 21.0944 7.28969 20.9797C7.27456 20.865 7.2368 20.7544 7.17858 20.6543C6.09667 18.7875 5.5271 16.6699 5.5271 14.5143C5.5271 12.3587 6.09667 10.2411 7.17858 8.37431C7.23644 8.27367 7.27369 8.16261 7.28818 8.04753C7.30267 7.93246 7.29411 7.81567 7.263 7.70392C7.23188 7.59216 7.17883 7.48766 7.10691 7.39647C7.03499 7.30527 6.94563 7.22919 6.844 7.17263Z" stroke="black" stroke-width="6"/>
<rect x="9" y="12" width="13" height="7" fill="black"/>
<path d="M16.0888 56.9445C16.3224 56.9445 16.5463 56.8521 16.7114 56.6878C16.8766 56.5235 16.9693 56.3007 16.9693 56.0683V52.2482L26.6547 45.712L29.2962 52.0292C29.3381 52.1394 29.4021 52.2401 29.4841 52.3252C29.5661 52.4103 29.6646 52.4781 29.7735 52.5244C29.8825 52.5707 29.9998 52.5947 30.1182 52.5949C30.2367 52.595 30.3541 52.5714 30.4632 52.5254C30.5723 52.4794 30.6709 52.4119 30.7532 52.327C30.8354 52.2422 30.8997 52.1417 30.942 52.0315C30.9843 51.9214 31.0038 51.8039 30.9994 51.686C30.995 51.5682 30.9667 51.4525 30.9162 51.3458L17.3215 19.0415C17.2171 18.8025 17.0448 18.5989 16.8259 18.4557C16.607 18.3125 16.3508 18.236 16.0888 18.2355C15.8263 18.2393 15.5709 18.3204 15.3547 18.4686C15.1384 18.6167 14.9711 18.8252 14.8738 19.0678L2.06266 51.3633C2.01977 51.4703 1.99851 51.5846 2.00008 51.6998C2.00166 51.815 2.02604 51.9287 2.07184 52.0345C2.11763 52.1403 2.18395 52.2361 2.26698 52.3164C2.35001 52.3966 2.44814 52.4598 2.55574 52.5023C2.65945 52.5431 2.77 52.5639 2.88152 52.5636C3.05786 52.5638 3.23019 52.5113 3.37619 52.4129C3.52219 52.3144 3.63512 52.1747 3.70037 52.0116L6.07769 46.0187L15.2083 52.1518V56.0683C15.2083 56.3007 15.3011 56.5235 15.4662 56.6878C15.6314 56.8521 15.8553 56.9445 16.0888 56.9445ZM16.9693 33.8487L20.6322 31.3867L22.8246 36.5561L16.9693 40.4901V33.8487ZM15.2083 40.4024L9.75813 36.7401L11.8449 31.4831L15.2083 33.7524V40.4024ZM16.9693 50.1367V42.6104L23.5202 38.2296L25.9943 44.0911L16.9693 50.1367ZM19.9366 29.7833L16.9693 31.7284V22.774L19.9366 29.7833ZM15.2083 23.0018V31.6408L12.5052 29.7833L15.2083 23.0018ZM6.73805 44.3452L9.09776 38.4048L15.2083 42.514V50.0403L6.73805 44.3452Z" fill="white"/>
<path d="M18.7302 14.0123C18.7302 13.4925 18.5753 12.9843 18.285 12.552C17.9948 12.1198 17.5822 11.7829 17.0996 11.5839C16.6169 11.385 16.0858 11.3329 15.5734 11.4343C15.061 11.5358 14.5903 11.7861 14.2209 12.1537C13.8515 12.5213 13.5999 12.9897 13.498 13.4995C13.3961 14.0094 13.4484 14.5379 13.6483 15.0182C13.8483 15.4985 14.1868 15.909 14.6212 16.1978C15.0556 16.4867 15.5663 16.6408 16.0887 16.6408C16.7893 16.6408 17.4612 16.3639 17.9565 15.871C18.4519 15.378 18.7302 14.7095 18.7302 14.0123ZM15.2082 14.0123C15.2082 13.839 15.2599 13.6696 15.3566 13.5256C15.4534 13.3815 15.5909 13.2692 15.7518 13.2029C15.9127 13.1365 16.0897 13.1192 16.2605 13.153C16.4313 13.1868 16.5882 13.2703 16.7113 13.3928C16.8345 13.5153 16.9183 13.6714 16.9523 13.8414C16.9863 14.0114 16.9688 14.1875 16.9022 14.3476C16.8356 14.5077 16.7227 14.6446 16.5779 14.7408C16.4331 14.8371 16.2629 14.8885 16.0887 14.8885C15.8552 14.8885 15.6313 14.7962 15.4661 14.6319C15.301 14.4676 15.2082 14.2447 15.2082 14.0123Z" fill="white"/>
<path d="M20.8085 19.944C20.9669 20.0746 21.1663 20.1459 21.372 20.1455C21.5014 20.1457 21.6292 20.1176 21.7464 20.063C21.8635 20.0085 21.9672 19.929 22.05 19.8301C23.2091 18.449 23.8968 16.7368 24.0135 14.9411C24.1148 12.8095 23.4148 10.7168 22.05 9.07077C21.9005 8.89185 21.6858 8.77933 21.453 8.75796C21.2201 8.7366 20.9883 8.80815 20.8085 8.95687C20.6287 9.10559 20.5156 9.3193 20.4942 9.55098C20.4727 9.78266 20.5446 10.0133 20.6941 10.1923C21.7068 11.3822 22.2626 12.8911 22.2626 14.4504C22.2626 16.0098 21.7068 17.5186 20.6941 18.7086C20.6199 18.7971 20.5641 18.8994 20.5297 19.0094C20.4953 19.1195 20.4831 19.2352 20.4937 19.3499C20.5043 19.4647 20.5376 19.5762 20.5916 19.6782C20.6457 19.7801 20.7194 19.8704 20.8085 19.944Z" fill="white"/>
<path d="M25.3338 21.7839C25.4343 21.8419 25.5453 21.8794 25.6605 21.8945C25.7756 21.9096 25.8926 21.9018 26.0047 21.8717C26.1169 21.8415 26.2219 21.7896 26.3138 21.7189C26.4056 21.6482 26.4825 21.5602 26.5401 21.4598C27.7765 19.3287 28.4275 16.9112 28.4275 14.4504C28.4275 11.9896 27.7765 9.57221 26.5401 7.4411C26.4233 7.23894 26.2306 7.09121 26.0044 7.03041C25.7782 6.96962 25.537 7.00073 25.3338 7.11692C25.1306 7.23311 24.9822 7.42485 24.9211 7.64995C24.86 7.87506 24.8913 8.1151 25.008 8.31727C26.0899 10.182 26.6595 12.2972 26.6595 14.4504C26.6595 16.6036 26.0899 18.7189 25.008 20.5836C24.9498 20.6836 24.912 20.7941 24.8969 20.9086C24.8818 21.0232 24.8896 21.1397 24.9199 21.2512C24.9501 21.3628 25.0023 21.4673 25.0733 21.5587C25.1444 21.6502 25.2329 21.7267 25.3338 21.7839V21.7839Z" fill="white"/>
<path d="M11.378 8.95691C11.289 8.88313 11.1863 8.82755 11.0757 8.79334C10.9651 8.75913 10.8488 8.74697 10.7335 8.75755C10.6182 8.76813 10.5061 8.80124 10.4037 8.855C10.3012 8.90875 10.2104 8.98209 10.1365 9.07081C8.76475 10.7134 8.06109 12.8078 8.16422 14.9411C8.28095 16.7368 8.96859 18.449 10.1277 19.8301C10.2105 19.929 10.3142 20.0086 10.4313 20.0631C10.5485 20.1176 10.6763 20.1458 10.8057 20.1455C11.0114 20.1459 11.2108 20.0746 11.3692 19.944C11.4577 19.8699 11.5307 19.779 11.5839 19.6768C11.6371 19.5745 11.6696 19.4629 11.6794 19.3481C11.6892 19.2334 11.6762 19.1178 11.6411 19.0081C11.606 18.8984 11.5495 18.7966 11.4749 18.7086C10.4638 17.5179 9.90903 16.0094 9.90903 14.4505C9.90903 12.8916 10.4638 11.383 11.4749 10.1923C11.55 10.1049 11.6071 10.0035 11.6429 9.89413C11.6788 9.78472 11.6926 9.66936 11.6836 9.55464C11.6746 9.43992 11.643 9.32809 11.5905 9.22553C11.5381 9.12297 11.4659 9.03169 11.378 8.95691V8.95691Z" fill="white"/>
<path d="M6.84415 7.11695C6.64197 7.00272 6.4026 6.9727 6.17827 7.03343C5.95393 7.09417 5.76284 7.24072 5.64669 7.44113C4.41022 9.57224 3.75928 11.9897 3.75928 14.4505C3.75928 16.9112 4.41022 19.3287 5.64669 21.4598C5.70421 21.5602 5.78112 21.6483 5.873 21.719C5.96488 21.7896 6.0699 21.8416 6.18202 21.8717C6.29414 21.9018 6.41114 21.9096 6.52629 21.8945C6.64144 21.8795 6.75246 21.8419 6.85295 21.784C6.95385 21.7267 7.04236 21.6502 7.11341 21.5588C7.18445 21.4673 7.23661 21.3628 7.26689 21.2513C7.29717 21.1397 7.30497 21.0233 7.28984 20.9087C7.27471 20.7941 7.23695 20.6836 7.17873 20.5836C6.09683 18.7189 5.52725 16.6036 5.52725 14.4505C5.52725 12.2973 6.09683 10.182 7.17873 8.3173C7.23659 8.21677 7.27385 8.10583 7.28834 7.99089C7.30283 7.87594 7.29427 7.75928 7.26315 7.64765C7.23204 7.53602 7.17898 7.43164 7.10706 7.34054C7.03514 7.24945 6.94578 7.17345 6.84415 7.11695V7.11695Z" fill="white"/>
</g>
</g>
<mask id="path-10-outside-1" maskUnits="userSpaceOnUse" x="34.7031" y="7.00098" width="94" height="18" fill="black">
<rect fill="white" x="34.7031" y="7.00098" width="94" height="18"/>
<path d="M36.7031 10.627V10.4775C36.7031 10.1553 36.7676 9.93262 36.8965 9.80957C37.0312 9.68066 37.2598 9.61621 37.582 9.61621H47.5928C47.9385 9.61621 48.1699 9.68359 48.2871 9.81836C48.4102 9.94727 48.4717 10.167 48.4717 10.4775V10.627C48.4717 10.9023 48.4189 11.1074 48.3135 11.2422C48.2139 11.3711 48.1113 11.4443 48.0059 11.4619C47.9004 11.4795 47.7393 11.4883 47.5225 11.4883C47.2588 11.4883 46.6523 11.4795 45.7031 11.4619C44.7539 11.4443 44.1475 11.4355 43.8838 11.4355V21.1387C43.8838 21.4609 43.8223 21.6865 43.6992 21.8154C43.582 21.9385 43.3564 22 43.0225 22H42.1699C41.8359 22 41.6074 21.9385 41.4844 21.8154C41.3672 21.6865 41.3086 21.4609 41.3086 21.1387V11.4355C39.3984 11.4707 38.1797 11.4883 37.6523 11.4883C37.4824 11.4883 37.3594 11.4824 37.2832 11.4707C37.207 11.459 37.1133 11.4297 37.002 11.3828C36.8965 11.3301 36.8203 11.2422 36.7734 11.1191C36.7266 10.9961 36.7031 10.832 36.7031 10.627Z"/>
<path d="M48.085 17.8076C48.085 16.3428 48.4688 15.25 49.2363 14.5293C50.0098 13.8086 51.0674 13.4482 52.4092 13.4482C53.1299 13.4482 53.7451 13.5596 54.2549 13.7822C54.7646 14.0049 55.1543 14.3125 55.4238 14.7051C55.6934 15.0918 55.8838 15.502 55.9951 15.9355C56.1123 16.3691 56.1709 16.8496 56.1709 17.377C56.1709 17.8926 55.9072 18.1504 55.3799 18.1504H50.4141C50.4609 19.9727 51.2227 20.8838 52.6992 20.8838C53.2266 20.8838 53.707 20.7988 54.1406 20.6289C54.5801 20.4531 54.9375 20.2598 55.2129 20.0488C55.4941 19.8379 55.6582 19.7266 55.7051 19.7148H55.7754L55.8633 19.75C55.9219 19.8086 55.9658 19.9434 55.9951 20.1543C56.0303 20.3652 56.0479 20.5615 56.0479 20.7432L56.0654 21.0068C56.0654 21.165 55.9688 21.2969 55.7754 21.4023C54.8496 21.9297 53.8125 22.1963 52.6641 22.2021C51.1641 22.2021 50.0244 21.8301 49.2451 21.0859C48.4717 20.3418 48.085 19.249 48.085 17.8076ZM50.4316 16.9814H54.1582C54.123 16.2842 53.9854 15.7422 53.7451 15.3555C53.5049 14.9629 53.0596 14.7666 52.4092 14.7666C51.2373 14.7666 50.5781 15.5049 50.4316 16.9814Z"/>
<path d="M57.8232 21.1914V9.85352C57.8232 9.29102 58.0752 9.00684 58.5791 9.00098C58.5791 9.00098 58.8545 9.00098 59.4053 9.00098C59.9561 9.00098 60.2314 9.27344 60.2314 9.81836V21.1211C60.2314 21.2676 60.2256 21.3818 60.2139 21.4639C60.2021 21.5459 60.1729 21.6338 60.126 21.7275C60.0791 21.8154 59.9971 21.8799 59.8799 21.9209C59.7686 21.9619 59.6162 21.9883 59.4229 22H58.6846C58.4092 22 58.1953 21.9473 58.043 21.8418C57.8965 21.7305 57.8232 21.5137 57.8232 21.1914Z"/>
<path d="M61.8662 17.8076C61.8662 16.3428 62.25 15.25 63.0176 14.5293C63.791 13.8086 64.8486 13.4482 66.1904 13.4482C66.9111 13.4482 67.5264 13.5596 68.0361 13.7822C68.5459 14.0049 68.9355 14.3125 69.2051 14.7051C69.4746 15.0918 69.665 15.502 69.7764 15.9355C69.8936 16.3691 69.9521 16.8496 69.9521 17.377C69.9521 17.8926 69.6885 18.1504 69.1611 18.1504H64.1953C64.2422 19.9727 65.0039 20.8838 66.4805 20.8838C67.0078 20.8838 67.4883 20.7988 67.9219 20.6289C68.3613 20.4531 68.7188 20.2598 68.9941 20.0488C69.2754 19.8379 69.4395 19.7266 69.4863 19.7148H69.5566L69.6445 19.75C69.7031 19.8086 69.7471 19.9434 69.7764 20.1543C69.8115 20.3652 69.8291 20.5615 69.8291 20.7432L69.8467 21.0068C69.8467 21.165 69.75 21.2969 69.5566 21.4023C68.6309 21.9297 67.5938 22.1963 66.4453 22.2021C64.9453 22.2021 63.8057 21.8301 63.0264 21.0859C62.2529 20.3418 61.8662 19.249 61.8662 17.8076ZM64.2129 16.9814H67.9395C67.9043 16.2842 67.7666 15.7422 67.5264 15.3555C67.2861 14.9629 66.8408 14.7666 66.1904 14.7666C65.0186 14.7666 64.3594 15.5049 64.2129 16.9814Z"/>
<path d="M71.5869 21.1914V14.459C71.5869 13.9316 71.8564 13.668 72.3955 13.668H73.1162C73.2334 13.668 73.3242 13.6738 73.3887 13.6855C73.459 13.6973 73.5439 13.7236 73.6436 13.7646C73.749 13.8057 73.8252 13.8848 73.8721 14.002C73.9189 14.1133 73.9424 14.2598 73.9424 14.4414V14.8018C74.1709 14.585 74.3496 14.4209 74.4785 14.3096C74.6133 14.1924 74.915 14.0371 75.3838 13.8438C75.8525 13.6504 76.3506 13.5537 76.8779 13.5537C77.5869 13.5537 78.1348 13.6592 78.5215 13.8701C78.9141 14.0811 79.2012 14.4209 79.3828 14.8896C80.127 13.999 81.123 13.5537 82.3711 13.5537C82.8867 13.5537 83.3203 13.6182 83.6719 13.7471C84.0234 13.8701 84.2871 14.0137 84.4629 14.1777C84.6387 14.3418 84.7705 14.5762 84.8584 14.8809C84.9521 15.1855 85.0049 15.4375 85.0166 15.6367C85.0283 15.8359 85.0342 16.1143 85.0342 16.4717V21.1914C85.0342 21.4551 84.9756 21.6572 84.8584 21.7979C84.7471 21.9326 84.5273 22 84.1992 22H83.4082C83.3145 22 83.2266 21.9941 83.1445 21.9824C83.0684 21.9707 83.0039 21.9531 82.9512 21.9297C82.8984 21.9062 82.8545 21.8799 82.8193 21.8506C82.7842 21.8154 82.749 21.7773 82.7139 21.7363C82.6846 21.6953 82.6611 21.6602 82.6436 21.6309C82.626 21.6016 82.6143 21.5576 82.6084 21.499C82.6025 21.4346 82.5967 21.3936 82.5908 21.376C82.585 21.3584 82.582 21.3203 82.582 21.2617C82.582 21.2031 82.582 21.168 82.582 21.1562V16.2607C82.582 16.0322 82.5762 15.8594 82.5645 15.7422C82.5527 15.6191 82.5146 15.4814 82.4502 15.3291C82.3857 15.1709 82.2773 15.0566 82.125 14.9863C81.9727 14.9102 81.7705 14.8721 81.5186 14.8721C81.0264 14.8721 80.6191 15.0244 80.2969 15.3291C79.9746 15.6338 79.752 15.9795 79.6289 16.3662C79.5703 16.5713 79.541 16.8818 79.541 17.2979V21.0244C79.541 21.0479 79.541 21.083 79.541 21.1299C79.541 21.1709 79.5264 21.25 79.4971 21.3672C79.4678 21.4785 79.4268 21.5752 79.374 21.6572C79.3271 21.7393 79.251 21.8184 79.1455 21.8945C79.04 21.9648 78.9082 22 78.75 22H77.9238C77.5898 22 77.3643 21.9326 77.2471 21.7979C77.1299 21.6572 77.0713 21.4551 77.0713 21.1914V16.1816C77.0713 15.7129 76.998 15.3789 76.8516 15.1797C76.7109 14.9746 76.4385 14.8721 76.0342 14.8721C75.5068 14.8721 75.0439 15.0742 74.6455 15.4785C74.2471 15.877 74.0479 16.4365 74.0479 17.1572V21.1914C74.0479 21.7305 73.7783 22 73.2393 22H72.4307C71.8682 22 71.5869 21.7305 71.5869 21.1914Z"/>
<path d="M86.6514 19.5303C86.6514 19.0615 86.7891 18.6543 87.0645 18.3086C87.3457 17.9629 87.6797 17.6934 88.0664 17.5C88.459 17.3066 88.9219 17.1543 89.4551 17.043C89.9883 16.9258 90.4482 16.8496 90.835 16.8145C91.2275 16.7793 91.623 16.7617 92.0215 16.7617V16.3838C92.0215 15.8682 91.9365 15.4609 91.7666 15.1621C91.5967 14.8633 91.2539 14.7139 90.7383 14.7139C90.2695 14.7139 89.8418 14.7783 89.4551 14.9072C89.0742 15.0303 88.79 15.1709 88.6025 15.3291C88.4209 15.4814 88.248 15.625 88.084 15.7598C87.9258 15.8887 87.8086 15.9531 87.7324 15.9531L87.6621 15.9355L87.5918 15.8828C87.5566 15.8242 87.5244 15.6777 87.4951 15.4434C87.4658 15.209 87.4453 14.9951 87.4336 14.8018L87.4072 14.4941C87.4072 14.4355 87.4102 14.3916 87.416 14.3623C87.4277 14.333 87.4512 14.3008 87.4863 14.2656C87.5215 14.2246 87.5479 14.1982 87.5654 14.1865C87.583 14.1748 87.6328 14.1514 87.7148 14.1162C87.8027 14.0811 87.8701 14.0518 87.917 14.0283C88.7783 13.6416 89.7188 13.4482 90.7383 13.4482C92.1035 13.4482 93.0645 13.7061 93.6211 14.2217C94.1836 14.7373 94.4648 15.4814 94.4648 16.4541V21.1914C94.4648 21.7305 94.1953 22 93.6562 22H92.7949C92.5312 22 92.3408 21.9297 92.2236 21.7891C92.1123 21.6426 92.0566 21.4727 92.0566 21.2793C91.2656 21.8887 90.3398 22.1963 89.2793 22.2021C88.4766 22.2021 87.8379 21.9268 87.3633 21.376C86.8887 20.8193 86.6514 20.2041 86.6514 19.5303ZM89.0156 19.5303C89.0156 19.876 89.1299 20.1895 89.3584 20.4707C89.5869 20.7461 89.8857 20.8838 90.2549 20.8838C90.665 20.8838 91.0605 20.7549 91.4414 20.4971C91.8281 20.2393 92.0215 19.8174 92.0215 19.2314V17.8252C91.6523 17.8604 91.333 17.8984 91.0635 17.9395C90.7998 17.9805 90.4863 18.0596 90.123 18.1768C89.7656 18.2881 89.4902 18.4609 89.2969 18.6953C89.1094 18.9297 89.0156 19.208 89.0156 19.5303Z"/>
<path d="M96.126 21.1035C96.126 21.0566 96.1992 20.6348 96.3457 19.8379C96.3809 19.5625 96.4658 19.4248 96.6006 19.4248C96.6592 19.4248 96.7998 19.5361 97.0225 19.7588C97.2451 19.9814 97.5703 20.207 97.998 20.4355C98.4316 20.6641 98.9297 20.7783 99.4922 20.7783C100.43 20.7783 100.898 20.459 100.898 19.8203C100.898 19.4863 100.755 19.2432 100.468 19.0908C100.181 18.9326 99.7588 18.8096 99.2021 18.7217C98.6514 18.6279 98.2822 18.5459 98.0947 18.4756C97.626 18.2939 97.1953 18.0068 96.8027 17.6143C96.416 17.2158 96.2227 16.6914 96.2227 16.041C96.2227 14.3594 97.2305 13.4951 99.2461 13.4482H99.7119C100.479 13.46 101.212 13.6094 101.909 13.8965C102.091 13.9668 102.208 14.0283 102.261 14.0811C102.313 14.1279 102.34 14.2129 102.34 14.3359C102.34 14.4062 102.281 14.7842 102.164 15.4697C102.117 15.6514 102.044 15.7393 101.944 15.7334C101.862 15.7334 101.722 15.6543 101.522 15.4961C101.323 15.332 101.036 15.1709 100.661 15.0127C100.292 14.8486 99.8496 14.7666 99.334 14.7666C98.4434 14.7666 97.998 15.0537 97.998 15.6279C97.998 15.9385 98.165 16.167 98.499 16.3135C98.8389 16.4541 99.293 16.5771 99.8613 16.6826C100.436 16.7822 100.854 16.9053 101.118 17.0518C101.347 17.1572 101.561 17.2949 101.76 17.4648C101.965 17.6348 102.173 17.9043 102.384 18.2734C102.595 18.6367 102.7 19.0381 102.7 19.4775C102.7 20.4854 102.41 21.1914 101.83 21.5957C101.256 22 100.465 22.2021 99.457 22.2021C98.209 22.2021 97.1367 21.9121 96.2402 21.332L96.1699 21.2441C96.1406 21.1738 96.126 21.127 96.126 21.1035Z"/>
<path d="M103.544 14.4062C103.544 13.9727 103.808 13.7559 104.335 13.7559H104.766V12.209C104.766 11.6699 105.056 11.4004 105.636 11.4004H106.277C106.816 11.4004 107.086 11.6699 107.086 12.209V13.7559H108.729C108.946 13.7559 109.119 13.8057 109.248 13.9053C109.383 13.999 109.465 14.0869 109.494 14.1689C109.523 14.251 109.538 14.3359 109.538 14.4238C109.538 14.5059 109.523 14.5908 109.494 14.6787C109.465 14.7607 109.386 14.8486 109.257 14.9424C109.134 15.0303 108.97 15.0742 108.765 15.0742H107.086V18.6689C107.086 18.7275 107.083 18.8066 107.077 18.9062C107.071 19 107.068 19.0762 107.068 19.1348C107.068 19.7734 107.127 20.21 107.244 20.4443C107.367 20.6787 107.561 20.7959 107.824 20.7959C108.158 20.7959 108.507 20.6904 108.87 20.4795C109.233 20.2686 109.427 20.1631 109.45 20.1631C109.532 20.1631 109.605 20.248 109.67 20.418C109.74 20.582 109.793 20.749 109.828 20.9189L109.863 21.1562C109.863 21.3848 109.488 21.6162 108.738 21.8506C107.988 22.085 107.271 22.2021 106.585 22.2021C105.706 22.2021 105.138 21.7686 104.88 20.9014C104.774 20.5439 104.719 19.999 104.713 19.2666V15.0742H104.335C103.808 15.0742 103.544 14.8516 103.544 14.4062Z"/>
<path d="M110.979 17.8076C110.979 16.3428 111.363 15.25 112.131 14.5293C112.904 13.8086 113.962 13.4482 115.304 13.4482C116.024 13.4482 116.64 13.5596 117.149 13.7822C117.659 14.0049 118.049 14.3125 118.318 14.7051C118.588 15.0918 118.778 15.502 118.89 15.9355C119.007 16.3691 119.065 16.8496 119.065 17.377C119.065 17.8926 118.802 18.1504 118.274 18.1504H113.309C113.355 19.9727 114.117 20.8838 115.594 20.8838C116.121 20.8838 116.602 20.7988 117.035 20.6289C117.475 20.4531 117.832 20.2598 118.107 20.0488C118.389 19.8379 118.553 19.7266 118.6 19.7148H118.67L118.758 19.75C118.816 19.8086 118.86 19.9434 118.89 20.1543C118.925 20.3652 118.942 20.5615 118.942 20.7432L118.96 21.0068C118.96 21.165 118.863 21.2969 118.67 21.4023C117.744 21.9297 116.707 22.1963 115.559 22.2021C114.059 22.2021 112.919 21.8301 112.14 21.0859C111.366 20.3418 110.979 19.249 110.979 17.8076ZM113.326 16.9814H117.053C117.018 16.2842 116.88 15.7422 116.64 15.3555C116.399 14.9629 115.954 14.7666 115.304 14.7666C114.132 14.7666 113.473 15.5049 113.326 16.9814Z"/>
<path d="M120.718 21.2266V14.4766C120.718 14.1309 120.791 13.9111 120.938 13.8174C121.09 13.7178 121.292 13.668 121.544 13.668H122.142C122.464 13.668 122.704 13.7441 122.862 13.8965C122.944 13.9902 122.991 14.0869 123.003 14.1865C123.015 14.2861 123.026 14.5615 123.038 15.0127C123.325 14.6143 123.671 14.2979 124.075 14.0635C124.485 13.8232 124.808 13.6797 125.042 13.6328C125.276 13.5801 125.484 13.5537 125.666 13.5537H125.684C125.842 13.5537 125.941 13.5859 125.982 13.6504C126.023 13.709 126.044 13.8115 126.044 13.958V14.96C126.044 15.0947 126.015 15.2031 125.956 15.2852C125.886 15.3438 125.728 15.3906 125.481 15.4258C125.235 15.4551 125.016 15.499 124.822 15.5576C124.412 15.7041 124.058 15.9268 123.759 16.2256C123.46 16.5244 123.267 16.8701 123.179 17.2627C123.144 17.4209 123.126 17.6494 123.126 17.9482V21.1035C123.126 21.3555 123.108 21.5195 123.073 21.5957C123.038 21.6719 122.947 21.7715 122.801 21.8945C122.654 21.9648 122.487 22 122.3 22H121.526C121.204 22 120.987 21.9297 120.876 21.7891C120.771 21.6426 120.718 21.4551 120.718 21.2266Z"/>
</mask>
<path d="M36.7031 10.627V10.4775C36.7031 10.1553 36.7676 9.93262 36.8965 9.80957C37.0312 9.68066 37.2598 9.61621 37.582 9.61621H47.5928C47.9385 9.61621 48.1699 9.68359 48.2871 9.81836C48.4102 9.94727 48.4717 10.167 48.4717 10.4775V10.627C48.4717 10.9023 48.4189 11.1074 48.3135 11.2422C48.2139 11.3711 48.1113 11.4443 48.0059 11.4619C47.9004 11.4795 47.7393 11.4883 47.5225 11.4883C47.2588 11.4883 46.6523 11.4795 45.7031 11.4619C44.7539 11.4443 44.1475 11.4355 43.8838 11.4355V21.1387C43.8838 21.4609 43.8223 21.6865 43.6992 21.8154C43.582 21.9385 43.3564 22 43.0225 22H42.1699C41.8359 22 41.6074 21.9385 41.4844 21.8154C41.3672 21.6865 41.3086 21.4609 41.3086 21.1387V11.4355C39.3984 11.4707 38.1797 11.4883 37.6523 11.4883C37.4824 11.4883 37.3594 11.4824 37.2832 11.4707C37.207 11.459 37.1133 11.4297 37.002 11.3828C36.8965 11.3301 36.8203 11.2422 36.7734 11.1191C36.7266 10.9961 36.7031 10.832 36.7031 10.627Z" fill="white"/>
<path d="M48.085 17.8076C48.085 16.3428 48.4688 15.25 49.2363 14.5293C50.0098 13.8086 51.0674 13.4482 52.4092 13.4482C53.1299 13.4482 53.7451 13.5596 54.2549 13.7822C54.7646 14.0049 55.1543 14.3125 55.4238 14.7051C55.6934 15.0918 55.8838 15.502 55.9951 15.9355C56.1123 16.3691 56.1709 16.8496 56.1709 17.377C56.1709 17.8926 55.9072 18.1504 55.3799 18.1504H50.4141C50.4609 19.9727 51.2227 20.8838 52.6992 20.8838C53.2266 20.8838 53.707 20.7988 54.1406 20.6289C54.5801 20.4531 54.9375 20.2598 55.2129 20.0488C55.4941 19.8379 55.6582 19.7266 55.7051 19.7148H55.7754L55.8633 19.75C55.9219 19.8086 55.9658 19.9434 55.9951 20.1543C56.0303 20.3652 56.0479 20.5615 56.0479 20.7432L56.0654 21.0068C56.0654 21.165 55.9688 21.2969 55.7754 21.4023C54.8496 21.9297 53.8125 22.1963 52.6641 22.2021C51.1641 22.2021 50.0244 21.8301 49.2451 21.0859C48.4717 20.3418 48.085 19.249 48.085 17.8076ZM50.4316 16.9814H54.1582C54.123 16.2842 53.9854 15.7422 53.7451 15.3555C53.5049 14.9629 53.0596 14.7666 52.4092 14.7666C51.2373 14.7666 50.5781 15.5049 50.4316 16.9814Z" fill="white"/>
<path d="M57.8232 21.1914V9.85352C57.8232 9.29102 58.0752 9.00684 58.5791 9.00098C58.5791 9.00098 58.8545 9.00098 59.4053 9.00098C59.9561 9.00098 60.2314 9.27344 60.2314 9.81836V21.1211C60.2314 21.2676 60.2256 21.3818 60.2139 21.4639C60.2021 21.5459 60.1729 21.6338 60.126 21.7275C60.0791 21.8154 59.9971 21.8799 59.8799 21.9209C59.7686 21.9619 59.6162 21.9883 59.4229 22H58.6846C58.4092 22 58.1953 21.9473 58.043 21.8418C57.8965 21.7305 57.8232 21.5137 57.8232 21.1914Z" fill="white"/>
<path d="M61.8662 17.8076C61.8662 16.3428 62.25 15.25 63.0176 14.5293C63.791 13.8086 64.8486 13.4482 66.1904 13.4482C66.9111 13.4482 67.5264 13.5596 68.0361 13.7822C68.5459 14.0049 68.9355 14.3125 69.2051 14.7051C69.4746 15.0918 69.665 15.502 69.7764 15.9355C69.8936 16.3691 69.9521 16.8496 69.9521 17.377C69.9521 17.8926 69.6885 18.1504 69.1611 18.1504H64.1953C64.2422 19.9727 65.0039 20.8838 66.4805 20.8838C67.0078 20.8838 67.4883 20.7988 67.9219 20.6289C68.3613 20.4531 68.7188 20.2598 68.9941 20.0488C69.2754 19.8379 69.4395 19.7266 69.4863 19.7148H69.5566L69.6445 19.75C69.7031 19.8086 69.7471 19.9434 69.7764 20.1543C69.8115 20.3652 69.8291 20.5615 69.8291 20.7432L69.8467 21.0068C69.8467 21.165 69.75 21.2969 69.5566 21.4023C68.6309 21.9297 67.5938 22.1963 66.4453 22.2021C64.9453 22.2021 63.8057 21.8301 63.0264 21.0859C62.2529 20.3418 61.8662 19.249 61.8662 17.8076ZM64.2129 16.9814H67.9395C67.9043 16.2842 67.7666 15.7422 67.5264 15.3555C67.2861 14.9629 66.8408 14.7666 66.1904 14.7666C65.0186 14.7666 64.3594 15.5049 64.2129 16.9814Z" fill="white"/>
<path d="M71.5869 21.1914V14.459C71.5869 13.9316 71.8564 13.668 72.3955 13.668H73.1162C73.2334 13.668 73.3242 13.6738 73.3887 13.6855C73.459 13.6973 73.5439 13.7236 73.6436 13.7646C73.749 13.8057 73.8252 13.8848 73.8721 14.002C73.9189 14.1133 73.9424 14.2598 73.9424 14.4414V14.8018C74.1709 14.585 74.3496 14.4209 74.4785 14.3096C74.6133 14.1924 74.915 14.0371 75.3838 13.8438C75.8525 13.6504 76.3506 13.5537 76.8779 13.5537C77.5869 13.5537 78.1348 13.6592 78.5215 13.8701C78.9141 14.0811 79.2012 14.4209 79.3828 14.8896C80.127 13.999 81.123 13.5537 82.3711 13.5537C82.8867 13.5537 83.3203 13.6182 83.6719 13.7471C84.0234 13.8701 84.2871 14.0137 84.4629 14.1777C84.6387 14.3418 84.7705 14.5762 84.8584 14.8809C84.9521 15.1855 85.0049 15.4375 85.0166 15.6367C85.0283 15.8359 85.0342 16.1143 85.0342 16.4717V21.1914C85.0342 21.4551 84.9756 21.6572 84.8584 21.7979C84.7471 21.9326 84.5273 22 84.1992 22H83.4082C83.3145 22 83.2266 21.9941 83.1445 21.9824C83.0684 21.9707 83.0039 21.9531 82.9512 21.9297C82.8984 21.9062 82.8545 21.8799 82.8193 21.8506C82.7842 21.8154 82.749 21.7773 82.7139 21.7363C82.6846 21.6953 82.6611 21.6602 82.6436 21.6309C82.626 21.6016 82.6143 21.5576 82.6084 21.499C82.6025 21.4346 82.5967 21.3936 82.5908 21.376C82.585 21.3584 82.582 21.3203 82.582 21.2617C82.582 21.2031 82.582 21.168 82.582 21.1562V16.2607C82.582 16.0322 82.5762 15.8594 82.5645 15.7422C82.5527 15.6191 82.5146 15.4814 82.4502 15.3291C82.3857 15.1709 82.2773 15.0566 82.125 14.9863C81.9727 14.9102 81.7705 14.8721 81.5186 14.8721C81.0264 14.8721 80.6191 15.0244 80.2969 15.3291C79.9746 15.6338 79.752 15.9795 79.6289 16.3662C79.5703 16.5713 79.541 16.8818 79.541 17.2979V21.0244C79.541 21.0479 79.541 21.083 79.541 21.1299C79.541 21.1709 79.5264 21.25 79.4971 21.3672C79.4678 21.4785 79.4268 21.5752 79.374 21.6572C79.3271 21.7393 79.251 21.8184 79.1455 21.8945C79.04 21.9648 78.9082 22 78.75 22H77.9238C77.5898 22 77.3643 21.9326 77.2471 21.7979C77.1299 21.6572 77.0713 21.4551 77.0713 21.1914V16.1816C77.0713 15.7129 76.998 15.3789 76.8516 15.1797C76.7109 14.9746 76.4385 14.8721 76.0342 14.8721C75.5068 14.8721 75.0439 15.0742 74.6455 15.4785C74.2471 15.877 74.0479 16.4365 74.0479 17.1572V21.1914C74.0479 21.7305 73.7783 22 73.2393 22H72.4307C71.8682 22 71.5869 21.7305 71.5869 21.1914Z" fill="white"/>
<path d="M86.6514 19.5303C86.6514 19.0615 86.7891 18.6543 87.0645 18.3086C87.3457 17.9629 87.6797 17.6934 88.0664 17.5C88.459 17.3066 88.9219 17.1543 89.4551 17.043C89.9883 16.9258 90.4482 16.8496 90.835 16.8145C91.2275 16.7793 91.623 16.7617 92.0215 16.7617V16.3838C92.0215 15.8682 91.9365 15.4609 91.7666 15.1621C91.5967 14.8633 91.2539 14.7139 90.7383 14.7139C90.2695 14.7139 89.8418 14.7783 89.4551 14.9072C89.0742 15.0303 88.79 15.1709 88.6025 15.3291C88.4209 15.4814 88.248 15.625 88.084 15.7598C87.9258 15.8887 87.8086 15.9531 87.7324 15.9531L87.6621 15.9355L87.5918 15.8828C87.5566 15.8242 87.5244 15.6777 87.4951 15.4434C87.4658 15.209 87.4453 14.9951 87.4336 14.8018L87.4072 14.4941C87.4072 14.4355 87.4102 14.3916 87.416 14.3623C87.4277 14.333 87.4512 14.3008 87.4863 14.2656C87.5215 14.2246 87.5479 14.1982 87.5654 14.1865C87.583 14.1748 87.6328 14.1514 87.7148 14.1162C87.8027 14.0811 87.8701 14.0518 87.917 14.0283C88.7783 13.6416 89.7188 13.4482 90.7383 13.4482C92.1035 13.4482 93.0645 13.7061 93.6211 14.2217C94.1836 14.7373 94.4648 15.4814 94.4648 16.4541V21.1914C94.4648 21.7305 94.1953 22 93.6562 22H92.7949C92.5312 22 92.3408 21.9297 92.2236 21.7891C92.1123 21.6426 92.0566 21.4727 92.0566 21.2793C91.2656 21.8887 90.3398 22.1963 89.2793 22.2021C88.4766 22.2021 87.8379 21.9268 87.3633 21.376C86.8887 20.8193 86.6514 20.2041 86.6514 19.5303ZM89.0156 19.5303C89.0156 19.876 89.1299 20.1895 89.3584 20.4707C89.5869 20.7461 89.8857 20.8838 90.2549 20.8838C90.665 20.8838 91.0605 20.7549 91.4414 20.4971C91.8281 20.2393 92.0215 19.8174 92.0215 19.2314V17.8252C91.6523 17.8604 91.333 17.8984 91.0635 17.9395C90.7998 17.9805 90.4863 18.0596 90.123 18.1768C89.7656 18.2881 89.4902 18.4609 89.2969 18.6953C89.1094 18.9297 89.0156 19.208 89.0156 19.5303Z" fill="white"/>
<path d="M96.126 21.1035C96.126 21.0566 96.1992 20.6348 96.3457 19.8379C96.3809 19.5625 96.4658 19.4248 96.6006 19.4248C96.6592 19.4248 96.7998 19.5361 97.0225 19.7588C97.2451 19.9814 97.5703 20.207 97.998 20.4355C98.4316 20.6641 98.9297 20.7783 99.4922 20.7783C100.43 20.7783 100.898 20.459 100.898 19.8203C100.898 19.4863 100.755 19.2432 100.468 19.0908C100.181 18.9326 99.7588 18.8096 99.2021 18.7217C98.6514 18.6279 98.2822 18.5459 98.0947 18.4756C97.626 18.2939 97.1953 18.0068 96.8027 17.6143C96.416 17.2158 96.2227 16.6914 96.2227 16.041C96.2227 14.3594 97.2305 13.4951 99.2461 13.4482H99.7119C100.479 13.46 101.212 13.6094 101.909 13.8965C102.091 13.9668 102.208 14.0283 102.261 14.0811C102.313 14.1279 102.34 14.2129 102.34 14.3359C102.34 14.4062 102.281 14.7842 102.164 15.4697C102.117 15.6514 102.044 15.7393 101.944 15.7334C101.862 15.7334 101.722 15.6543 101.522 15.4961C101.323 15.332 101.036 15.1709 100.661 15.0127C100.292 14.8486 99.8496 14.7666 99.334 14.7666C98.4434 14.7666 97.998 15.0537 97.998 15.6279C97.998 15.9385 98.165 16.167 98.499 16.3135C98.8389 16.4541 99.293 16.5771 99.8613 16.6826C100.436 16.7822 100.854 16.9053 101.118 17.0518C101.347 17.1572 101.561 17.2949 101.76 17.4648C101.965 17.6348 102.173 17.9043 102.384 18.2734C102.595 18.6367 102.7 19.0381 102.7 19.4775C102.7 20.4854 102.41 21.1914 101.83 21.5957C101.256 22 100.465 22.2021 99.457 22.2021C98.209 22.2021 97.1367 21.9121 96.2402 21.332L96.1699 21.2441C96.1406 21.1738 96.126 21.127 96.126 21.1035Z" fill="white"/>
<path d="M103.544 14.4062C103.544 13.9727 103.808 13.7559 104.335 13.7559H104.766V12.209C104.766 11.6699 105.056 11.4004 105.636 11.4004H106.277C106.816 11.4004 107.086 11.6699 107.086 12.209V13.7559H108.729C108.946 13.7559 109.119 13.8057 109.248 13.9053C109.383 13.999 109.465 14.0869 109.494 14.1689C109.523 14.251 109.538 14.3359 109.538 14.4238C109.538 14.5059 109.523 14.5908 109.494 14.6787C109.465 14.7607 109.386 14.8486 109.257 14.9424C109.134 15.0303 108.97 15.0742 108.765 15.0742H107.086V18.6689C107.086 18.7275 107.083 18.8066 107.077 18.9062C107.071 19 107.068 19.0762 107.068 19.1348C107.068 19.7734 107.127 20.21 107.244 20.4443C107.367 20.6787 107.561 20.7959 107.824 20.7959C108.158 20.7959 108.507 20.6904 108.87 20.4795C109.233 20.2686 109.427 20.1631 109.45 20.1631C109.532 20.1631 109.605 20.248 109.67 20.418C109.74 20.582 109.793 20.749 109.828 20.9189L109.863 21.1562C109.863 21.3848 109.488 21.6162 108.738 21.8506C107.988 22.085 107.271 22.2021 106.585 22.2021C105.706 22.2021 105.138 21.7686 104.88 20.9014C104.774 20.5439 104.719 19.999 104.713 19.2666V15.0742H104.335C103.808 15.0742 103.544 14.8516 103.544 14.4062Z" fill="white"/>
<path d="M110.979 17.8076C110.979 16.3428 111.363 15.25 112.131 14.5293C112.904 13.8086 113.962 13.4482 115.304 13.4482C116.024 13.4482 116.64 13.5596 117.149 13.7822C117.659 14.0049 118.049 14.3125 118.318 14.7051C118.588 15.0918 118.778 15.502 118.89 15.9355C119.007 16.3691 119.065 16.8496 119.065 17.377C119.065 17.8926 118.802 18.1504 118.274 18.1504H113.309C113.355 19.9727 114.117 20.8838 115.594 20.8838C116.121 20.8838 116.602 20.7988 117.035 20.6289C117.475 20.4531 117.832 20.2598 118.107 20.0488C118.389 19.8379 118.553 19.7266 118.6 19.7148H118.67L118.758 19.75C118.816 19.8086 118.86 19.9434 118.89 20.1543C118.925 20.3652 118.942 20.5615 118.942 20.7432L118.96 21.0068C118.96 21.165 118.863 21.2969 118.67 21.4023C117.744 21.9297 116.707 22.1963 115.559 22.2021C114.059 22.2021 112.919 21.8301 112.14 21.0859C111.366 20.3418 110.979 19.249 110.979 17.8076ZM113.326 16.9814H117.053C117.018 16.2842 116.88 15.7422 116.64 15.3555C116.399 14.9629 115.954 14.7666 115.304 14.7666C114.132 14.7666 113.473 15.5049 113.326 16.9814Z" fill="white"/>
<path d="M120.718 21.2266V14.4766C120.718 14.1309 120.791 13.9111 120.938 13.8174C121.09 13.7178 121.292 13.668 121.544 13.668H122.142C122.464 13.668 122.704 13.7441 122.862 13.8965C122.944 13.9902 122.991 14.0869 123.003 14.1865C123.015 14.2861 123.026 14.5615 123.038 15.0127C123.325 14.6143 123.671 14.2979 124.075 14.0635C124.485 13.8232 124.808 13.6797 125.042 13.6328C125.276 13.5801 125.484 13.5537 125.666 13.5537H125.684C125.842 13.5537 125.941 13.5859 125.982 13.6504C126.023 13.709 126.044 13.8115 126.044 13.958V14.96C126.044 15.0947 126.015 15.2031 125.956 15.2852C125.886 15.3438 125.728 15.3906 125.481 15.4258C125.235 15.4551 125.016 15.499 124.822 15.5576C124.412 15.7041 124.058 15.9268 123.759 16.2256C123.46 16.5244 123.267 16.8701 123.179 17.2627C123.144 17.4209 123.126 17.6494 123.126 17.9482V21.1035C123.126 21.3555 123.108 21.5195 123.073 21.5957C123.038 21.6719 122.947 21.7715 122.801 21.8945C122.654 21.9648 122.487 22 122.3 22H121.526C121.204 22 120.987 21.9297 120.876 21.7891C120.771 21.6426 120.718 21.4551 120.718 21.2266Z" fill="white"/>
<path d="M36.7031 10.627V10.4775C36.7031 10.1553 36.7676 9.93262 36.8965 9.80957C37.0312 9.68066 37.2598 9.61621 37.582 9.61621H47.5928C47.9385 9.61621 48.1699 9.68359 48.2871 9.81836C48.4102 9.94727 48.4717 10.167 48.4717 10.4775V10.627C48.4717 10.9023 48.4189 11.1074 48.3135 11.2422C48.2139 11.3711 48.1113 11.4443 48.0059 11.4619C47.9004 11.4795 47.7393 11.4883 47.5225 11.4883C47.2588 11.4883 46.6523 11.4795 45.7031 11.4619C44.7539 11.4443 44.1475 11.4355 43.8838 11.4355V21.1387C43.8838 21.4609 43.8223 21.6865 43.6992 21.8154C43.582 21.9385 43.3564 22 43.0225 22H42.1699C41.8359 22 41.6074 21.9385 41.4844 21.8154C41.3672 21.6865 41.3086 21.4609 41.3086 21.1387V11.4355C39.3984 11.4707 38.1797 11.4883 37.6523 11.4883C37.4824 11.4883 37.3594 11.4824 37.2832 11.4707C37.207 11.459 37.1133 11.4297 37.002 11.3828C36.8965 11.3301 36.8203 11.2422 36.7734 11.1191C36.7266 10.9961 36.7031 10.832 36.7031 10.627Z" stroke="black" stroke-width="4" mask="url(#path-10-outside-1)"/>
<path d="M48.085 17.8076C48.085 16.3428 48.4688 15.25 49.2363 14.5293C50.0098 13.8086 51.0674 13.4482 52.4092 13.4482C53.1299 13.4482 53.7451 13.5596 54.2549 13.7822C54.7646 14.0049 55.1543 14.3125 55.4238 14.7051C55.6934 15.0918 55.8838 15.502 55.9951 15.9355C56.1123 16.3691 56.1709 16.8496 56.1709 17.377C56.1709 17.8926 55.9072 18.1504 55.3799 18.1504H50.4141C50.4609 19.9727 51.2227 20.8838 52.6992 20.8838C53.2266 20.8838 53.707 20.7988 54.1406 20.6289C54.5801 20.4531 54.9375 20.2598 55.2129 20.0488C55.4941 19.8379 55.6582 19.7266 55.7051 19.7148H55.7754L55.8633 19.75C55.9219 19.8086 55.9658 19.9434 55.9951 20.1543C56.0303 20.3652 56.0479 20.5615 56.0479 20.7432L56.0654 21.0068C56.0654 21.165 55.9688 21.2969 55.7754 21.4023C54.8496 21.9297 53.8125 22.1963 52.6641 22.2021C51.1641 22.2021 50.0244 21.8301 49.2451 21.0859C48.4717 20.3418 48.085 19.249 48.085 17.8076ZM50.4316 16.9814H54.1582C54.123 16.2842 53.9854 15.7422 53.7451 15.3555C53.5049 14.9629 53.0596 14.7666 52.4092 14.7666C51.2373 14.7666 50.5781 15.5049 50.4316 16.9814Z" stroke="black" stroke-width="4" mask="url(#path-10-outside-1)"/>
<path d="M57.8232 21.1914V9.85352C57.8232 9.29102 58.0752 9.00684 58.5791 9.00098C58.5791 9.00098 58.8545 9.00098 59.4053 9.00098C59.9561 9.00098 60.2314 9.27344 60.2314 9.81836V21.1211C60.2314 21.2676 60.2256 21.3818 60.2139 21.4639C60.2021 21.5459 60.1729 21.6338 60.126 21.7275C60.0791 21.8154 59.9971 21.8799 59.8799 21.9209C59.7686 21.9619 59.6162 21.9883 59.4229 22H58.6846C58.4092 22 58.1953 21.9473 58.043 21.8418C57.8965 21.7305 57.8232 21.5137 57.8232 21.1914Z" stroke="black" stroke-width="4" mask="url(#path-10-outside-1)"/>
<path d="M61.8662 17.8076C61.8662 16.3428 62.25 15.25 63.0176 14.5293C63.791 13.8086 64.8486 13.4482 66.1904 13.4482C66.9111 13.4482 67.5264 13.5596 68.0361 13.7822C68.5459 14.0049 68.9355 14.3125 69.2051 14.7051C69.4746 15.0918 69.665 15.502 69.7764 15.9355C69.8936 16.3691 69.9521 16.8496 69.9521 17.377C69.9521 17.8926 69.6885 18.1504 69.1611 18.1504H64.1953C64.2422 19.9727 65.0039 20.8838 66.4805 20.8838C67.0078 20.8838 67.4883 20.7988 67.9219 20.6289C68.3613 20.4531 68.7188 20.2598 68.9941 20.0488C69.2754 19.8379 69.4395 19.7266 69.4863 19.7148H69.5566L69.6445 19.75C69.7031 19.8086 69.7471 19.9434 69.7764 20.1543C69.8115 20.3652 69.8291 20.5615 69.8291 20.7432L69.8467 21.0068C69.8467 21.165 69.75 21.2969 69.5566 21.4023C68.6309 21.9297 67.5938 22.1963 66.4453 22.2021C64.9453 22.2021 63.8057 21.8301 63.0264 21.0859C62.2529 20.3418 61.8662 19.249 61.8662 17.8076ZM64.2129 16.9814H67.9395C67.9043 16.2842 67.7666 15.7422 67.5264 15.3555C67.2861 14.9629 66.8408 14.7666 66.1904 14.7666C65.0186 14.7666 64.3594 15.5049 64.2129 16.9814Z" stroke="black" stroke-width="4" mask="url(#path-10-outside-1)"/>
<path d="M71.5869 21.1914V14.459C71.5869 13.9316 71.8564 13.668 72.3955 13.668H73.1162C73.2334 13.668 73.3242 13.6738 73.3887 13.6855C73.459 13.6973 73.5439 13.7236 73.6436 13.7646C73.749 13.8057 73.8252 13.8848 73.8721 14.002C73.9189 14.1133 73.9424 14.2598 73.9424 14.4414V14.8018C74.1709 14.585 74.3496 14.4209 74.4785 14.3096C74.6133 14.1924 74.915 14.0371 75.3838 13.8438C75.8525 13.6504 76.3506 13.5537 76.8779 13.5537C77.5869 13.5537 78.1348 13.6592 78.5215 13.8701C78.9141 14.0811 79.2012 14.4209 79.3828 14.8896C80.127 13.999 81.123 13.5537 82.3711 13.5537C82.8867 13.5537 83.3203 13.6182 83.6719 13.7471C84.0234 13.8701 84.2871 14.0137 84.4629 14.1777C84.6387 14.3418 84.7705 14.5762 84.8584 14.8809C84.9521 15.1855 85.0049 15.4375 85.0166 15.6367C85.0283 15.8359 85.0342 16.1143 85.0342 16.4717V21.1914C85.0342 21.4551 84.9756 21.6572 84.8584 21.7979C84.7471 21.9326 84.5273 22 84.1992 22H83.4082C83.3145 22 83.2266 21.9941 83.1445 21.9824C83.0684 21.9707 83.0039 21.9531 82.9512 21.9297C82.8984 21.9062 82.8545 21.8799 82.8193 21.8506C82.7842 21.8154 82.749 21.7773 82.7139 21.7363C82.6846 21.6953 82.6611 21.6602 82.6436 21.6309C82.626 21.6016 82.6143 21.5576 82.6084 21.499C82.6025 21.4346 82.5967 21.3936 82.5908 21.376C82.585 21.3584 82.582 21.3203 82.582 21.2617C82.582 21.2031 82.582 21.168 82.582 21.1562V16.2607C82.582 16.0322 82.5762 15.8594 82.5645 15.7422C82.5527 15.6191 82.5146 15.4814 82.4502 15.3291C82.3857 15.1709 82.2773 15.0566 82.125 14.9863C81.9727 14.9102 81.7705 14.8721 81.5186 14.8721C81.0264 14.8721 80.6191 15.0244 80.2969 15.3291C79.9746 15.6338 79.752 15.9795 79.6289 16.3662C79.5703 16.5713 79.541 16.8818 79.541 17.2979V21.0244C79.541 21.0479 79.541 21.083 79.541 21.1299C79.541 21.1709 79.5264 21.25 79.4971 21.3672C79.4678 21.4785 79.4268 21.5752 79.374 21.6572C79.3271 21.7393 79.251 21.8184 79.1455 21.8945C79.04 21.9648 78.9082 22 78.75 22H77.9238C77.5898 22 77.3643 21.9326 77.2471 21.7979C77.1299 21.6572 77.0713 21.4551 77.0713 21.1914V16.1816C77.0713 15.7129 76.998 15.3789 76.8516 15.1797C76.7109 14.9746 76.4385 14.8721 76.0342 14.8721C75.5068 14.8721 75.0439 15.0742 74.6455 15.4785C74.2471 15.877 74.0479 16.4365 74.0479 17.1572V21.1914C74.0479 21.7305 73.7783 22 73.2393 22H72.4307C71.8682 22 71.5869 21.7305 71.5869 21.1914Z" stroke="black" stroke-width="4" mask="url(#path-10-outside-1)"/>
<path d="M86.6514 19.5303C86.6514 19.0615 86.7891 18.6543 87.0645 18.3086C87.3457 17.9629 87.6797 17.6934 88.0664 17.5C88.459 17.3066 88.9219 17.1543 89.4551 17.043C89.9883 16.9258 90.4482 16.8496 90.835 16.8145C91.2275 16.7793 91.623 16.7617 92.0215 16.7617V16.3838C92.0215 15.8682 91.9365 15.4609 91.7666 15.1621C91.5967 14.8633 91.2539 14.7139 90.7383 14.7139C90.2695 14.7139 89.8418 14.7783 89.4551 14.9072C89.0742 15.0303 88.79 15.1709 88.6025 15.3291C88.4209 15.4814 88.248 15.625 88.084 15.7598C87.9258 15.8887 87.8086 15.9531 87.7324 15.9531L87.6621 15.9355L87.5918 15.8828C87.5566 15.8242 87.5244 15.6777 87.4951 15.4434C87.4658 15.209 87.4453 14.9951 87.4336 14.8018L87.4072 14.4941C87.4072 14.4355 87.4102 14.3916 87.416 14.3623C87.4277 14.333 87.4512 14.3008 87.4863 14.2656C87.5215 14.2246 87.5479 14.1982 87.5654 14.1865C87.583 14.1748 87.6328 14.1514 87.7148 14.1162C87.8027 14.0811 87.8701 14.0518 87.917 14.0283C88.7783 13.6416 89.7188 13.4482 90.7383 13.4482C92.1035 13.4482 93.0645 13.7061 93.6211 14.2217C94.1836 14.7373 94.4648 15.4814 94.4648 16.4541V21.1914C94.4648 21.7305 94.1953 22 93.6562 22H92.7949C92.5312 22 92.3408 21.9297 92.2236 21.7891C92.1123 21.6426 92.0566 21.4727 92.0566 21.2793C91.2656 21.8887 90.3398 22.1963 89.2793 22.2021C88.4766 22.2021 87.8379 21.9268 87.3633 21.376C86.8887 20.8193 86.6514 20.2041 86.6514 19.5303ZM89.0156 19.5303C89.0156 19.876 89.1299 20.1895 89.3584 20.4707C89.5869 20.7461 89.8857 20.8838 90.2549 20.8838C90.665 20.8838 91.0605 20.7549 91.4414 20.4971C91.8281 20.2393 92.0215 19.8174 92.0215 19.2314V17.8252C91.6523 17.8604 91.333 17.8984 91.0635 17.9395C90.7998 17.9805 90.4863 18.0596 90.123 18.1768C89.7656 18.2881 89.4902 18.4609 89.2969 18.6953C89.1094 18.9297 89.0156 19.208 89.0156 19.5303Z" stroke="black" stroke-width="4" mask="url(#path-10-outside-1)"/>
<path d="M96.126 21.1035C96.126 21.0566 96.1992 20.6348 96.3457 19.8379C96.3809 19.5625 96.4658 19.4248 96.6006 19.4248C96.6592 19.4248 96.7998 19.5361 97.0225 19.7588C97.2451 19.9814 97.5703 20.207 97.998 20.4355C98.4316 20.6641 98.9297 20.7783 99.4922 20.7783C100.43 20.7783 100.898 20.459 100.898 19.8203C100.898 19.4863 100.755 19.2432 100.468 19.0908C100.181 18.9326 99.7588 18.8096 99.2021 18.7217C98.6514 18.6279 98.2822 18.5459 98.0947 18.4756C97.626 18.2939 97.1953 18.0068 96.8027 17.6143C96.416 17.2158 96.2227 16.6914 96.2227 16.041C96.2227 14.3594 97.2305 13.4951 99.2461 13.4482H99.7119C100.479 13.46 101.212 13.6094 101.909 13.8965C102.091 13.9668 102.208 14.0283 102.261 14.0811C102.313 14.1279 102.34 14.2129 102.34 14.3359C102.34 14.4062 102.281 14.7842 102.164 15.4697C102.117 15.6514 102.044 15.7393 101.944 15.7334C101.862 15.7334 101.722 15.6543 101.522 15.4961C101.323 15.332 101.036 15.1709 100.661 15.0127C100.292 14.8486 99.8496 14.7666 99.334 14.7666C98.4434 14.7666 97.998 15.0537 97.998 15.6279C97.998 15.9385 98.165 16.167 98.499 16.3135C98.8389 16.4541 99.293 16.5771 99.8613 16.6826C100.436 16.7822 100.854 16.9053 101.118 17.0518C101.347 17.1572 101.561 17.2949 101.76 17.4648C101.965 17.6348 102.173 17.9043 102.384 18.2734C102.595 18.6367 102.7 19.0381 102.7 19.4775C102.7 20.4854 102.41 21.1914 101.83 21.5957C101.256 22 100.465 22.2021 99.457 22.2021C98.209 22.2021 97.1367 21.9121 96.2402 21.332L96.1699 21.2441C96.1406 21.1738 96.126 21.127 96.126 21.1035Z" stroke="black" stroke-width="4" mask="url(#path-10-outside-1)"/>
<path d="M103.544 14.4062C103.544 13.9727 103.808 13.7559 104.335 13.7559H104.766V12.209C104.766 11.6699 105.056 11.4004 105.636 11.4004H106.277C106.816 11.4004 107.086 11.6699 107.086 12.209V13.7559H108.729C108.946 13.7559 109.119 13.8057 109.248 13.9053C109.383 13.999 109.465 14.0869 109.494 14.1689C109.523 14.251 109.538 14.3359 109.538 14.4238C109.538 14.5059 109.523 14.5908 109.494 14.6787C109.465 14.7607 109.386 14.8486 109.257 14.9424C109.134 15.0303 108.97 15.0742 108.765 15.0742H107.086V18.6689C107.086 18.7275 107.083 18.8066 107.077 18.9062C107.071 19 107.068 19.0762 107.068 19.1348C107.068 19.7734 107.127 20.21 107.244 20.4443C107.367 20.6787 107.561 20.7959 107.824 20.7959C108.158 20.7959 108.507 20.6904 108.87 20.4795C109.233 20.2686 109.427 20.1631 109.45 20.1631C109.532 20.1631 109.605 20.248 109.67 20.418C109.74 20.582 109.793 20.749 109.828 20.9189L109.863 21.1562C109.863 21.3848 109.488 21.6162 108.738 21.8506C107.988 22.085 107.271 22.2021 106.585 22.2021C105.706 22.2021 105.138 21.7686 104.88 20.9014C104.774 20.5439 104.719 19.999 104.713 19.2666V15.0742H104.335C103.808 15.0742 103.544 14.8516 103.544 14.4062Z" stroke="black" stroke-width="4" mask="url(#path-10-outside-1)"/>
<path d="M110.979 17.8076C110.979 16.3428 111.363 15.25 112.131 14.5293C112.904 13.8086 113.962 13.4482 115.304 13.4482C116.024 13.4482 116.64 13.5596 117.149 13.7822C117.659 14.0049 118.049 14.3125 118.318 14.7051C118.588 15.0918 118.778 15.502 118.89 15.9355C119.007 16.3691 119.065 16.8496 119.065 17.377C119.065 17.8926 118.802 18.1504 118.274 18.1504H113.309C113.355 19.9727 114.117 20.8838 115.594 20.8838C116.121 20.8838 116.602 20.7988 117.035 20.6289C117.475 20.4531 117.832 20.2598 118.107 20.0488C118.389 19.8379 118.553 19.7266 118.6 19.7148H118.67L118.758 19.75C118.816 19.8086 118.86 19.9434 118.89 20.1543C118.925 20.3652 118.942 20.5615 118.942 20.7432L118.96 21.0068C118.96 21.165 118.863 21.2969 118.67 21.4023C117.744 21.9297 116.707 22.1963 115.559 22.2021C114.059 22.2021 112.919 21.8301 112.14 21.0859C111.366 20.3418 110.979 19.249 110.979 17.8076ZM113.326 16.9814H117.053C117.018 16.2842 116.88 15.7422 116.64 15.3555C116.399 14.9629 115.954 14.7666 115.304 14.7666C114.132 14.7666 113.473 15.5049 113.326 16.9814Z" stroke="black" stroke-width="4" mask="url(#path-10-outside-1)"/>
<path d="M120.718 21.2266V14.4766C120.718 14.1309 120.791 13.9111 120.938 13.8174C121.09 13.7178 121.292 13.668 121.544 13.668H122.142C122.464 13.668 122.704 13.7441 122.862 13.8965C122.944 13.9902 122.991 14.0869 123.003 14.1865C123.015 14.2861 123.026 14.5615 123.038 15.0127C123.325 14.6143 123.671 14.2979 124.075 14.0635C124.485 13.8232 124.808 13.6797 125.042 13.6328C125.276 13.5801 125.484 13.5537 125.666 13.5537H125.684C125.842 13.5537 125.941 13.5859 125.982 13.6504C126.023 13.709 126.044 13.8115 126.044 13.958V14.96C126.044 15.0947 126.015 15.2031 125.956 15.2852C125.886 15.3438 125.728 15.3906 125.481 15.4258C125.235 15.4551 125.016 15.499 124.822 15.5576C124.412 15.7041 124.058 15.9268 123.759 16.2256C123.46 16.5244 123.267 16.8701 123.179 17.2627C123.144 17.4209 123.126 17.6494 123.126 17.9482V21.1035C123.126 21.3555 123.108 21.5195 123.073 21.5957C123.038 21.6719 122.947 21.7715 122.801 21.8945C122.654 21.9648 122.487 22 122.3 22H121.526C121.204 22 120.987 21.9297 120.876 21.7891C120.771 21.6426 120.718 21.4551 120.718 21.2266Z" stroke="black" stroke-width="4" mask="url(#path-10-outside-1)"/>
<defs>
<clipPath id="clip0">
<rect width="32" height="32" fill="white"/>
</clipPath>
</defs>
</svg>
