<svg width="137" height="33" viewBox="0 0 137 33" fill="none" xmlns="http://www.w3.org/2000/svg">
<g clip-path="url(#clip0)" filter="url(#filter0_d)">
<mask id="mask0" mask-type="alpha" maskUnits="userSpaceOnUse" x="3" y="0" width="34" height="29">
<ellipse cx="20" cy="14.5" rx="17" ry="14.5" fill="black"/>
</mask>
<g mask="url(#mask0)">
<path d="M20.0888 57.0556C20.3224 57.0556 20.5463 56.9631 20.7114 56.7986C20.8766 56.6341 20.9693 56.411 20.9693 56.1784V52.3541L30.6547 45.8106L33.2962 52.1348C33.3381 52.2452 33.4021 52.346 33.4841 52.4312C33.5661 52.5164 33.6646 52.5842 33.7735 52.6306C33.8825 52.677 33.9998 52.701 34.1183 52.7011C34.2367 52.7013 34.3541 52.6776 34.4632 52.6316C34.5723 52.5855 34.6709 52.518 34.7532 52.433C34.8354 52.348 34.8997 52.2474 34.942 52.1371C34.9843 52.0269 35.0038 51.9092 34.9994 51.7913C34.995 51.6733 34.9667 51.5574 34.9163 51.4506L21.3215 19.1105C21.2171 18.8711 21.0448 18.6673 20.8259 18.524C20.607 18.3807 20.3508 18.304 20.0888 18.3035C19.8263 18.3074 19.5709 18.3886 19.3547 18.5369C19.1384 18.6852 18.9711 18.8939 18.8738 19.1368L6.06266 51.4682C6.01977 51.5753 5.99851 51.6898 6.00008 51.8051C6.00166 51.9204 6.02604 52.0343 6.07184 52.1402C6.11763 52.2461 6.18395 52.342 6.26698 52.4223C6.35001 52.5027 6.44814 52.5659 6.55574 52.6085C6.65945 52.6493 6.77 52.6701 6.88152 52.6699C7.05786 52.67 7.23019 52.6174 7.37619 52.5189C7.52219 52.4204 7.63512 52.2805 7.70037 52.1173L10.0777 46.1176L19.2083 52.2576V56.1784C19.2083 56.411 19.3011 56.6341 19.4662 56.7986C19.6314 56.9631 19.8553 57.0556 20.0888 57.0556ZM20.9693 33.9341L24.6322 31.4694L26.8246 36.6445L20.9693 40.5829V33.9341ZM19.2083 40.4952L13.7581 36.8287L15.8449 31.5659L19.2083 33.8377V40.4952ZM20.9693 50.2402V42.7055L27.5202 38.3198L29.9943 44.1879L20.9693 50.2402ZM23.9366 29.8642L20.9693 31.8115V22.8471L23.9366 29.8642ZM19.2083 23.0752V31.7237L16.5053 29.8642L19.2083 23.0752ZM10.7381 44.4423L13.0978 38.4953L19.2083 42.6091V50.1437L10.7381 44.4423Z" stroke="black" stroke-width="6"/>
<path d="M22.7303 14.0757C22.7303 13.5552 22.5754 13.0465 22.2851 12.6137C21.9949 12.181 21.5823 11.8437 21.0997 11.6446C20.617 11.4454 20.0859 11.3933 19.5735 11.4948C19.0611 11.5964 18.5904 11.847 18.221 12.215C17.8516 12.583 17.6 13.0519 17.4981 13.5623C17.3962 14.0728 17.4485 14.6019 17.6484 15.0827C17.8484 15.5635 18.1869 15.9745 18.6213 16.2636C19.0557 16.5528 19.5664 16.7071 20.0888 16.7071C20.7894 16.7071 21.4612 16.4299 21.9566 15.9364C22.452 15.4429 22.7303 14.7736 22.7303 14.0757ZM19.2083 14.0757C19.2083 13.9022 19.26 13.7326 19.3567 13.5884C19.4535 13.4441 19.591 13.3317 19.7519 13.2653C19.9128 13.1989 20.0898 13.1816 20.2606 13.2154C20.4314 13.2492 20.5883 13.3328 20.7114 13.4555C20.8346 13.5781 20.9184 13.7344 20.9524 13.9046C20.9864 14.0747 20.9689 14.2511 20.9023 14.4114C20.8356 14.5716 20.7228 14.7086 20.578 14.805C20.4332 14.9014 20.263 14.9528 20.0888 14.9528C19.8553 14.9528 19.6313 14.8604 19.4662 14.6959C19.3011 14.5314 19.2083 14.3083 19.2083 14.0757Z" stroke="black" stroke-width="6"/>
<path d="M24.8085 20.0139C24.9669 20.1447 25.1663 20.2161 25.372 20.2157C25.5014 20.2159 25.6292 20.1877 25.7463 20.1331C25.8635 20.0786 25.9672 19.9989 26.05 19.8999C27.2091 18.5172 27.8967 16.8031 28.0135 15.0055C28.1148 12.8715 27.4148 10.7765 26.05 9.12863C25.9005 8.9495 25.6858 8.83686 25.4529 8.81547C25.2201 8.79409 24.9883 8.86572 24.8085 9.0146C24.6287 9.16349 24.5156 9.37743 24.4941 9.60937C24.4727 9.84131 24.5446 10.0722 24.694 10.2514C25.7068 11.4427 26.2626 12.9532 26.2626 14.5143C26.2626 16.0754 25.7068 17.5859 24.694 18.7772C24.6199 18.8658 24.564 18.9681 24.5297 19.0783C24.4953 19.1885 24.4831 19.3043 24.4937 19.4192C24.5043 19.5341 24.5376 19.6458 24.5916 19.7478C24.6456 19.8499 24.7193 19.9403 24.8085 20.0139Z" stroke="black" stroke-width="6"/>
<path d="M29.3338 21.8559C29.4343 21.9139 29.5453 21.9515 29.6605 21.9666C29.7756 21.9817 29.8926 21.9739 30.0047 21.9438C30.1169 21.9136 30.2219 21.8616 30.3138 21.7909C30.4056 21.7201 30.4825 21.6319 30.5401 21.5314C31.7765 19.3979 32.4275 16.9778 32.4275 14.5143C32.4275 12.0507 31.7765 9.63062 30.5401 7.49715C30.4233 7.29476 30.2306 7.14687 30.0044 7.086C29.7782 7.02514 29.537 7.05629 29.3338 7.17261C29.1306 7.28892 28.9822 7.48088 28.9211 7.70623C28.86 7.93159 28.8913 8.1719 29.008 8.37429C30.0899 10.2411 30.6595 12.3587 30.6595 14.5143C30.6595 16.6699 30.0899 18.7875 29.008 20.6543C28.9498 20.7544 28.912 20.865 28.8969 20.9797C28.8818 21.0944 28.8896 21.2109 28.9199 21.3226C28.9501 21.4343 29.0023 21.539 29.0733 21.6305C29.1444 21.722 29.2329 21.7986 29.3338 21.8559Z" stroke="black" stroke-width="6"/>
<path d="M15.3782 9.01463C15.2892 8.94077 15.1865 8.88512 15.0759 8.85088C14.9653 8.81663 14.849 8.80445 14.7337 8.81504C14.6184 8.82564 14.5063 8.85879 14.4038 8.9126C14.3014 8.96642 14.2106 9.03984 14.1367 9.12865C12.7649 10.7731 12.0613 12.8698 12.1644 15.0055C12.2811 16.8032 12.9688 18.5173 14.1279 19.8999C14.2107 19.9989 14.3144 20.0786 14.4315 20.1332C14.5487 20.1877 14.6765 20.2159 14.8059 20.2157C15.0116 20.2161 15.211 20.1447 15.3694 20.014C15.4579 19.9397 15.5309 19.8488 15.5841 19.7464C15.6373 19.6441 15.6697 19.5323 15.6796 19.4174C15.6894 19.3025 15.6764 19.1869 15.6413 19.077C15.6062 18.9672 15.5497 18.8653 15.475 18.7772C14.4639 17.5851 13.9092 16.0749 13.9092 14.5143C13.9092 12.9537 14.4639 11.4434 15.475 10.2514C15.5502 10.1639 15.6073 10.0624 15.6431 9.95289C15.6789 9.84336 15.6927 9.72787 15.6838 9.61303C15.6748 9.49818 15.6431 9.38622 15.5907 9.28355C15.5383 9.18088 15.4661 9.08949 15.3782 9.01463Z" stroke="black" stroke-width="6"/>
<path d="M10.844 7.17263C10.6418 7.05827 10.4025 7.02822 10.1781 7.08902C9.95378 7.14982 9.76268 7.29654 9.64653 7.49717C8.41007 9.63064 7.75912 12.0508 7.75912 14.5143C7.75912 16.9778 8.41007 19.3979 9.64653 21.5314C9.70405 21.6319 9.78097 21.7201 9.87285 21.7909C9.96472 21.8616 10.0697 21.9136 10.1819 21.9438C10.294 21.9739 10.411 21.9817 10.5261 21.9666C10.6413 21.9516 10.7523 21.9139 10.8528 21.8559C10.9537 21.7986 11.0422 21.722 11.1133 21.6305C11.1843 21.539 11.2365 21.4343 11.2667 21.3226C11.297 21.211 11.3048 21.0944 11.2897 20.9797C11.2746 20.865 11.2368 20.7544 11.1786 20.6543C10.0967 18.7875 9.5271 16.6699 9.5271 14.5143C9.5271 12.3587 10.0967 10.2411 11.1786 8.37431C11.2364 8.27367 11.2737 8.16261 11.2882 8.04753C11.3027 7.93246 11.2941 7.81567 11.263 7.70392C11.2319 7.59216 11.1788 7.48766 11.1069 7.39647C11.035 7.30527 10.9456 7.22919 10.844 7.17263Z" stroke="black" stroke-width="6"/>
<rect x="13" y="12" width="13" height="7" fill="black"/>
<path d="M20.0888 56.9445C20.3224 56.9445 20.5463 56.8521 20.7114 56.6878C20.8766 56.5235 20.9693 56.3007 20.9693 56.0683V52.2482L30.6547 45.712L33.2962 52.0292C33.3381 52.1394 33.4021 52.2401 33.4841 52.3252C33.5661 52.4103 33.6646 52.4781 33.7735 52.5244C33.8825 52.5707 33.9998 52.5947 34.1182 52.5949C34.2367 52.595 34.3541 52.5714 34.4632 52.5254C34.5723 52.4794 34.6709 52.4119 34.7532 52.327C34.8354 52.2422 34.8997 52.1417 34.942 52.0315C34.9843 51.9214 35.0038 51.8039 34.9994 51.686C34.995 51.5682 34.9667 51.4525 34.9162 51.3458L21.3215 19.0415C21.2171 18.8025 21.0448 18.5989 20.8259 18.4557C20.607 18.3125 20.3508 18.236 20.0888 18.2355C19.8263 18.2393 19.5709 18.3204 19.3547 18.4686C19.1384 18.6167 18.9711 18.8252 18.8738 19.0678L6.06266 51.3633C6.01977 51.4703 5.99851 51.5846 6.00008 51.6998C6.00166 51.815 6.02604 51.9287 6.07184 52.0345C6.11763 52.1403 6.18395 52.2361 6.26698 52.3164C6.35001 52.3966 6.44814 52.4598 6.55574 52.5023C6.65945 52.5431 6.77 52.5639 6.88152 52.5636C7.05786 52.5638 7.23019 52.5113 7.37619 52.4129C7.52219 52.3144 7.63512 52.1747 7.70037 52.0116L10.0777 46.0187L19.2083 52.1518V56.0683C19.2083 56.3007 19.3011 56.5235 19.4662 56.6878C19.6314 56.8521 19.8553 56.9445 20.0888 56.9445ZM20.9693 33.8487L24.6322 31.3867L26.8246 36.5561L20.9693 40.4901V33.8487ZM19.2083 40.4025L13.7581 36.7401L15.8449 31.4831L19.2083 33.7524V40.4025ZM20.9693 50.1367V42.6104L27.5202 38.2296L29.9943 44.0911L20.9693 50.1367ZM23.9366 29.7833L20.9693 31.7284V22.774L23.9366 29.7833ZM19.2083 23.0018V31.6408L16.5052 29.7833L19.2083 23.0018ZM10.7381 44.3452L13.0978 38.4048L19.2083 42.514V50.0403L10.7381 44.3452Z" fill="white"/>
<path d="M22.7302 14.0123C22.7302 13.4925 22.5753 12.9843 22.285 12.552C21.9948 12.1198 21.5822 11.7829 21.0996 11.5839C20.6169 11.385 20.0858 11.3329 19.5734 11.4343C19.061 11.5358 18.5903 11.7861 18.2209 12.1537C17.8515 12.5213 17.5999 12.9897 17.498 13.4995C17.3961 14.0094 17.4484 14.5379 17.6483 15.0182C17.8483 15.4985 18.1868 15.909 18.6212 16.1978C19.0556 16.4867 19.5663 16.6408 20.0887 16.6408C20.7893 16.6408 21.4612 16.3639 21.9565 15.871C22.4519 15.378 22.7302 14.7095 22.7302 14.0123ZM19.2082 14.0123C19.2082 13.839 19.2599 13.6696 19.3566 13.5256C19.4534 13.3815 19.5909 13.2692 19.7518 13.2029C19.9127 13.1365 20.0897 13.1192 20.2605 13.153C20.4313 13.1868 20.5882 13.2703 20.7113 13.3928C20.8345 13.5153 20.9183 13.6714 20.9523 13.8414C20.9863 14.0114 20.9688 14.1875 20.9022 14.3476C20.8356 14.5077 20.7227 14.6446 20.5779 14.7408C20.4331 14.8371 20.2629 14.8885 20.0887 14.8885C19.8552 14.8885 19.6313 14.7962 19.4661 14.6319C19.301 14.4676 19.2082 14.2447 19.2082 14.0123Z" fill="white"/>
<path d="M24.8085 19.944C24.9669 20.0746 25.1663 20.1459 25.372 20.1455C25.5014 20.1457 25.6292 20.1176 25.7464 20.063C25.8635 20.0085 25.9672 19.929 26.05 19.8301C27.2091 18.449 27.8968 16.7368 28.0135 14.9411C28.1148 12.8095 27.4148 10.7168 26.05 9.07077C25.9005 8.89185 25.6858 8.77933 25.453 8.75796C25.2201 8.7366 24.9883 8.80815 24.8085 8.95687C24.6287 9.10559 24.5156 9.3193 24.4942 9.55098C24.4727 9.78266 24.5446 10.0133 24.6941 10.1923C25.7068 11.3822 26.2626 12.8911 26.2626 14.4504C26.2626 16.0098 25.7068 17.5186 24.6941 18.7086C24.6199 18.7971 24.5641 18.8994 24.5297 19.0094C24.4953 19.1195 24.4831 19.2352 24.4937 19.3499C24.5043 19.4647 24.5376 19.5762 24.5916 19.6782C24.6457 19.7801 24.7194 19.8704 24.8085 19.944Z" fill="white"/>
<path d="M29.3338 21.7839C29.4343 21.8419 29.5453 21.8794 29.6605 21.8945C29.7756 21.9096 29.8926 21.9018 30.0047 21.8717C30.1169 21.8415 30.2219 21.7896 30.3138 21.7189C30.4056 21.6482 30.4825 21.5602 30.5401 21.4598C31.7765 19.3287 32.4275 16.9112 32.4275 14.4504C32.4275 11.9896 31.7765 9.57221 30.5401 7.4411C30.4233 7.23894 30.2306 7.09121 30.0044 7.03041C29.7782 6.96962 29.537 7.00073 29.3338 7.11692C29.1306 7.23311 28.9822 7.42485 28.9211 7.64995C28.86 7.87506 28.8913 8.1151 29.008 8.31727C30.0899 10.182 30.6595 12.2972 30.6595 14.4504C30.6595 16.6036 30.0899 18.7189 29.008 20.5836C28.9498 20.6836 28.912 20.7941 28.8969 20.9086C28.8818 21.0232 28.8896 21.1397 28.9199 21.2512C28.9501 21.3628 29.0023 21.4673 29.0733 21.5587C29.1444 21.6502 29.2329 21.7267 29.3338 21.7839Z" fill="white"/>
<path d="M15.378 8.95691C15.289 8.88313 15.1863 8.82755 15.0757 8.79334C14.9651 8.75913 14.8488 8.74697 14.7335 8.75755C14.6182 8.76813 14.5061 8.80124 14.4037 8.855C14.3012 8.90875 14.2104 8.98209 14.1365 9.07081C12.7647 10.7134 12.0611 12.8078 12.1642 14.9411C12.281 16.7368 12.9686 18.449 14.1277 19.8301C14.2105 19.929 14.3142 20.0086 14.4313 20.0631C14.5485 20.1176 14.6763 20.1458 14.8057 20.1455C15.0114 20.1459 15.2108 20.0746 15.3692 19.944C15.4577 19.8699 15.5307 19.779 15.5839 19.6768C15.6371 19.5745 15.6696 19.4629 15.6794 19.3481C15.6892 19.2334 15.6762 19.1178 15.6411 19.0081C15.606 18.8984 15.5495 18.7966 15.4749 18.7086C14.4638 17.5179 13.909 16.0094 13.909 14.4505C13.909 12.8916 14.4638 11.383 15.4749 10.1923C15.55 10.1049 15.6071 10.0035 15.6429 9.89413C15.6788 9.78472 15.6926 9.66936 15.6836 9.55464C15.6746 9.43992 15.643 9.32809 15.5905 9.22553C15.5381 9.12297 15.4659 9.03169 15.378 8.95691Z" fill="white"/>
<path d="M10.8441 7.11695C10.642 7.00272 10.4026 6.9727 10.1783 7.03343C9.95393 7.09417 9.76284 7.24072 9.64669 7.44113C8.41022 9.57224 7.75928 11.9897 7.75928 14.4505C7.75928 16.9112 8.41022 19.3287 9.64669 21.4598C9.70421 21.5602 9.78112 21.6483 9.873 21.719C9.96488 21.7896 10.0699 21.8416 10.182 21.8717C10.2941 21.9018 10.4111 21.9096 10.5263 21.8945C10.6414 21.8795 10.7525 21.8419 10.853 21.784C10.9538 21.7267 11.0424 21.6502 11.1134 21.5588C11.1844 21.4673 11.2366 21.3628 11.2669 21.2513C11.2972 21.1397 11.305 21.0233 11.2898 20.9087C11.2747 20.7941 11.237 20.6836 11.1787 20.5836C10.0968 18.7189 9.52725 16.6036 9.52725 14.4505C9.52725 12.2973 10.0968 10.182 11.1787 8.3173C11.2366 8.21677 11.2738 8.10583 11.2883 7.99089C11.3028 7.87594 11.2943 7.75928 11.2632 7.64765C11.232 7.53602 11.179 7.43164 11.1071 7.34054C11.0351 7.24945 10.9458 7.17345 10.8441 7.11695Z" fill="white"/>
</g>
</g>
<g filter="url(#filter1_d)">
<mask id="path-10-outside-1" maskUnits="userSpaceOnUse" x="38.7031" y="7.00098" width="94" height="18" fill="black">
<rect fill="white" x="38.7031" y="7.00098" width="94" height="18"/>
<path d="M40.7031 10.627V10.4775C40.7031 10.1553 40.7676 9.93262 40.8965 9.80957C41.0312 9.68066 41.2598 9.61621 41.582 9.61621H51.5928C51.9385 9.61621 52.1699 9.68359 52.2871 9.81836C52.4102 9.94727 52.4717 10.167 52.4717 10.4775V10.627C52.4717 10.9023 52.4189 11.1074 52.3135 11.2422C52.2139 11.3711 52.1113 11.4443 52.0059 11.4619C51.9004 11.4795 51.7393 11.4883 51.5225 11.4883C51.2588 11.4883 50.6523 11.4795 49.7031 11.4619C48.7539 11.4443 48.1475 11.4355 47.8838 11.4355V21.1387C47.8838 21.4609 47.8223 21.6865 47.6992 21.8154C47.582 21.9385 47.3564 22 47.0225 22H46.1699C45.8359 22 45.6074 21.9385 45.4844 21.8154C45.3672 21.6865 45.3086 21.4609 45.3086 21.1387V11.4355C43.3984 11.4707 42.1797 11.4883 41.6523 11.4883C41.4824 11.4883 41.3594 11.4824 41.2832 11.4707C41.207 11.459 41.1133 11.4297 41.002 11.3828C40.8965 11.3301 40.8203 11.2422 40.7734 11.1191C40.7266 10.9961 40.7031 10.832 40.7031 10.627Z"/>
<path d="M52.085 17.8076C52.085 16.3428 52.4688 15.25 53.2363 14.5293C54.0098 13.8086 55.0674 13.4482 56.4092 13.4482C57.1299 13.4482 57.7451 13.5596 58.2549 13.7822C58.7646 14.0049 59.1543 14.3125 59.4238 14.7051C59.6934 15.0918 59.8838 15.502 59.9951 15.9355C60.1123 16.3691 60.1709 16.8496 60.1709 17.377C60.1709 17.8926 59.9072 18.1504 59.3799 18.1504H54.4141C54.4609 19.9727 55.2227 20.8838 56.6992 20.8838C57.2266 20.8838 57.707 20.7988 58.1406 20.6289C58.5801 20.4531 58.9375 20.2598 59.2129 20.0488C59.4941 19.8379 59.6582 19.7266 59.7051 19.7148H59.7754L59.8633 19.75C59.9219 19.8086 59.9658 19.9434 59.9951 20.1543C60.0303 20.3652 60.0479 20.5615 60.0479 20.7432L60.0654 21.0068C60.0654 21.165 59.9688 21.2969 59.7754 21.4023C58.8496 21.9297 57.8125 22.1963 56.6641 22.2021C55.1641 22.2021 54.0244 21.8301 53.2451 21.0859C52.4717 20.3418 52.085 19.249 52.085 17.8076ZM54.4316 16.9814H58.1582C58.123 16.2842 57.9854 15.7422 57.7451 15.3555C57.5049 14.9629 57.0596 14.7666 56.4092 14.7666C55.2373 14.7666 54.5781 15.5049 54.4316 16.9814Z"/>
<path d="M61.8232 21.1914V9.85352C61.8232 9.29102 62.0752 9.00684 62.5791 9.00098C62.5791 9.00098 62.8545 9.00098 63.4053 9.00098C63.9561 9.00098 64.2314 9.27344 64.2314 9.81836V21.1211C64.2314 21.2676 64.2256 21.3818 64.2139 21.4639C64.2021 21.5459 64.1729 21.6338 64.126 21.7275C64.0791 21.8154 63.9971 21.8799 63.8799 21.9209C63.7686 21.9619 63.6162 21.9883 63.4229 22H62.6846C62.4092 22 62.1953 21.9473 62.043 21.8418C61.8965 21.7305 61.8232 21.5137 61.8232 21.1914Z"/>
<path d="M65.8662 17.8076C65.8662 16.3428 66.25 15.25 67.0176 14.5293C67.791 13.8086 68.8486 13.4482 70.1904 13.4482C70.9111 13.4482 71.5264 13.5596 72.0361 13.7822C72.5459 14.0049 72.9355 14.3125 73.2051 14.7051C73.4746 15.0918 73.665 15.502 73.7764 15.9355C73.8936 16.3691 73.9521 16.8496 73.9521 17.377C73.9521 17.8926 73.6885 18.1504 73.1611 18.1504H68.1953C68.2422 19.9727 69.0039 20.8838 70.4805 20.8838C71.0078 20.8838 71.4883 20.7988 71.9219 20.6289C72.3613 20.4531 72.7188 20.2598 72.9941 20.0488C73.2754 19.8379 73.4395 19.7266 73.4863 19.7148H73.5566L73.6445 19.75C73.7031 19.8086 73.7471 19.9434 73.7764 20.1543C73.8115 20.3652 73.8291 20.5615 73.8291 20.7432L73.8467 21.0068C73.8467 21.165 73.75 21.2969 73.5566 21.4023C72.6309 21.9297 71.5938 22.1963 70.4453 22.2021C68.9453 22.2021 67.8057 21.8301 67.0264 21.0859C66.2529 20.3418 65.8662 19.249 65.8662 17.8076ZM68.2129 16.9814H71.9395C71.9043 16.2842 71.7666 15.7422 71.5264 15.3555C71.2861 14.9629 70.8408 14.7666 70.1904 14.7666C69.0186 14.7666 68.3594 15.5049 68.2129 16.9814Z"/>
<path d="M75.5869 21.1914V14.459C75.5869 13.9316 75.8564 13.668 76.3955 13.668H77.1162C77.2334 13.668 77.3242 13.6738 77.3887 13.6855C77.459 13.6973 77.5439 13.7236 77.6436 13.7646C77.749 13.8057 77.8252 13.8848 77.8721 14.002C77.9189 14.1133 77.9424 14.2598 77.9424 14.4414V14.8018C78.1709 14.585 78.3496 14.4209 78.4785 14.3096C78.6133 14.1924 78.915 14.0371 79.3838 13.8438C79.8525 13.6504 80.3506 13.5537 80.8779 13.5537C81.5869 13.5537 82.1348 13.6592 82.5215 13.8701C82.9141 14.0811 83.2012 14.4209 83.3828 14.8896C84.127 13.999 85.123 13.5537 86.3711 13.5537C86.8867 13.5537 87.3203 13.6182 87.6719 13.7471C88.0234 13.8701 88.2871 14.0137 88.4629 14.1777C88.6387 14.3418 88.7705 14.5762 88.8584 14.8809C88.9521 15.1855 89.0049 15.4375 89.0166 15.6367C89.0283 15.8359 89.0342 16.1143 89.0342 16.4717V21.1914C89.0342 21.4551 88.9756 21.6572 88.8584 21.7979C88.7471 21.9326 88.5273 22 88.1992 22H87.4082C87.3145 22 87.2266 21.9941 87.1445 21.9824C87.0684 21.9707 87.0039 21.9531 86.9512 21.9297C86.8984 21.9062 86.8545 21.8799 86.8193 21.8506C86.7842 21.8154 86.749 21.7773 86.7139 21.7363C86.6846 21.6953 86.6611 21.6602 86.6436 21.6309C86.626 21.6016 86.6143 21.5576 86.6084 21.499C86.6025 21.4346 86.5967 21.3936 86.5908 21.376C86.585 21.3584 86.582 21.3203 86.582 21.2617C86.582 21.2031 86.582 21.168 86.582 21.1562V16.2607C86.582 16.0322 86.5762 15.8594 86.5645 15.7422C86.5527 15.6191 86.5146 15.4814 86.4502 15.3291C86.3857 15.1709 86.2773 15.0566 86.125 14.9863C85.9727 14.9102 85.7705 14.8721 85.5186 14.8721C85.0264 14.8721 84.6191 15.0244 84.2969 15.3291C83.9746 15.6338 83.752 15.9795 83.6289 16.3662C83.5703 16.5713 83.541 16.8818 83.541 17.2979V21.0244C83.541 21.0479 83.541 21.083 83.541 21.1299C83.541 21.1709 83.5264 21.25 83.4971 21.3672C83.4678 21.4785 83.4268 21.5752 83.374 21.6572C83.3271 21.7393 83.251 21.8184 83.1455 21.8945C83.04 21.9648 82.9082 22 82.75 22H81.9238C81.5898 22 81.3643 21.9326 81.2471 21.7979C81.1299 21.6572 81.0713 21.4551 81.0713 21.1914V16.1816C81.0713 15.7129 80.998 15.3789 80.8516 15.1797C80.7109 14.9746 80.4385 14.8721 80.0342 14.8721C79.5068 14.8721 79.0439 15.0742 78.6455 15.4785C78.2471 15.877 78.0479 16.4365 78.0479 17.1572V21.1914C78.0479 21.7305 77.7783 22 77.2393 22H76.4307C75.8682 22 75.5869 21.7305 75.5869 21.1914Z"/>
<path d="M90.6514 19.5303C90.6514 19.0615 90.7891 18.6543 91.0645 18.3086C91.3457 17.9629 91.6797 17.6934 92.0664 17.5C92.459 17.3066 92.9219 17.1543 93.4551 17.043C93.9883 16.9258 94.4482 16.8496 94.835 16.8145C95.2275 16.7793 95.623 16.7617 96.0215 16.7617V16.3838C96.0215 15.8682 95.9365 15.4609 95.7666 15.1621C95.5967 14.8633 95.2539 14.7139 94.7383 14.7139C94.2695 14.7139 93.8418 14.7783 93.4551 14.9072C93.0742 15.0303 92.79 15.1709 92.6025 15.3291C92.4209 15.4814 92.248 15.625 92.084 15.7598C91.9258 15.8887 91.8086 15.9531 91.7324 15.9531L91.6621 15.9355L91.5918 15.8828C91.5566 15.8242 91.5244 15.6777 91.4951 15.4434C91.4658 15.209 91.4453 14.9951 91.4336 14.8018L91.4072 14.4941C91.4072 14.4355 91.4102 14.3916 91.416 14.3623C91.4277 14.333 91.4512 14.3008 91.4863 14.2656C91.5215 14.2246 91.5479 14.1982 91.5654 14.1865C91.583 14.1748 91.6328 14.1514 91.7148 14.1162C91.8027 14.0811 91.8701 14.0518 91.917 14.0283C92.7783 13.6416 93.7188 13.4482 94.7383 13.4482C96.1035 13.4482 97.0645 13.7061 97.6211 14.2217C98.1836 14.7373 98.4648 15.4814 98.4648 16.4541V21.1914C98.4648 21.7305 98.1953 22 97.6562 22H96.7949C96.5312 22 96.3408 21.9297 96.2236 21.7891C96.1123 21.6426 96.0566 21.4727 96.0566 21.2793C95.2656 21.8887 94.3398 22.1963 93.2793 22.2021C92.4766 22.2021 91.8379 21.9268 91.3633 21.376C90.8887 20.8193 90.6514 20.2041 90.6514 19.5303ZM93.0156 19.5303C93.0156 19.876 93.1299 20.1895 93.3584 20.4707C93.5869 20.7461 93.8857 20.8838 94.2549 20.8838C94.665 20.8838 95.0605 20.7549 95.4414 20.4971C95.8281 20.2393 96.0215 19.8174 96.0215 19.2314V17.8252C95.6523 17.8604 95.333 17.8984 95.0635 17.9395C94.7998 17.9805 94.4863 18.0596 94.123 18.1768C93.7656 18.2881 93.4902 18.4609 93.2969 18.6953C93.1094 18.9297 93.0156 19.208 93.0156 19.5303Z"/>
<path d="M100.126 21.1035C100.126 21.0566 100.199 20.6348 100.346 19.8379C100.381 19.5625 100.466 19.4248 100.601 19.4248C100.659 19.4248 100.8 19.5361 101.022 19.7588C101.245 19.9814 101.57 20.207 101.998 20.4355C102.432 20.6641 102.93 20.7783 103.492 20.7783C104.43 20.7783 104.898 20.459 104.898 19.8203C104.898 19.4863 104.755 19.2432 104.468 19.0908C104.181 18.9326 103.759 18.8096 103.202 18.7217C102.651 18.6279 102.282 18.5459 102.095 18.4756C101.626 18.2939 101.195 18.0068 100.803 17.6143C100.416 17.2158 100.223 16.6914 100.223 16.041C100.223 14.3594 101.23 13.4951 103.246 13.4482H103.712C104.479 13.46 105.212 13.6094 105.909 13.8965C106.091 13.9668 106.208 14.0283 106.261 14.0811C106.313 14.1279 106.34 14.2129 106.34 14.3359C106.34 14.4062 106.281 14.7842 106.164 15.4697C106.117 15.6514 106.044 15.7393 105.944 15.7334C105.862 15.7334 105.722 15.6543 105.522 15.4961C105.323 15.332 105.036 15.1709 104.661 15.0127C104.292 14.8486 103.85 14.7666 103.334 14.7666C102.443 14.7666 101.998 15.0537 101.998 15.6279C101.998 15.9385 102.165 16.167 102.499 16.3135C102.839 16.4541 103.293 16.5771 103.861 16.6826C104.436 16.7822 104.854 16.9053 105.118 17.0518C105.347 17.1572 105.561 17.2949 105.76 17.4648C105.965 17.6348 106.173 17.9043 106.384 18.2734C106.595 18.6367 106.7 19.0381 106.7 19.4775C106.7 20.4854 106.41 21.1914 105.83 21.5957C105.256 22 104.465 22.2021 103.457 22.2021C102.209 22.2021 101.137 21.9121 100.24 21.332L100.17 21.2441C100.141 21.1738 100.126 21.127 100.126 21.1035Z"/>
<path d="M107.544 14.4062C107.544 13.9727 107.808 13.7559 108.335 13.7559H108.766V12.209C108.766 11.6699 109.056 11.4004 109.636 11.4004H110.277C110.816 11.4004 111.086 11.6699 111.086 12.209V13.7559H112.729C112.946 13.7559 113.119 13.8057 113.248 13.9053C113.383 13.999 113.465 14.0869 113.494 14.1689C113.523 14.251 113.538 14.3359 113.538 14.4238C113.538 14.5059 113.523 14.5908 113.494 14.6787C113.465 14.7607 113.386 14.8486 113.257 14.9424C113.134 15.0303 112.97 15.0742 112.765 15.0742H111.086V18.6689C111.086 18.7275 111.083 18.8066 111.077 18.9062C111.071 19 111.068 19.0762 111.068 19.1348C111.068 19.7734 111.127 20.21 111.244 20.4443C111.367 20.6787 111.561 20.7959 111.824 20.7959C112.158 20.7959 112.507 20.6904 112.87 20.4795C113.233 20.2686 113.427 20.1631 113.45 20.1631C113.532 20.1631 113.605 20.248 113.67 20.418C113.74 20.582 113.793 20.749 113.828 20.9189L113.863 21.1562C113.863 21.3848 113.488 21.6162 112.738 21.8506C111.988 22.085 111.271 22.2021 110.585 22.2021C109.706 22.2021 109.138 21.7686 108.88 20.9014C108.774 20.5439 108.719 19.999 108.713 19.2666V15.0742H108.335C107.808 15.0742 107.544 14.8516 107.544 14.4062Z"/>
<path d="M114.979 17.8076C114.979 16.3428 115.363 15.25 116.131 14.5293C116.904 13.8086 117.962 13.4482 119.304 13.4482C120.024 13.4482 120.64 13.5596 121.149 13.7822C121.659 14.0049 122.049 14.3125 122.318 14.7051C122.588 15.0918 122.778 15.502 122.89 15.9355C123.007 16.3691 123.065 16.8496 123.065 17.377C123.065 17.8926 122.802 18.1504 122.274 18.1504H117.309C117.355 19.9727 118.117 20.8838 119.594 20.8838C120.121 20.8838 120.602 20.7988 121.035 20.6289C121.475 20.4531 121.832 20.2598 122.107 20.0488C122.389 19.8379 122.553 19.7266 122.6 19.7148H122.67L122.758 19.75C122.816 19.8086 122.86 19.9434 122.89 20.1543C122.925 20.3652 122.942 20.5615 122.942 20.7432L122.96 21.0068C122.96 21.165 122.863 21.2969 122.67 21.4023C121.744 21.9297 120.707 22.1963 119.559 22.2021C118.059 22.2021 116.919 21.8301 116.14 21.0859C115.366 20.3418 114.979 19.249 114.979 17.8076ZM117.326 16.9814H121.053C121.018 16.2842 120.88 15.7422 120.64 15.3555C120.399 14.9629 119.954 14.7666 119.304 14.7666C118.132 14.7666 117.473 15.5049 117.326 16.9814Z"/>
<path d="M124.718 21.2266V14.4766C124.718 14.1309 124.791 13.9111 124.938 13.8174C125.09 13.7178 125.292 13.668 125.544 13.668H126.142C126.464 13.668 126.704 13.7441 126.862 13.8965C126.944 13.9902 126.991 14.0869 127.003 14.1865C127.015 14.2861 127.026 14.5615 127.038 15.0127C127.325 14.6143 127.671 14.2979 128.075 14.0635C128.485 13.8232 128.808 13.6797 129.042 13.6328C129.276 13.5801 129.484 13.5537 129.666 13.5537H129.684C129.842 13.5537 129.941 13.5859 129.982 13.6504C130.023 13.709 130.044 13.8115 130.044 13.958V14.96C130.044 15.0947 130.015 15.2031 129.956 15.2852C129.886 15.3438 129.728 15.3906 129.481 15.4258C129.235 15.4551 129.016 15.499 128.822 15.5576C128.412 15.7041 128.058 15.9268 127.759 16.2256C127.46 16.5244 127.267 16.8701 127.179 17.2627C127.144 17.4209 127.126 17.6494 127.126 17.9482V21.1035C127.126 21.3555 127.108 21.5195 127.073 21.5957C127.038 21.6719 126.947 21.7715 126.801 21.8945C126.654 21.9648 126.487 22 126.3 22H125.526C125.204 22 124.987 21.9297 124.876 21.7891C124.771 21.6426 124.718 21.4551 124.718 21.2266Z"/>
</mask>
<path d="M40.7031 10.627V10.4775C40.7031 10.1553 40.7676 9.93262 40.8965 9.80957C41.0312 9.68066 41.2598 9.61621 41.582 9.61621H51.5928C51.9385 9.61621 52.1699 9.68359 52.2871 9.81836C52.4102 9.94727 52.4717 10.167 52.4717 10.4775V10.627C52.4717 10.9023 52.4189 11.1074 52.3135 11.2422C52.2139 11.3711 52.1113 11.4443 52.0059 11.4619C51.9004 11.4795 51.7393 11.4883 51.5225 11.4883C51.2588 11.4883 50.6523 11.4795 49.7031 11.4619C48.7539 11.4443 48.1475 11.4355 47.8838 11.4355V21.1387C47.8838 21.4609 47.8223 21.6865 47.6992 21.8154C47.582 21.9385 47.3564 22 47.0225 22H46.1699C45.8359 22 45.6074 21.9385 45.4844 21.8154C45.3672 21.6865 45.3086 21.4609 45.3086 21.1387V11.4355C43.3984 11.4707 42.1797 11.4883 41.6523 11.4883C41.4824 11.4883 41.3594 11.4824 41.2832 11.4707C41.207 11.459 41.1133 11.4297 41.002 11.3828C40.8965 11.3301 40.8203 11.2422 40.7734 11.1191C40.7266 10.9961 40.7031 10.832 40.7031 10.627Z" fill="white"/>
<path d="M52.085 17.8076C52.085 16.3428 52.4688 15.25 53.2363 14.5293C54.0098 13.8086 55.0674 13.4482 56.4092 13.4482C57.1299 13.4482 57.7451 13.5596 58.2549 13.7822C58.7646 14.0049 59.1543 14.3125 59.4238 14.7051C59.6934 15.0918 59.8838 15.502 59.9951 15.9355C60.1123 16.3691 60.1709 16.8496 60.1709 17.377C60.1709 17.8926 59.9072 18.1504 59.3799 18.1504H54.4141C54.4609 19.9727 55.2227 20.8838 56.6992 20.8838C57.2266 20.8838 57.707 20.7988 58.1406 20.6289C58.5801 20.4531 58.9375 20.2598 59.2129 20.0488C59.4941 19.8379 59.6582 19.7266 59.7051 19.7148H59.7754L59.8633 19.75C59.9219 19.8086 59.9658 19.9434 59.9951 20.1543C60.0303 20.3652 60.0479 20.5615 60.0479 20.7432L60.0654 21.0068C60.0654 21.165 59.9688 21.2969 59.7754 21.4023C58.8496 21.9297 57.8125 22.1963 56.6641 22.2021C55.1641 22.2021 54.0244 21.8301 53.2451 21.0859C52.4717 20.3418 52.085 19.249 52.085 17.8076ZM54.4316 16.9814H58.1582C58.123 16.2842 57.9854 15.7422 57.7451 15.3555C57.5049 14.9629 57.0596 14.7666 56.4092 14.7666C55.2373 14.7666 54.5781 15.5049 54.4316 16.9814Z" fill="white"/>
<path d="M61.8232 21.1914V9.85352C61.8232 9.29102 62.0752 9.00684 62.5791 9.00098C62.5791 9.00098 62.8545 9.00098 63.4053 9.00098C63.9561 9.00098 64.2314 9.27344 64.2314 9.81836V21.1211C64.2314 21.2676 64.2256 21.3818 64.2139 21.4639C64.2021 21.5459 64.1729 21.6338 64.126 21.7275C64.0791 21.8154 63.9971 21.8799 63.8799 21.9209C63.7686 21.9619 63.6162 21.9883 63.4229 22H62.6846C62.4092 22 62.1953 21.9473 62.043 21.8418C61.8965 21.7305 61.8232 21.5137 61.8232 21.1914Z" fill="white"/>
<path d="M65.8662 17.8076C65.8662 16.3428 66.25 15.25 67.0176 14.5293C67.791 13.8086 68.8486 13.4482 70.1904 13.4482C70.9111 13.4482 71.5264 13.5596 72.0361 13.7822C72.5459 14.0049 72.9355 14.3125 73.2051 14.7051C73.4746 15.0918 73.665 15.502 73.7764 15.9355C73.8936 16.3691 73.9521 16.8496 73.9521 17.377C73.9521 17.8926 73.6885 18.1504 73.1611 18.1504H68.1953C68.2422 19.9727 69.0039 20.8838 70.4805 20.8838C71.0078 20.8838 71.4883 20.7988 71.9219 20.6289C72.3613 20.4531 72.7188 20.2598 72.9941 20.0488C73.2754 19.8379 73.4395 19.7266 73.4863 19.7148H73.5566L73.6445 19.75C73.7031 19.8086 73.7471 19.9434 73.7764 20.1543C73.8115 20.3652 73.8291 20.5615 73.8291 20.7432L73.8467 21.0068C73.8467 21.165 73.75 21.2969 73.5566 21.4023C72.6309 21.9297 71.5938 22.1963 70.4453 22.2021C68.9453 22.2021 67.8057 21.8301 67.0264 21.0859C66.2529 20.3418 65.8662 19.249 65.8662 17.8076ZM68.2129 16.9814H71.9395C71.9043 16.2842 71.7666 15.7422 71.5264 15.3555C71.2861 14.9629 70.8408 14.7666 70.1904 14.7666C69.0186 14.7666 68.3594 15.5049 68.2129 16.9814Z" fill="white"/>
<path d="M75.5869 21.1914V14.459C75.5869 13.9316 75.8564 13.668 76.3955 13.668H77.1162C77.2334 13.668 77.3242 13.6738 77.3887 13.6855C77.459 13.6973 77.5439 13.7236 77.6436 13.7646C77.749 13.8057 77.8252 13.8848 77.8721 14.002C77.9189 14.1133 77.9424 14.2598 77.9424 14.4414V14.8018C78.1709 14.585 78.3496 14.4209 78.4785 14.3096C78.6133 14.1924 78.915 14.0371 79.3838 13.8438C79.8525 13.6504 80.3506 13.5537 80.8779 13.5537C81.5869 13.5537 82.1348 13.6592 82.5215 13.8701C82.9141 14.0811 83.2012 14.4209 83.3828 14.8896C84.127 13.999 85.123 13.5537 86.3711 13.5537C86.8867 13.5537 87.3203 13.6182 87.6719 13.7471C88.0234 13.8701 88.2871 14.0137 88.4629 14.1777C88.6387 14.3418 88.7705 14.5762 88.8584 14.8809C88.9521 15.1855 89.0049 15.4375 89.0166 15.6367C89.0283 15.8359 89.0342 16.1143 89.0342 16.4717V21.1914C89.0342 21.4551 88.9756 21.6572 88.8584 21.7979C88.7471 21.9326 88.5273 22 88.1992 22H87.4082C87.3145 22 87.2266 21.9941 87.1445 21.9824C87.0684 21.9707 87.0039 21.9531 86.9512 21.9297C86.8984 21.9062 86.8545 21.8799 86.8193 21.8506C86.7842 21.8154 86.749 21.7773 86.7139 21.7363C86.6846 21.6953 86.6611 21.6602 86.6436 21.6309C86.626 21.6016 86.6143 21.5576 86.6084 21.499C86.6025 21.4346 86.5967 21.3936 86.5908 21.376C86.585 21.3584 86.582 21.3203 86.582 21.2617C86.582 21.2031 86.582 21.168 86.582 21.1562V16.2607C86.582 16.0322 86.5762 15.8594 86.5645 15.7422C86.5527 15.6191 86.5146 15.4814 86.4502 15.3291C86.3857 15.1709 86.2773 15.0566 86.125 14.9863C85.9727 14.9102 85.7705 14.8721 85.5186 14.8721C85.0264 14.8721 84.6191 15.0244 84.2969 15.3291C83.9746 15.6338 83.752 15.9795 83.6289 16.3662C83.5703 16.5713 83.541 16.8818 83.541 17.2979V21.0244C83.541 21.0479 83.541 21.083 83.541 21.1299C83.541 21.1709 83.5264 21.25 83.4971 21.3672C83.4678 21.4785 83.4268 21.5752 83.374 21.6572C83.3271 21.7393 83.251 21.8184 83.1455 21.8945C83.04 21.9648 82.9082 22 82.75 22H81.9238C81.5898 22 81.3643 21.9326 81.2471 21.7979C81.1299 21.6572 81.0713 21.4551 81.0713 21.1914V16.1816C81.0713 15.7129 80.998 15.3789 80.8516 15.1797C80.7109 14.9746 80.4385 14.8721 80.0342 14.8721C79.5068 14.8721 79.0439 15.0742 78.6455 15.4785C78.2471 15.877 78.0479 16.4365 78.0479 17.1572V21.1914C78.0479 21.7305 77.7783 22 77.2393 22H76.4307C75.8682 22 75.5869 21.7305 75.5869 21.1914Z" fill="white"/>
<path d="M90.6514 19.5303C90.6514 19.0615 90.7891 18.6543 91.0645 18.3086C91.3457 17.9629 91.6797 17.6934 92.0664 17.5C92.459 17.3066 92.9219 17.1543 93.4551 17.043C93.9883 16.9258 94.4482 16.8496 94.835 16.8145C95.2275 16.7793 95.623 16.7617 96.0215 16.7617V16.3838C96.0215 15.8682 95.9365 15.4609 95.7666 15.1621C95.5967 14.8633 95.2539 14.7139 94.7383 14.7139C94.2695 14.7139 93.8418 14.7783 93.4551 14.9072C93.0742 15.0303 92.79 15.1709 92.6025 15.3291C92.4209 15.4814 92.248 15.625 92.084 15.7598C91.9258 15.8887 91.8086 15.9531 91.7324 15.9531L91.6621 15.9355L91.5918 15.8828C91.5566 15.8242 91.5244 15.6777 91.4951 15.4434C91.4658 15.209 91.4453 14.9951 91.4336 14.8018L91.4072 14.4941C91.4072 14.4355 91.4102 14.3916 91.416 14.3623C91.4277 14.333 91.4512 14.3008 91.4863 14.2656C91.5215 14.2246 91.5479 14.1982 91.5654 14.1865C91.583 14.1748 91.6328 14.1514 91.7148 14.1162C91.8027 14.0811 91.8701 14.0518 91.917 14.0283C92.7783 13.6416 93.7188 13.4482 94.7383 13.4482C96.1035 13.4482 97.0645 13.7061 97.6211 14.2217C98.1836 14.7373 98.4648 15.4814 98.4648 16.4541V21.1914C98.4648 21.7305 98.1953 22 97.6562 22H96.7949C96.5312 22 96.3408 21.9297 96.2236 21.7891C96.1123 21.6426 96.0566 21.4727 96.0566 21.2793C95.2656 21.8887 94.3398 22.1963 93.2793 22.2021C92.4766 22.2021 91.8379 21.9268 91.3633 21.376C90.8887 20.8193 90.6514 20.2041 90.6514 19.5303ZM93.0156 19.5303C93.0156 19.876 93.1299 20.1895 93.3584 20.4707C93.5869 20.7461 93.8857 20.8838 94.2549 20.8838C94.665 20.8838 95.0605 20.7549 95.4414 20.4971C95.8281 20.2393 96.0215 19.8174 96.0215 19.2314V17.8252C95.6523 17.8604 95.333 17.8984 95.0635 17.9395C94.7998 17.9805 94.4863 18.0596 94.123 18.1768C93.7656 18.2881 93.4902 18.4609 93.2969 18.6953C93.1094 18.9297 93.0156 19.208 93.0156 19.5303Z" fill="white"/>
<path d="M100.126 21.1035C100.126 21.0566 100.199 20.6348 100.346 19.8379C100.381 19.5625 100.466 19.4248 100.601 19.4248C100.659 19.4248 100.8 19.5361 101.022 19.7588C101.245 19.9814 101.57 20.207 101.998 20.4355C102.432 20.6641 102.93 20.7783 103.492 20.7783C104.43 20.7783 104.898 20.459 104.898 19.8203C104.898 19.4863 104.755 19.2432 104.468 19.0908C104.181 18.9326 103.759 18.8096 103.202 18.7217C102.651 18.6279 102.282 18.5459 102.095 18.4756C101.626 18.2939 101.195 18.0068 100.803 17.6143C100.416 17.2158 100.223 16.6914 100.223 16.041C100.223 14.3594 101.23 13.4951 103.246 13.4482H103.712C104.479 13.46 105.212 13.6094 105.909 13.8965C106.091 13.9668 106.208 14.0283 106.261 14.0811C106.313 14.1279 106.34 14.2129 106.34 14.3359C106.34 14.4062 106.281 14.7842 106.164 15.4697C106.117 15.6514 106.044 15.7393 105.944 15.7334C105.862 15.7334 105.722 15.6543 105.522 15.4961C105.323 15.332 105.036 15.1709 104.661 15.0127C104.292 14.8486 103.85 14.7666 103.334 14.7666C102.443 14.7666 101.998 15.0537 101.998 15.6279C101.998 15.9385 102.165 16.167 102.499 16.3135C102.839 16.4541 103.293 16.5771 103.861 16.6826C104.436 16.7822 104.854 16.9053 105.118 17.0518C105.347 17.1572 105.561 17.2949 105.76 17.4648C105.965 17.6348 106.173 17.9043 106.384 18.2734C106.595 18.6367 106.7 19.0381 106.7 19.4775C106.7 20.4854 106.41 21.1914 105.83 21.5957C105.256 22 104.465 22.2021 103.457 22.2021C102.209 22.2021 101.137 21.9121 100.24 21.332L100.17 21.2441C100.141 21.1738 100.126 21.127 100.126 21.1035Z" fill="white"/>
<path d="M107.544 14.4062C107.544 13.9727 107.808 13.7559 108.335 13.7559H108.766V12.209C108.766 11.6699 109.056 11.4004 109.636 11.4004H110.277C110.816 11.4004 111.086 11.6699 111.086 12.209V13.7559H112.729C112.946 13.7559 113.119 13.8057 113.248 13.9053C113.383 13.999 113.465 14.0869 113.494 14.1689C113.523 14.251 113.538 14.3359 113.538 14.4238C113.538 14.5059 113.523 14.5908 113.494 14.6787C113.465 14.7607 113.386 14.8486 113.257 14.9424C113.134 15.0303 112.97 15.0742 112.765 15.0742H111.086V18.6689C111.086 18.7275 111.083 18.8066 111.077 18.9062C111.071 19 111.068 19.0762 111.068 19.1348C111.068 19.7734 111.127 20.21 111.244 20.4443C111.367 20.6787 111.561 20.7959 111.824 20.7959C112.158 20.7959 112.507 20.6904 112.87 20.4795C113.233 20.2686 113.427 20.1631 113.45 20.1631C113.532 20.1631 113.605 20.248 113.67 20.418C113.74 20.582 113.793 20.749 113.828 20.9189L113.863 21.1562C113.863 21.3848 113.488 21.6162 112.738 21.8506C111.988 22.085 111.271 22.2021 110.585 22.2021C109.706 22.2021 109.138 21.7686 108.88 20.9014C108.774 20.5439 108.719 19.999 108.713 19.2666V15.0742H108.335C107.808 15.0742 107.544 14.8516 107.544 14.4062Z" fill="white"/>
<path d="M114.979 17.8076C114.979 16.3428 115.363 15.25 116.131 14.5293C116.904 13.8086 117.962 13.4482 119.304 13.4482C120.024 13.4482 120.64 13.5596 121.149 13.7822C121.659 14.0049 122.049 14.3125 122.318 14.7051C122.588 15.0918 122.778 15.502 122.89 15.9355C123.007 16.3691 123.065 16.8496 123.065 17.377C123.065 17.8926 122.802 18.1504 122.274 18.1504H117.309C117.355 19.9727 118.117 20.8838 119.594 20.8838C120.121 20.8838 120.602 20.7988 121.035 20.6289C121.475 20.4531 121.832 20.2598 122.107 20.0488C122.389 19.8379 122.553 19.7266 122.6 19.7148H122.67L122.758 19.75C122.816 19.8086 122.86 19.9434 122.89 20.1543C122.925 20.3652 122.942 20.5615 122.942 20.7432L122.96 21.0068C122.96 21.165 122.863 21.2969 122.67 21.4023C121.744 21.9297 120.707 22.1963 119.559 22.2021C118.059 22.2021 116.919 21.8301 116.14 21.0859C115.366 20.3418 114.979 19.249 114.979 17.8076ZM117.326 16.9814H121.053C121.018 16.2842 120.88 15.7422 120.64 15.3555C120.399 14.9629 119.954 14.7666 119.304 14.7666C118.132 14.7666 117.473 15.5049 117.326 16.9814Z" fill="white"/>
<path d="M124.718 21.2266V14.4766C124.718 14.1309 124.791 13.9111 124.938 13.8174C125.09 13.7178 125.292 13.668 125.544 13.668H126.142C126.464 13.668 126.704 13.7441 126.862 13.8965C126.944 13.9902 126.991 14.0869 127.003 14.1865C127.015 14.2861 127.026 14.5615 127.038 15.0127C127.325 14.6143 127.671 14.2979 128.075 14.0635C128.485 13.8232 128.808 13.6797 129.042 13.6328C129.276 13.5801 129.484 13.5537 129.666 13.5537H129.684C129.842 13.5537 129.941 13.5859 129.982 13.6504C130.023 13.709 130.044 13.8115 130.044 13.958V14.96C130.044 15.0947 130.015 15.2031 129.956 15.2852C129.886 15.3438 129.728 15.3906 129.481 15.4258C129.235 15.4551 129.016 15.499 128.822 15.5576C128.412 15.7041 128.058 15.9268 127.759 16.2256C127.46 16.5244 127.267 16.8701 127.179 17.2627C127.144 17.4209 127.126 17.6494 127.126 17.9482V21.1035C127.126 21.3555 127.108 21.5195 127.073 21.5957C127.038 21.6719 126.947 21.7715 126.801 21.8945C126.654 21.9648 126.487 22 126.3 22H125.526C125.204 22 124.987 21.9297 124.876 21.7891C124.771 21.6426 124.718 21.4551 124.718 21.2266Z" fill="white"/>
<path d="M40.7031 10.627V10.4775C40.7031 10.1553 40.7676 9.93262 40.8965 9.80957C41.0312 9.68066 41.2598 9.61621 41.582 9.61621H51.5928C51.9385 9.61621 52.1699 9.68359 52.2871 9.81836C52.4102 9.94727 52.4717 10.167 52.4717 10.4775V10.627C52.4717 10.9023 52.4189 11.1074 52.3135 11.2422C52.2139 11.3711 52.1113 11.4443 52.0059 11.4619C51.9004 11.4795 51.7393 11.4883 51.5225 11.4883C51.2588 11.4883 50.6523 11.4795 49.7031 11.4619C48.7539 11.4443 48.1475 11.4355 47.8838 11.4355V21.1387C47.8838 21.4609 47.8223 21.6865 47.6992 21.8154C47.582 21.9385 47.3564 22 47.0225 22H46.1699C45.8359 22 45.6074 21.9385 45.4844 21.8154C45.3672 21.6865 45.3086 21.4609 45.3086 21.1387V11.4355C43.3984 11.4707 42.1797 11.4883 41.6523 11.4883C41.4824 11.4883 41.3594 11.4824 41.2832 11.4707C41.207 11.459 41.1133 11.4297 41.002 11.3828C40.8965 11.3301 40.8203 11.2422 40.7734 11.1191C40.7266 10.9961 40.7031 10.832 40.7031 10.627Z" stroke="black" stroke-width="4" mask="url(#path-10-outside-1)"/>
<path d="M52.085 17.8076C52.085 16.3428 52.4688 15.25 53.2363 14.5293C54.0098 13.8086 55.0674 13.4482 56.4092 13.4482C57.1299 13.4482 57.7451 13.5596 58.2549 13.7822C58.7646 14.0049 59.1543 14.3125 59.4238 14.7051C59.6934 15.0918 59.8838 15.502 59.9951 15.9355C60.1123 16.3691 60.1709 16.8496 60.1709 17.377C60.1709 17.8926 59.9072 18.1504 59.3799 18.1504H54.4141C54.4609 19.9727 55.2227 20.8838 56.6992 20.8838C57.2266 20.8838 57.707 20.7988 58.1406 20.6289C58.5801 20.4531 58.9375 20.2598 59.2129 20.0488C59.4941 19.8379 59.6582 19.7266 59.7051 19.7148H59.7754L59.8633 19.75C59.9219 19.8086 59.9658 19.9434 59.9951 20.1543C60.0303 20.3652 60.0479 20.5615 60.0479 20.7432L60.0654 21.0068C60.0654 21.165 59.9688 21.2969 59.7754 21.4023C58.8496 21.9297 57.8125 22.1963 56.6641 22.2021C55.1641 22.2021 54.0244 21.8301 53.2451 21.0859C52.4717 20.3418 52.085 19.249 52.085 17.8076ZM54.4316 16.9814H58.1582C58.123 16.2842 57.9854 15.7422 57.7451 15.3555C57.5049 14.9629 57.0596 14.7666 56.4092 14.7666C55.2373 14.7666 54.5781 15.5049 54.4316 16.9814Z" stroke="black" stroke-width="4" mask="url(#path-10-outside-1)"/>
<path d="M61.8232 21.1914V9.85352C61.8232 9.29102 62.0752 9.00684 62.5791 9.00098C62.5791 9.00098 62.8545 9.00098 63.4053 9.00098C63.9561 9.00098 64.2314 9.27344 64.2314 9.81836V21.1211C64.2314 21.2676 64.2256 21.3818 64.2139 21.4639C64.2021 21.5459 64.1729 21.6338 64.126 21.7275C64.0791 21.8154 63.9971 21.8799 63.8799 21.9209C63.7686 21.9619 63.6162 21.9883 63.4229 22H62.6846C62.4092 22 62.1953 21.9473 62.043 21.8418C61.8965 21.7305 61.8232 21.5137 61.8232 21.1914Z" stroke="black" stroke-width="4" mask="url(#path-10-outside-1)"/>
<path d="M65.8662 17.8076C65.8662 16.3428 66.25 15.25 67.0176 14.5293C67.791 13.8086 68.8486 13.4482 70.1904 13.4482C70.9111 13.4482 71.5264 13.5596 72.0361 13.7822C72.5459 14.0049 72.9355 14.3125 73.2051 14.7051C73.4746 15.0918 73.665 15.502 73.7764 15.9355C73.8936 16.3691 73.9521 16.8496 73.9521 17.377C73.9521 17.8926 73.6885 18.1504 73.1611 18.1504H68.1953C68.2422 19.9727 69.0039 20.8838 70.4805 20.8838C71.0078 20.8838 71.4883 20.7988 71.9219 20.6289C72.3613 20.4531 72.7188 20.2598 72.9941 20.0488C73.2754 19.8379 73.4395 19.7266 73.4863 19.7148H73.5566L73.6445 19.75C73.7031 19.8086 73.7471 19.9434 73.7764 20.1543C73.8115 20.3652 73.8291 20.5615 73.8291 20.7432L73.8467 21.0068C73.8467 21.165 73.75 21.2969 73.5566 21.4023C72.6309 21.9297 71.5938 22.1963 70.4453 22.2021C68.9453 22.2021 67.8057 21.8301 67.0264 21.0859C66.2529 20.3418 65.8662 19.249 65.8662 17.8076ZM68.2129 16.9814H71.9395C71.9043 16.2842 71.7666 15.7422 71.5264 15.3555C71.2861 14.9629 70.8408 14.7666 70.1904 14.7666C69.0186 14.7666 68.3594 15.5049 68.2129 16.9814Z" stroke="black" stroke-width="4" mask="url(#path-10-outside-1)"/>
<path d="M75.5869 21.1914V14.459C75.5869 13.9316 75.8564 13.668 76.3955 13.668H77.1162C77.2334 13.668 77.3242 13.6738 77.3887 13.6855C77.459 13.6973 77.5439 13.7236 77.6436 13.7646C77.749 13.8057 77.8252 13.8848 77.8721 14.002C77.9189 14.1133 77.9424 14.2598 77.9424 14.4414V14.8018C78.1709 14.585 78.3496 14.4209 78.4785 14.3096C78.6133 14.1924 78.915 14.0371 79.3838 13.8438C79.8525 13.6504 80.3506 13.5537 80.8779 13.5537C81.5869 13.5537 82.1348 13.6592 82.5215 13.8701C82.9141 14.0811 83.2012 14.4209 83.3828 14.8896C84.127 13.999 85.123 13.5537 86.3711 13.5537C86.8867 13.5537 87.3203 13.6182 87.6719 13.7471C88.0234 13.8701 88.2871 14.0137 88.4629 14.1777C88.6387 14.3418 88.7705 14.5762 88.8584 14.8809C88.9521 15.1855 89.0049 15.4375 89.0166 15.6367C89.0283 15.8359 89.0342 16.1143 89.0342 16.4717V21.1914C89.0342 21.4551 88.9756 21.6572 88.8584 21.7979C88.7471 21.9326 88.5273 22 88.1992 22H87.4082C87.3145 22 87.2266 21.9941 87.1445 21.9824C87.0684 21.9707 87.0039 21.9531 86.9512 21.9297C86.8984 21.9062 86.8545 21.8799 86.8193 21.8506C86.7842 21.8154 86.749 21.7773 86.7139 21.7363C86.6846 21.6953 86.6611 21.6602 86.6436 21.6309C86.626 21.6016 86.6143 21.5576 86.6084 21.499C86.6025 21.4346 86.5967 21.3936 86.5908 21.376C86.585 21.3584 86.582 21.3203 86.582 21.2617C86.582 21.2031 86.582 21.168 86.582 21.1562V16.2607C86.582 16.0322 86.5762 15.8594 86.5645 15.7422C86.5527 15.6191 86.5146 15.4814 86.4502 15.3291C86.3857 15.1709 86.2773 15.0566 86.125 14.9863C85.9727 14.9102 85.7705 14.8721 85.5186 14.8721C85.0264 14.8721 84.6191 15.0244 84.2969 15.3291C83.9746 15.6338 83.752 15.9795 83.6289 16.3662C83.5703 16.5713 83.541 16.8818 83.541 17.2979V21.0244C83.541 21.0479 83.541 21.083 83.541 21.1299C83.541 21.1709 83.5264 21.25 83.4971 21.3672C83.4678 21.4785 83.4268 21.5752 83.374 21.6572C83.3271 21.7393 83.251 21.8184 83.1455 21.8945C83.04 21.9648 82.9082 22 82.75 22H81.9238C81.5898 22 81.3643 21.9326 81.2471 21.7979C81.1299 21.6572 81.0713 21.4551 81.0713 21.1914V16.1816C81.0713 15.7129 80.998 15.3789 80.8516 15.1797C80.7109 14.9746 80.4385 14.8721 80.0342 14.8721C79.5068 14.8721 79.0439 15.0742 78.6455 15.4785C78.2471 15.877 78.0479 16.4365 78.0479 17.1572V21.1914C78.0479 21.7305 77.7783 22 77.2393 22H76.4307C75.8682 22 75.5869 21.7305 75.5869 21.1914Z" stroke="black" stroke-width="4" mask="url(#path-10-outside-1)"/>
<path d="M90.6514 19.5303C90.6514 19.0615 90.7891 18.6543 91.0645 18.3086C91.3457 17.9629 91.6797 17.6934 92.0664 17.5C92.459 17.3066 92.9219 17.1543 93.4551 17.043C93.9883 16.9258 94.4482 16.8496 94.835 16.8145C95.2275 16.7793 95.623 16.7617 96.0215 16.7617V16.3838C96.0215 15.8682 95.9365 15.4609 95.7666 15.1621C95.5967 14.8633 95.2539 14.7139 94.7383 14.7139C94.2695 14.7139 93.8418 14.7783 93.4551 14.9072C93.0742 15.0303 92.79 15.1709 92.6025 15.3291C92.4209 15.4814 92.248 15.625 92.084 15.7598C91.9258 15.8887 91.8086 15.9531 91.7324 15.9531L91.6621 15.9355L91.5918 15.8828C91.5566 15.8242 91.5244 15.6777 91.4951 15.4434C91.4658 15.209 91.4453 14.9951 91.4336 14.8018L91.4072 14.4941C91.4072 14.4355 91.4102 14.3916 91.416 14.3623C91.4277 14.333 91.4512 14.3008 91.4863 14.2656C91.5215 14.2246 91.5479 14.1982 91.5654 14.1865C91.583 14.1748 91.6328 14.1514 91.7148 14.1162C91.8027 14.0811 91.8701 14.0518 91.917 14.0283C92.7783 13.6416 93.7188 13.4482 94.7383 13.4482C96.1035 13.4482 97.0645 13.7061 97.6211 14.2217C98.1836 14.7373 98.4648 15.4814 98.4648 16.4541V21.1914C98.4648 21.7305 98.1953 22 97.6562 22H96.7949C96.5312 22 96.3408 21.9297 96.2236 21.7891C96.1123 21.6426 96.0566 21.4727 96.0566 21.2793C95.2656 21.8887 94.3398 22.1963 93.2793 22.2021C92.4766 22.2021 91.8379 21.9268 91.3633 21.376C90.8887 20.8193 90.6514 20.2041 90.6514 19.5303ZM93.0156 19.5303C93.0156 19.876 93.1299 20.1895 93.3584 20.4707C93.5869 20.7461 93.8857 20.8838 94.2549 20.8838C94.665 20.8838 95.0605 20.7549 95.4414 20.4971C95.8281 20.2393 96.0215 19.8174 96.0215 19.2314V17.8252C95.6523 17.8604 95.333 17.8984 95.0635 17.9395C94.7998 17.9805 94.4863 18.0596 94.123 18.1768C93.7656 18.2881 93.4902 18.4609 93.2969 18.6953C93.1094 18.9297 93.0156 19.208 93.0156 19.5303Z" stroke="black" stroke-width="4" mask="url(#path-10-outside-1)"/>
<path d="M100.126 21.1035C100.126 21.0566 100.199 20.6348 100.346 19.8379C100.381 19.5625 100.466 19.4248 100.601 19.4248C100.659 19.4248 100.8 19.5361 101.022 19.7588C101.245 19.9814 101.57 20.207 101.998 20.4355C102.432 20.6641 102.93 20.7783 103.492 20.7783C104.43 20.7783 104.898 20.459 104.898 19.8203C104.898 19.4863 104.755 19.2432 104.468 19.0908C104.181 18.9326 103.759 18.8096 103.202 18.7217C102.651 18.6279 102.282 18.5459 102.095 18.4756C101.626 18.2939 101.195 18.0068 100.803 17.6143C100.416 17.2158 100.223 16.6914 100.223 16.041C100.223 14.3594 101.23 13.4951 103.246 13.4482H103.712C104.479 13.46 105.212 13.6094 105.909 13.8965C106.091 13.9668 106.208 14.0283 106.261 14.0811C106.313 14.1279 106.34 14.2129 106.34 14.3359C106.34 14.4062 106.281 14.7842 106.164 15.4697C106.117 15.6514 106.044 15.7393 105.944 15.7334C105.862 15.7334 105.722 15.6543 105.522 15.4961C105.323 15.332 105.036 15.1709 104.661 15.0127C104.292 14.8486 103.85 14.7666 103.334 14.7666C102.443 14.7666 101.998 15.0537 101.998 15.6279C101.998 15.9385 102.165 16.167 102.499 16.3135C102.839 16.4541 103.293 16.5771 103.861 16.6826C104.436 16.7822 104.854 16.9053 105.118 17.0518C105.347 17.1572 105.561 17.2949 105.76 17.4648C105.965 17.6348 106.173 17.9043 106.384 18.2734C106.595 18.6367 106.7 19.0381 106.7 19.4775C106.7 20.4854 106.41 21.1914 105.83 21.5957C105.256 22 104.465 22.2021 103.457 22.2021C102.209 22.2021 101.137 21.9121 100.24 21.332L100.17 21.2441C100.141 21.1738 100.126 21.127 100.126 21.1035Z" stroke="black" stroke-width="4" mask="url(#path-10-outside-1)"/>
<path d="M107.544 14.4062C107.544 13.9727 107.808 13.7559 108.335 13.7559H108.766V12.209C108.766 11.6699 109.056 11.4004 109.636 11.4004H110.277C110.816 11.4004 111.086 11.6699 111.086 12.209V13.7559H112.729C112.946 13.7559 113.119 13.8057 113.248 13.9053C113.383 13.999 113.465 14.0869 113.494 14.1689C113.523 14.251 113.538 14.3359 113.538 14.4238C113.538 14.5059 113.523 14.5908 113.494 14.6787C113.465 14.7607 113.386 14.8486 113.257 14.9424C113.134 15.0303 112.97 15.0742 112.765 15.0742H111.086V18.6689C111.086 18.7275 111.083 18.8066 111.077 18.9062C111.071 19 111.068 19.0762 111.068 19.1348C111.068 19.7734 111.127 20.21 111.244 20.4443C111.367 20.6787 111.561 20.7959 111.824 20.7959C112.158 20.7959 112.507 20.6904 112.87 20.4795C113.233 20.2686 113.427 20.1631 113.45 20.1631C113.532 20.1631 113.605 20.248 113.67 20.418C113.74 20.582 113.793 20.749 113.828 20.9189L113.863 21.1562C113.863 21.3848 113.488 21.6162 112.738 21.8506C111.988 22.085 111.271 22.2021 110.585 22.2021C109.706 22.2021 109.138 21.7686 108.88 20.9014C108.774 20.5439 108.719 19.999 108.713 19.2666V15.0742H108.335C107.808 15.0742 107.544 14.8516 107.544 14.4062Z" stroke="black" stroke-width="4" mask="url(#path-10-outside-1)"/>
<path d="M114.979 17.8076C114.979 16.3428 115.363 15.25 116.131 14.5293C116.904 13.8086 117.962 13.4482 119.304 13.4482C120.024 13.4482 120.64 13.5596 121.149 13.7822C121.659 14.0049 122.049 14.3125 122.318 14.7051C122.588 15.0918 122.778 15.502 122.89 15.9355C123.007 16.3691 123.065 16.8496 123.065 17.377C123.065 17.8926 122.802 18.1504 122.274 18.1504H117.309C117.355 19.9727 118.117 20.8838 119.594 20.8838C120.121 20.8838 120.602 20.7988 121.035 20.6289C121.475 20.4531 121.832 20.2598 122.107 20.0488C122.389 19.8379 122.553 19.7266 122.6 19.7148H122.67L122.758 19.75C122.816 19.8086 122.86 19.9434 122.89 20.1543C122.925 20.3652 122.942 20.5615 122.942 20.7432L122.96 21.0068C122.96 21.165 122.863 21.2969 122.67 21.4023C121.744 21.9297 120.707 22.1963 119.559 22.2021C118.059 22.2021 116.919 21.8301 116.14 21.0859C115.366 20.3418 114.979 19.249 114.979 17.8076ZM117.326 16.9814H121.053C121.018 16.2842 120.88 15.7422 120.64 15.3555C120.399 14.9629 119.954 14.7666 119.304 14.7666C118.132 14.7666 117.473 15.5049 117.326 16.9814Z" stroke="black" stroke-width="4" mask="url(#path-10-outside-1)"/>
<path d="M124.718 21.2266V14.4766C124.718 14.1309 124.791 13.9111 124.938 13.8174C125.09 13.7178 125.292 13.668 125.544 13.668H126.142C126.464 13.668 126.704 13.7441 126.862 13.8965C126.944 13.9902 126.991 14.0869 127.003 14.1865C127.015 14.2861 127.026 14.5615 127.038 15.0127C127.325 14.6143 127.671 14.2979 128.075 14.0635C128.485 13.8232 128.808 13.6797 129.042 13.6328C129.276 13.5801 129.484 13.5537 129.666 13.5537H129.684C129.842 13.5537 129.941 13.5859 129.982 13.6504C130.023 13.709 130.044 13.8115 130.044 13.958V14.96C130.044 15.0947 130.015 15.2031 129.956 15.2852C129.886 15.3438 129.728 15.3906 129.481 15.4258C129.235 15.4551 129.016 15.499 128.822 15.5576C128.412 15.7041 128.058 15.9268 127.759 16.2256C127.46 16.5244 127.267 16.8701 127.179 17.2627C127.144 17.4209 127.126 17.6494 127.126 17.9482V21.1035C127.126 21.3555 127.108 21.5195 127.073 21.5957C127.038 21.6719 126.947 21.7715 126.801 21.8945C126.654 21.9648 126.487 22 126.3 22H125.526C125.204 22 124.987 21.9297 124.876 21.7891C124.771 21.6426 124.718 21.4551 124.718 21.2266Z" stroke="black" stroke-width="4" mask="url(#path-10-outside-1)"/>
</g>
<defs>
<filter id="filter0_d" x="0" y="-4" width="40" height="40" filterUnits="userSpaceOnUse" color-interpolation-filters="sRGB">
<feFlood flood-opacity="0" result="BackgroundImageFix"/>
<feColorMatrix in="SourceAlpha" type="matrix" values="0 0 0 0 0 0 0 0 0 0 0 0 0 0 0 0 0 0 127 0"/>
<feOffset/>
<feGaussianBlur stdDeviation="2"/>
<feColorMatrix type="matrix" values="0 0 0 0 1 0 0 0 0 1 0 0 0 0 1 0 0 0 0.75 0"/>
<feBlend mode="normal" in2="BackgroundImageFix" result="effect1_dropShadow"/>
<feBlend mode="normal" in="SourceGraphic" in2="effect1_dropShadow" result="shape"/>
</filter>
<filter id="filter1_d" x="34.7031" y="3.00098" width="101.341" height="25.2012" filterUnits="userSpaceOnUse" color-interpolation-filters="sRGB">
<feFlood flood-opacity="0" result="BackgroundImageFix"/>
<feColorMatrix in="SourceAlpha" type="matrix" values="0 0 0 0 0 0 0 0 0 0 0 0 0 0 0 0 0 0 127 0"/>
<feOffset/>
<feGaussianBlur stdDeviation="2"/>
<feColorMatrix type="matrix" values="0 0 0 0 1 0 0 0 0 1 0 0 0 0 1 0 0 0 0.75 0"/>
<feBlend mode="normal" in2="BackgroundImageFix" result="effect1_dropShadow"/>
<feBlend mode="normal" in="SourceGraphic" in2="effect1_dropShadow" result="shape"/>
</filter>
<clipPath id="clip0">
<rect width="32" height="32" fill="white" transform="translate(4)"/>
</clipPath>
</defs>
</svg>
