<svg width="138" height="33" viewBox="0 0 138 33" fill="none" xmlns="http://www.w3.org/2000/svg">
<g filter="url(#filter0_d)">
<mask id="mask0" mask-type="alpha" maskUnits="userSpaceOnUse" x="4" y="0" width="34" height="29">
<ellipse cx="21" cy="14.5" rx="17" ry="14.5" fill="black"/>
</mask>
<g mask="url(#mask0)">
<path d="M21.0888 57.0556C21.3224 57.0556 21.5463 56.9631 21.7114 56.7986C21.8766 56.6341 21.9693 56.411 21.9693 56.1784V52.3541L31.6547 45.8106L34.2962 52.1348C34.3381 52.2452 34.4021 52.346 34.4841 52.4312C34.5661 52.5164 34.6646 52.5842 34.7735 52.6306C34.8825 52.677 34.9998 52.701 35.1183 52.7011C35.2367 52.7013 35.3541 52.6776 35.4632 52.6316C35.5723 52.5855 35.6709 52.518 35.7532 52.433C35.8354 52.348 35.8997 52.2474 35.942 52.1371C35.9843 52.0269 36.0038 51.9092 35.9994 51.7913C35.995 51.6733 35.9667 51.5574 35.9163 51.4506L22.3215 19.1105C22.2171 18.8711 22.0448 18.6673 21.8259 18.524C21.607 18.3807 21.3508 18.304 21.0888 18.3035C20.8263 18.3074 20.5709 18.3886 20.3547 18.5369C20.1384 18.6852 19.9711 18.8939 19.8738 19.1368L7.06266 51.4682C7.01977 51.5753 6.99851 51.6898 7.00008 51.8051C7.00166 51.9204 7.02604 52.0343 7.07184 52.1402C7.11763 52.2461 7.18395 52.342 7.26698 52.4223C7.35001 52.5027 7.44814 52.5659 7.55574 52.6085C7.65945 52.6493 7.77 52.6701 7.88152 52.6699C8.05786 52.67 8.23019 52.6174 8.37619 52.5189C8.52219 52.4204 8.63512 52.2805 8.70037 52.1173L11.0777 46.1176L20.2083 52.2576V56.1784C20.2083 56.411 20.3011 56.6341 20.4662 56.7986C20.6314 56.9631 20.8553 57.0556 21.0888 57.0556ZM21.9693 33.9341L25.6322 31.4694L27.8246 36.6445L21.9693 40.5829V33.9341ZM20.2083 40.4952L14.7581 36.8287L16.8449 31.5659L20.2083 33.8377V40.4952ZM21.9693 50.2402V42.7055L28.5202 38.3198L30.9943 44.1879L21.9693 50.2402ZM24.9366 29.8642L21.9693 31.8115V22.8471L24.9366 29.8642ZM20.2083 23.0752V31.7237L17.5053 29.8642L20.2083 23.0752ZM11.7381 44.4423L14.0978 38.4953L20.2083 42.6091V50.1437L11.7381 44.4423Z" stroke="black" stroke-width="6"/>
<path d="M23.7303 14.0757C23.7303 13.5552 23.5754 13.0465 23.2851 12.6137C22.9949 12.181 22.5823 11.8437 22.0997 11.6446C21.617 11.4454 21.0859 11.3933 20.5735 11.4948C20.0611 11.5964 19.5904 11.847 19.221 12.215C18.8516 12.583 18.6 13.0519 18.4981 13.5623C18.3962 14.0728 18.4485 14.6019 18.6484 15.0827C18.8484 15.5635 19.1869 15.9745 19.6213 16.2636C20.0557 16.5528 20.5664 16.7071 21.0888 16.7071C21.7894 16.7071 22.4612 16.4299 22.9566 15.9364C23.452 15.4429 23.7303 14.7736 23.7303 14.0757ZM20.2083 14.0757C20.2083 13.9022 20.26 13.7326 20.3567 13.5884C20.4535 13.4441 20.591 13.3317 20.7519 13.2653C20.9128 13.1989 21.0898 13.1816 21.2606 13.2154C21.4314 13.2492 21.5883 13.3328 21.7114 13.4555C21.8346 13.5781 21.9184 13.7344 21.9524 13.9046C21.9864 14.0747 21.9689 14.2511 21.9023 14.4114C21.8356 14.5716 21.7228 14.7086 21.578 14.805C21.4332 14.9014 21.263 14.9528 21.0888 14.9528C20.8553 14.9528 20.6313 14.8604 20.4662 14.6959C20.3011 14.5314 20.2083 14.3083 20.2083 14.0757Z" stroke="black" stroke-width="6"/>
<path d="M25.8085 20.0139C25.9669 20.1447 26.1663 20.2161 26.372 20.2157C26.5014 20.2159 26.6292 20.1877 26.7463 20.1331C26.8635 20.0786 26.9672 19.9989 27.05 19.8999C28.2091 18.5172 28.8967 16.8031 29.0135 15.0055C29.1148 12.8715 28.4148 10.7765 27.05 9.12863C26.9005 8.9495 26.6858 8.83686 26.4529 8.81547C26.2201 8.79409 25.9883 8.86572 25.8085 9.0146C25.6287 9.16349 25.5156 9.37743 25.4941 9.60937C25.4727 9.84131 25.5446 10.0722 25.694 10.2514C26.7068 11.4427 27.2626 12.9532 27.2626 14.5143C27.2626 16.0754 26.7068 17.5859 25.694 18.7772C25.6199 18.8658 25.564 18.9681 25.5297 19.0783C25.4953 19.1885 25.4831 19.3043 25.4937 19.4192C25.5043 19.5341 25.5376 19.6458 25.5916 19.7478C25.6456 19.8499 25.7193 19.9403 25.8085 20.0139Z" stroke="black" stroke-width="6"/>
<path d="M30.3338 21.8559C30.4343 21.9139 30.5453 21.9515 30.6605 21.9666C30.7756 21.9817 30.8926 21.9739 31.0047 21.9438C31.1169 21.9136 31.2219 21.8616 31.3138 21.7909C31.4056 21.7201 31.4825 21.6319 31.5401 21.5314C32.7765 19.3979 33.4275 16.9778 33.4275 14.5143C33.4275 12.0507 32.7765 9.63062 31.5401 7.49715C31.4233 7.29476 31.2306 7.14687 31.0044 7.086C30.7782 7.02514 30.537 7.05629 30.3338 7.17261C30.1306 7.28892 29.9822 7.48088 29.9211 7.70623C29.86 7.93159 29.8913 8.1719 30.008 8.37429C31.0899 10.2411 31.6595 12.3587 31.6595 14.5143C31.6595 16.6699 31.0899 18.7875 30.008 20.6543C29.9498 20.7544 29.912 20.865 29.8969 20.9797C29.8818 21.0944 29.8896 21.2109 29.9199 21.3226C29.9501 21.4343 30.0023 21.539 30.0733 21.6305C30.1444 21.722 30.2329 21.7986 30.3338 21.8559Z" stroke="black" stroke-width="6"/>
<path d="M16.3782 9.01463C16.2892 8.94077 16.1865 8.88512 16.0759 8.85088C15.9653 8.81663 15.849 8.80445 15.7337 8.81504C15.6184 8.82564 15.5063 8.85879 15.4038 8.9126C15.3014 8.96642 15.2106 9.03984 15.1367 9.12865C13.7649 10.7731 13.0613 12.8698 13.1644 15.0055C13.2811 16.8032 13.9688 18.5173 15.1279 19.8999C15.2107 19.9989 15.3144 20.0786 15.4315 20.1332C15.5487 20.1877 15.6765 20.2159 15.8059 20.2157C16.0116 20.2161 16.211 20.1447 16.3694 20.014C16.4579 19.9397 16.5309 19.8488 16.5841 19.7464C16.6373 19.6441 16.6697 19.5323 16.6796 19.4174C16.6894 19.3025 16.6764 19.1869 16.6413 19.077C16.6062 18.9672 16.5497 18.8653 16.475 18.7772C15.4639 17.5851 14.9092 16.0749 14.9092 14.5143C14.9092 12.9537 15.4639 11.4434 16.475 10.2514C16.5502 10.1639 16.6073 10.0624 16.6431 9.95289C16.6789 9.84336 16.6927 9.72787 16.6838 9.61303C16.6748 9.49818 16.6431 9.38622 16.5907 9.28355C16.5383 9.18088 16.4661 9.08949 16.3782 9.01463Z" stroke="black" stroke-width="6"/>
<path d="M11.844 7.17263C11.6418 7.05827 11.4025 7.02822 11.1781 7.08902C10.9538 7.14982 10.7627 7.29654 10.6465 7.49717C9.41007 9.63064 8.75912 12.0508 8.75912 14.5143C8.75912 16.9778 9.41007 19.3979 10.6465 21.5314C10.7041 21.6319 10.781 21.7201 10.8728 21.7909C10.9647 21.8616 11.0697 21.9136 11.1819 21.9438C11.294 21.9739 11.411 21.9817 11.5261 21.9666C11.6413 21.9516 11.7523 21.9139 11.8528 21.8559C11.9537 21.7986 12.0422 21.722 12.1133 21.6305C12.1843 21.539 12.2365 21.4343 12.2667 21.3226C12.297 21.211 12.3048 21.0944 12.2897 20.9797C12.2746 20.865 12.2368 20.7544 12.1786 20.6543C11.0967 18.7875 10.5271 16.6699 10.5271 14.5143C10.5271 12.3587 11.0967 10.2411 12.1786 8.37431C12.2364 8.27367 12.2737 8.16261 12.2882 8.04753C12.3027 7.93246 12.2941 7.81567 12.263 7.70392C12.2319 7.59216 12.1788 7.48766 12.1069 7.39647C12.035 7.30527 11.9456 7.22919 11.844 7.17263Z" stroke="black" stroke-width="6"/>
<rect x="14" y="12" width="13" height="7" fill="black"/>
<path d="M21.0888 56.9445C21.3224 56.9445 21.5463 56.8521 21.7114 56.6878C21.8766 56.5235 21.9693 56.3007 21.9693 56.0683V52.2482L31.6547 45.712L34.2962 52.0292C34.3381 52.1394 34.4021 52.2401 34.4841 52.3252C34.5661 52.4103 34.6646 52.4781 34.7735 52.5244C34.8825 52.5707 34.9998 52.5947 35.1182 52.5949C35.2367 52.595 35.3541 52.5714 35.4632 52.5254C35.5723 52.4794 35.6709 52.4119 35.7532 52.327C35.8354 52.2422 35.8997 52.1417 35.942 52.0315C35.9843 51.9214 36.0038 51.8039 35.9994 51.686C35.995 51.5682 35.9667 51.4525 35.9162 51.3458L22.3215 19.0415C22.2171 18.8025 22.0448 18.5989 21.8259 18.4557C21.607 18.3125 21.3508 18.236 21.0888 18.2355C20.8263 18.2393 20.5709 18.3204 20.3547 18.4686C20.1384 18.6167 19.9711 18.8252 19.8738 19.0678L7.06266 51.3633C7.01977 51.4703 6.99851 51.5846 7.00008 51.6998C7.00166 51.815 7.02604 51.9287 7.07184 52.0345C7.11763 52.1403 7.18395 52.2361 7.26698 52.3164C7.35001 52.3966 7.44814 52.4598 7.55574 52.5023C7.65945 52.5431 7.77 52.5639 7.88152 52.5636C8.05786 52.5638 8.23019 52.5113 8.37619 52.4129C8.52219 52.3144 8.63512 52.1747 8.70037 52.0116L11.0777 46.0187L20.2083 52.1518V56.0683C20.2083 56.3007 20.3011 56.5235 20.4662 56.6878C20.6314 56.8521 20.8553 56.9445 21.0888 56.9445ZM21.9693 33.8487L25.6322 31.3867L27.8246 36.5561L21.9693 40.4901V33.8487ZM20.2083 40.4025L14.7581 36.7401L16.8449 31.4831L20.2083 33.7524V40.4025ZM21.9693 50.1367V42.6104L28.5202 38.2296L30.9943 44.0911L21.9693 50.1367ZM24.9366 29.7833L21.9693 31.7284V22.774L24.9366 29.7833ZM20.2083 23.0018V31.6408L17.5052 29.7833L20.2083 23.0018ZM11.7381 44.3452L14.0978 38.4048L20.2083 42.514V50.0403L11.7381 44.3452Z" fill="white"/>
<path d="M23.7302 14.0123C23.7302 13.4925 23.5753 12.9843 23.285 12.552C22.9948 12.1198 22.5822 11.7829 22.0996 11.5839C21.6169 11.385 21.0858 11.3329 20.5734 11.4343C20.061 11.5358 19.5903 11.7861 19.2209 12.1537C18.8515 12.5213 18.5999 12.9897 18.498 13.4995C18.3961 14.0094 18.4484 14.5379 18.6483 15.0182C18.8483 15.4985 19.1868 15.909 19.6212 16.1978C20.0556 16.4867 20.5663 16.6408 21.0887 16.6408C21.7893 16.6408 22.4612 16.3639 22.9565 15.871C23.4519 15.378 23.7302 14.7095 23.7302 14.0123ZM20.2082 14.0123C20.2082 13.839 20.2599 13.6696 20.3566 13.5256C20.4534 13.3815 20.5909 13.2692 20.7518 13.2029C20.9127 13.1365 21.0897 13.1192 21.2605 13.153C21.4313 13.1868 21.5882 13.2703 21.7113 13.3928C21.8345 13.5153 21.9183 13.6714 21.9523 13.8414C21.9863 14.0114 21.9688 14.1875 21.9022 14.3476C21.8356 14.5077 21.7227 14.6446 21.5779 14.7408C21.4331 14.8371 21.2629 14.8885 21.0887 14.8885C20.8552 14.8885 20.6313 14.7962 20.4661 14.6319C20.301 14.4676 20.2082 14.2447 20.2082 14.0123Z" fill="white"/>
<path d="M25.8085 19.944C25.9669 20.0746 26.1663 20.1459 26.372 20.1455C26.5014 20.1457 26.6292 20.1176 26.7464 20.063C26.8635 20.0085 26.9672 19.929 27.05 19.8301C28.2091 18.449 28.8968 16.7368 29.0135 14.9411C29.1148 12.8095 28.4148 10.7168 27.05 9.07077C26.9005 8.89185 26.6858 8.77933 26.453 8.75796C26.2201 8.7366 25.9883 8.80815 25.8085 8.95687C25.6287 9.10559 25.5156 9.3193 25.4942 9.55098C25.4727 9.78266 25.5446 10.0133 25.6941 10.1923C26.7068 11.3822 27.2626 12.8911 27.2626 14.4504C27.2626 16.0098 26.7068 17.5186 25.6941 18.7086C25.6199 18.7971 25.5641 18.8994 25.5297 19.0094C25.4953 19.1195 25.4831 19.2352 25.4937 19.3499C25.5043 19.4647 25.5376 19.5762 25.5916 19.6782C25.6457 19.7801 25.7194 19.8704 25.8085 19.944Z" fill="white"/>
<path d="M30.3338 21.7839C30.4343 21.8419 30.5453 21.8794 30.6605 21.8945C30.7756 21.9096 30.8926 21.9018 31.0047 21.8717C31.1169 21.8415 31.2219 21.7896 31.3138 21.7189C31.4056 21.6482 31.4825 21.5602 31.5401 21.4598C32.7765 19.3287 33.4275 16.9112 33.4275 14.4504C33.4275 11.9896 32.7765 9.57221 31.5401 7.4411C31.4233 7.23894 31.2306 7.09121 31.0044 7.03041C30.7782 6.96962 30.537 7.00073 30.3338 7.11692C30.1306 7.23311 29.9822 7.42485 29.9211 7.64995C29.86 7.87506 29.8913 8.1151 30.008 8.31727C31.0899 10.182 31.6595 12.2972 31.6595 14.4504C31.6595 16.6036 31.0899 18.7189 30.008 20.5836C29.9498 20.6836 29.912 20.7941 29.8969 20.9086C29.8818 21.0232 29.8896 21.1397 29.9199 21.2512C29.9501 21.3628 30.0023 21.4673 30.0733 21.5587C30.1444 21.6502 30.2329 21.7267 30.3338 21.7839Z" fill="white"/>
<path d="M16.378 8.95691C16.289 8.88313 16.1863 8.82755 16.0757 8.79334C15.9651 8.75913 15.8488 8.74697 15.7335 8.75755C15.6182 8.76813 15.5061 8.80124 15.4037 8.855C15.3012 8.90875 15.2104 8.98209 15.1365 9.07081C13.7647 10.7134 13.0611 12.8078 13.1642 14.9411C13.281 16.7368 13.9686 18.449 15.1277 19.8301C15.2105 19.929 15.3142 20.0086 15.4313 20.0631C15.5485 20.1176 15.6763 20.1458 15.8057 20.1455C16.0114 20.1459 16.2108 20.0746 16.3692 19.944C16.4577 19.8699 16.5307 19.779 16.5839 19.6768C16.6371 19.5745 16.6696 19.4629 16.6794 19.3481C16.6892 19.2334 16.6762 19.1178 16.6411 19.0081C16.606 18.8984 16.5495 18.7966 16.4749 18.7086C15.4638 17.5179 14.909 16.0094 14.909 14.4505C14.909 12.8916 15.4638 11.383 16.4749 10.1923C16.55 10.1049 16.6071 10.0035 16.6429 9.89413C16.6788 9.78472 16.6926 9.66936 16.6836 9.55464C16.6746 9.43992 16.643 9.32809 16.5905 9.22553C16.5381 9.12297 16.4659 9.03169 16.378 8.95691Z" fill="white"/>
<path d="M11.8441 7.11695C11.642 7.00272 11.4026 6.9727 11.1783 7.03343C10.9539 7.09417 10.7628 7.24072 10.6467 7.44113C9.41022 9.57224 8.75928 11.9897 8.75928 14.4505C8.75928 16.9112 9.41022 19.3287 10.6467 21.4598C10.7042 21.5602 10.7811 21.6483 10.873 21.719C10.9649 21.7896 11.0699 21.8416 11.182 21.8717C11.2941 21.9018 11.4111 21.9096 11.5263 21.8945C11.6414 21.8795 11.7525 21.8419 11.853 21.784C11.9538 21.7267 12.0424 21.6502 12.1134 21.5588C12.1844 21.4673 12.2366 21.3628 12.2669 21.2513C12.2972 21.1397 12.305 21.0233 12.2898 20.9087C12.2747 20.7941 12.237 20.6836 12.1787 20.5836C11.0968 18.7189 10.5273 16.6036 10.5273 14.4505C10.5273 12.2973 11.0968 10.182 12.1787 8.3173C12.2366 8.21677 12.2738 8.10583 12.2883 7.99089C12.3028 7.87594 12.2943 7.75928 12.2632 7.64765C12.232 7.53602 12.179 7.43164 12.1071 7.34054C12.0351 7.24945 11.9458 7.17345 11.8441 7.11695Z" fill="white"/>
</g>
</g>
<g filter="url(#filter1_d)">
<mask id="path-10-outside-1" maskUnits="userSpaceOnUse" x="39.7031" y="7.00098" width="94" height="18" fill="black">
<rect fill="white" x="39.7031" y="7.00098" width="94" height="18"/>
<path d="M41.7031 10.627V10.4775C41.7031 10.1553 41.7676 9.93262 41.8965 9.80957C42.0312 9.68066 42.2598 9.61621 42.582 9.61621H52.5928C52.9385 9.61621 53.1699 9.68359 53.2871 9.81836C53.4102 9.94727 53.4717 10.167 53.4717 10.4775V10.627C53.4717 10.9023 53.4189 11.1074 53.3135 11.2422C53.2139 11.3711 53.1113 11.4443 53.0059 11.4619C52.9004 11.4795 52.7393 11.4883 52.5225 11.4883C52.2588 11.4883 51.6523 11.4795 50.7031 11.4619C49.7539 11.4443 49.1475 11.4355 48.8838 11.4355V21.1387C48.8838 21.4609 48.8223 21.6865 48.6992 21.8154C48.582 21.9385 48.3564 22 48.0225 22H47.1699C46.8359 22 46.6074 21.9385 46.4844 21.8154C46.3672 21.6865 46.3086 21.4609 46.3086 21.1387V11.4355C44.3984 11.4707 43.1797 11.4883 42.6523 11.4883C42.4824 11.4883 42.3594 11.4824 42.2832 11.4707C42.207 11.459 42.1133 11.4297 42.002 11.3828C41.8965 11.3301 41.8203 11.2422 41.7734 11.1191C41.7266 10.9961 41.7031 10.832 41.7031 10.627Z"/>
<path d="M53.085 17.8076C53.085 16.3428 53.4688 15.25 54.2363 14.5293C55.0098 13.8086 56.0674 13.4482 57.4092 13.4482C58.1299 13.4482 58.7451 13.5596 59.2549 13.7822C59.7646 14.0049 60.1543 14.3125 60.4238 14.7051C60.6934 15.0918 60.8838 15.502 60.9951 15.9355C61.1123 16.3691 61.1709 16.8496 61.1709 17.377C61.1709 17.8926 60.9072 18.1504 60.3799 18.1504H55.4141C55.4609 19.9727 56.2227 20.8838 57.6992 20.8838C58.2266 20.8838 58.707 20.7988 59.1406 20.6289C59.5801 20.4531 59.9375 20.2598 60.2129 20.0488C60.4941 19.8379 60.6582 19.7266 60.7051 19.7148H60.7754L60.8633 19.75C60.9219 19.8086 60.9658 19.9434 60.9951 20.1543C61.0303 20.3652 61.0479 20.5615 61.0479 20.7432L61.0654 21.0068C61.0654 21.165 60.9688 21.2969 60.7754 21.4023C59.8496 21.9297 58.8125 22.1963 57.6641 22.2021C56.1641 22.2021 55.0244 21.8301 54.2451 21.0859C53.4717 20.3418 53.085 19.249 53.085 17.8076ZM55.4316 16.9814H59.1582C59.123 16.2842 58.9854 15.7422 58.7451 15.3555C58.5049 14.9629 58.0596 14.7666 57.4092 14.7666C56.2373 14.7666 55.5781 15.5049 55.4316 16.9814Z"/>
<path d="M62.8232 21.1914V9.85352C62.8232 9.29102 63.0752 9.00684 63.5791 9.00098C63.5791 9.00098 63.8545 9.00098 64.4053 9.00098C64.9561 9.00098 65.2314 9.27344 65.2314 9.81836V21.1211C65.2314 21.2676 65.2256 21.3818 65.2139 21.4639C65.2021 21.5459 65.1729 21.6338 65.126 21.7275C65.0791 21.8154 64.9971 21.8799 64.8799 21.9209C64.7686 21.9619 64.6162 21.9883 64.4229 22H63.6846C63.4092 22 63.1953 21.9473 63.043 21.8418C62.8965 21.7305 62.8232 21.5137 62.8232 21.1914Z"/>
<path d="M66.8662 17.8076C66.8662 16.3428 67.25 15.25 68.0176 14.5293C68.791 13.8086 69.8486 13.4482 71.1904 13.4482C71.9111 13.4482 72.5264 13.5596 73.0361 13.7822C73.5459 14.0049 73.9355 14.3125 74.2051 14.7051C74.4746 15.0918 74.665 15.502 74.7764 15.9355C74.8936 16.3691 74.9521 16.8496 74.9521 17.377C74.9521 17.8926 74.6885 18.1504 74.1611 18.1504H69.1953C69.2422 19.9727 70.0039 20.8838 71.4805 20.8838C72.0078 20.8838 72.4883 20.7988 72.9219 20.6289C73.3613 20.4531 73.7188 20.2598 73.9941 20.0488C74.2754 19.8379 74.4395 19.7266 74.4863 19.7148H74.5566L74.6445 19.75C74.7031 19.8086 74.7471 19.9434 74.7764 20.1543C74.8115 20.3652 74.8291 20.5615 74.8291 20.7432L74.8467 21.0068C74.8467 21.165 74.75 21.2969 74.5566 21.4023C73.6309 21.9297 72.5938 22.1963 71.4453 22.2021C69.9453 22.2021 68.8057 21.8301 68.0264 21.0859C67.2529 20.3418 66.8662 19.249 66.8662 17.8076ZM69.2129 16.9814H72.9395C72.9043 16.2842 72.7666 15.7422 72.5264 15.3555C72.2861 14.9629 71.8408 14.7666 71.1904 14.7666C70.0186 14.7666 69.3594 15.5049 69.2129 16.9814Z"/>
<path d="M76.5869 21.1914V14.459C76.5869 13.9316 76.8564 13.668 77.3955 13.668H78.1162C78.2334 13.668 78.3242 13.6738 78.3887 13.6855C78.459 13.6973 78.5439 13.7236 78.6436 13.7646C78.749 13.8057 78.8252 13.8848 78.8721 14.002C78.9189 14.1133 78.9424 14.2598 78.9424 14.4414V14.8018C79.1709 14.585 79.3496 14.4209 79.4785 14.3096C79.6133 14.1924 79.915 14.0371 80.3838 13.8438C80.8525 13.6504 81.3506 13.5537 81.8779 13.5537C82.5869 13.5537 83.1348 13.6592 83.5215 13.8701C83.9141 14.0811 84.2012 14.4209 84.3828 14.8896C85.127 13.999 86.123 13.5537 87.3711 13.5537C87.8867 13.5537 88.3203 13.6182 88.6719 13.7471C89.0234 13.8701 89.2871 14.0137 89.4629 14.1777C89.6387 14.3418 89.7705 14.5762 89.8584 14.8809C89.9521 15.1855 90.0049 15.4375 90.0166 15.6367C90.0283 15.8359 90.0342 16.1143 90.0342 16.4717V21.1914C90.0342 21.4551 89.9756 21.6572 89.8584 21.7979C89.7471 21.9326 89.5273 22 89.1992 22H88.4082C88.3145 22 88.2266 21.9941 88.1445 21.9824C88.0684 21.9707 88.0039 21.9531 87.9512 21.9297C87.8984 21.9062 87.8545 21.8799 87.8193 21.8506C87.7842 21.8154 87.749 21.7773 87.7139 21.7363C87.6846 21.6953 87.6611 21.6602 87.6436 21.6309C87.626 21.6016 87.6143 21.5576 87.6084 21.499C87.6025 21.4346 87.5967 21.3936 87.5908 21.376C87.585 21.3584 87.582 21.3203 87.582 21.2617C87.582 21.2031 87.582 21.168 87.582 21.1562V16.2607C87.582 16.0322 87.5762 15.8594 87.5645 15.7422C87.5527 15.6191 87.5146 15.4814 87.4502 15.3291C87.3857 15.1709 87.2773 15.0566 87.125 14.9863C86.9727 14.9102 86.7705 14.8721 86.5186 14.8721C86.0264 14.8721 85.6191 15.0244 85.2969 15.3291C84.9746 15.6338 84.752 15.9795 84.6289 16.3662C84.5703 16.5713 84.541 16.8818 84.541 17.2979V21.0244C84.541 21.0479 84.541 21.083 84.541 21.1299C84.541 21.1709 84.5264 21.25 84.4971 21.3672C84.4678 21.4785 84.4268 21.5752 84.374 21.6572C84.3271 21.7393 84.251 21.8184 84.1455 21.8945C84.04 21.9648 83.9082 22 83.75 22H82.9238C82.5898 22 82.3643 21.9326 82.2471 21.7979C82.1299 21.6572 82.0713 21.4551 82.0713 21.1914V16.1816C82.0713 15.7129 81.998 15.3789 81.8516 15.1797C81.7109 14.9746 81.4385 14.8721 81.0342 14.8721C80.5068 14.8721 80.0439 15.0742 79.6455 15.4785C79.2471 15.877 79.0479 16.4365 79.0479 17.1572V21.1914C79.0479 21.7305 78.7783 22 78.2393 22H77.4307C76.8682 22 76.5869 21.7305 76.5869 21.1914Z"/>
<path d="M91.6514 19.5303C91.6514 19.0615 91.7891 18.6543 92.0645 18.3086C92.3457 17.9629 92.6797 17.6934 93.0664 17.5C93.459 17.3066 93.9219 17.1543 94.4551 17.043C94.9883 16.9258 95.4482 16.8496 95.835 16.8145C96.2275 16.7793 96.623 16.7617 97.0215 16.7617V16.3838C97.0215 15.8682 96.9365 15.4609 96.7666 15.1621C96.5967 14.8633 96.2539 14.7139 95.7383 14.7139C95.2695 14.7139 94.8418 14.7783 94.4551 14.9072C94.0742 15.0303 93.79 15.1709 93.6025 15.3291C93.4209 15.4814 93.248 15.625 93.084 15.7598C92.9258 15.8887 92.8086 15.9531 92.7324 15.9531L92.6621 15.9355L92.5918 15.8828C92.5566 15.8242 92.5244 15.6777 92.4951 15.4434C92.4658 15.209 92.4453 14.9951 92.4336 14.8018L92.4072 14.4941C92.4072 14.4355 92.4102 14.3916 92.416 14.3623C92.4277 14.333 92.4512 14.3008 92.4863 14.2656C92.5215 14.2246 92.5479 14.1982 92.5654 14.1865C92.583 14.1748 92.6328 14.1514 92.7148 14.1162C92.8027 14.0811 92.8701 14.0518 92.917 14.0283C93.7783 13.6416 94.7188 13.4482 95.7383 13.4482C97.1035 13.4482 98.0645 13.7061 98.6211 14.2217C99.1836 14.7373 99.4648 15.4814 99.4648 16.4541V21.1914C99.4648 21.7305 99.1953 22 98.6562 22H97.7949C97.5312 22 97.3408 21.9297 97.2236 21.7891C97.1123 21.6426 97.0566 21.4727 97.0566 21.2793C96.2656 21.8887 95.3398 22.1963 94.2793 22.2021C93.4766 22.2021 92.8379 21.9268 92.3633 21.376C91.8887 20.8193 91.6514 20.2041 91.6514 19.5303ZM94.0156 19.5303C94.0156 19.876 94.1299 20.1895 94.3584 20.4707C94.5869 20.7461 94.8857 20.8838 95.2549 20.8838C95.665 20.8838 96.0605 20.7549 96.4414 20.4971C96.8281 20.2393 97.0215 19.8174 97.0215 19.2314V17.8252C96.6523 17.8604 96.333 17.8984 96.0635 17.9395C95.7998 17.9805 95.4863 18.0596 95.123 18.1768C94.7656 18.2881 94.4902 18.4609 94.2969 18.6953C94.1094 18.9297 94.0156 19.208 94.0156 19.5303Z"/>
<path d="M101.126 21.1035C101.126 21.0566 101.199 20.6348 101.346 19.8379C101.381 19.5625 101.466 19.4248 101.601 19.4248C101.659 19.4248 101.8 19.5361 102.022 19.7588C102.245 19.9814 102.57 20.207 102.998 20.4355C103.432 20.6641 103.93 20.7783 104.492 20.7783C105.43 20.7783 105.898 20.459 105.898 19.8203C105.898 19.4863 105.755 19.2432 105.468 19.0908C105.181 18.9326 104.759 18.8096 104.202 18.7217C103.651 18.6279 103.282 18.5459 103.095 18.4756C102.626 18.2939 102.195 18.0068 101.803 17.6143C101.416 17.2158 101.223 16.6914 101.223 16.041C101.223 14.3594 102.23 13.4951 104.246 13.4482H104.712C105.479 13.46 106.212 13.6094 106.909 13.8965C107.091 13.9668 107.208 14.0283 107.261 14.0811C107.313 14.1279 107.34 14.2129 107.34 14.3359C107.34 14.4062 107.281 14.7842 107.164 15.4697C107.117 15.6514 107.044 15.7393 106.944 15.7334C106.862 15.7334 106.722 15.6543 106.522 15.4961C106.323 15.332 106.036 15.1709 105.661 15.0127C105.292 14.8486 104.85 14.7666 104.334 14.7666C103.443 14.7666 102.998 15.0537 102.998 15.6279C102.998 15.9385 103.165 16.167 103.499 16.3135C103.839 16.4541 104.293 16.5771 104.861 16.6826C105.436 16.7822 105.854 16.9053 106.118 17.0518C106.347 17.1572 106.561 17.2949 106.76 17.4648C106.965 17.6348 107.173 17.9043 107.384 18.2734C107.595 18.6367 107.7 19.0381 107.7 19.4775C107.7 20.4854 107.41 21.1914 106.83 21.5957C106.256 22 105.465 22.2021 104.457 22.2021C103.209 22.2021 102.137 21.9121 101.24 21.332L101.17 21.2441C101.141 21.1738 101.126 21.127 101.126 21.1035Z"/>
<path d="M108.544 14.4062C108.544 13.9727 108.808 13.7559 109.335 13.7559H109.766V12.209C109.766 11.6699 110.056 11.4004 110.636 11.4004H111.277C111.816 11.4004 112.086 11.6699 112.086 12.209V13.7559H113.729C113.946 13.7559 114.119 13.8057 114.248 13.9053C114.383 13.999 114.465 14.0869 114.494 14.1689C114.523 14.251 114.538 14.3359 114.538 14.4238C114.538 14.5059 114.523 14.5908 114.494 14.6787C114.465 14.7607 114.386 14.8486 114.257 14.9424C114.134 15.0303 113.97 15.0742 113.765 15.0742H112.086V18.6689C112.086 18.7275 112.083 18.8066 112.077 18.9062C112.071 19 112.068 19.0762 112.068 19.1348C112.068 19.7734 112.127 20.21 112.244 20.4443C112.367 20.6787 112.561 20.7959 112.824 20.7959C113.158 20.7959 113.507 20.6904 113.87 20.4795C114.233 20.2686 114.427 20.1631 114.45 20.1631C114.532 20.1631 114.605 20.248 114.67 20.418C114.74 20.582 114.793 20.749 114.828 20.9189L114.863 21.1562C114.863 21.3848 114.488 21.6162 113.738 21.8506C112.988 22.085 112.271 22.2021 111.585 22.2021C110.706 22.2021 110.138 21.7686 109.88 20.9014C109.774 20.5439 109.719 19.999 109.713 19.2666V15.0742H109.335C108.808 15.0742 108.544 14.8516 108.544 14.4062Z"/>
<path d="M115.979 17.8076C115.979 16.3428 116.363 15.25 117.131 14.5293C117.904 13.8086 118.962 13.4482 120.304 13.4482C121.024 13.4482 121.64 13.5596 122.149 13.7822C122.659 14.0049 123.049 14.3125 123.318 14.7051C123.588 15.0918 123.778 15.502 123.89 15.9355C124.007 16.3691 124.065 16.8496 124.065 17.377C124.065 17.8926 123.802 18.1504 123.274 18.1504H118.309C118.355 19.9727 119.117 20.8838 120.594 20.8838C121.121 20.8838 121.602 20.7988 122.035 20.6289C122.475 20.4531 122.832 20.2598 123.107 20.0488C123.389 19.8379 123.553 19.7266 123.6 19.7148H123.67L123.758 19.75C123.816 19.8086 123.86 19.9434 123.89 20.1543C123.925 20.3652 123.942 20.5615 123.942 20.7432L123.96 21.0068C123.96 21.165 123.863 21.2969 123.67 21.4023C122.744 21.9297 121.707 22.1963 120.559 22.2021C119.059 22.2021 117.919 21.8301 117.14 21.0859C116.366 20.3418 115.979 19.249 115.979 17.8076ZM118.326 16.9814H122.053C122.018 16.2842 121.88 15.7422 121.64 15.3555C121.399 14.9629 120.954 14.7666 120.304 14.7666C119.132 14.7666 118.473 15.5049 118.326 16.9814Z"/>
<path d="M125.718 21.2266V14.4766C125.718 14.1309 125.791 13.9111 125.938 13.8174C126.09 13.7178 126.292 13.668 126.544 13.668H127.142C127.464 13.668 127.704 13.7441 127.862 13.8965C127.944 13.9902 127.991 14.0869 128.003 14.1865C128.015 14.2861 128.026 14.5615 128.038 15.0127C128.325 14.6143 128.671 14.2979 129.075 14.0635C129.485 13.8232 129.808 13.6797 130.042 13.6328C130.276 13.5801 130.484 13.5537 130.666 13.5537H130.684C130.842 13.5537 130.941 13.5859 130.982 13.6504C131.023 13.709 131.044 13.8115 131.044 13.958V14.96C131.044 15.0947 131.015 15.2031 130.956 15.2852C130.886 15.3438 130.728 15.3906 130.481 15.4258C130.235 15.4551 130.016 15.499 129.822 15.5576C129.412 15.7041 129.058 15.9268 128.759 16.2256C128.46 16.5244 128.267 16.8701 128.179 17.2627C128.144 17.4209 128.126 17.6494 128.126 17.9482V21.1035C128.126 21.3555 128.108 21.5195 128.073 21.5957C128.038 21.6719 127.947 21.7715 127.801 21.8945C127.654 21.9648 127.487 22 127.3 22H126.526C126.204 22 125.987 21.9297 125.876 21.7891C125.771 21.6426 125.718 21.4551 125.718 21.2266Z"/>
</mask>
<path d="M41.7031 10.627V10.4775C41.7031 10.1553 41.7676 9.93262 41.8965 9.80957C42.0312 9.68066 42.2598 9.61621 42.582 9.61621H52.5928C52.9385 9.61621 53.1699 9.68359 53.2871 9.81836C53.4102 9.94727 53.4717 10.167 53.4717 10.4775V10.627C53.4717 10.9023 53.4189 11.1074 53.3135 11.2422C53.2139 11.3711 53.1113 11.4443 53.0059 11.4619C52.9004 11.4795 52.7393 11.4883 52.5225 11.4883C52.2588 11.4883 51.6523 11.4795 50.7031 11.4619C49.7539 11.4443 49.1475 11.4355 48.8838 11.4355V21.1387C48.8838 21.4609 48.8223 21.6865 48.6992 21.8154C48.582 21.9385 48.3564 22 48.0225 22H47.1699C46.8359 22 46.6074 21.9385 46.4844 21.8154C46.3672 21.6865 46.3086 21.4609 46.3086 21.1387V11.4355C44.3984 11.4707 43.1797 11.4883 42.6523 11.4883C42.4824 11.4883 42.3594 11.4824 42.2832 11.4707C42.207 11.459 42.1133 11.4297 42.002 11.3828C41.8965 11.3301 41.8203 11.2422 41.7734 11.1191C41.7266 10.9961 41.7031 10.832 41.7031 10.627Z" fill="white"/>
<path d="M53.085 17.8076C53.085 16.3428 53.4688 15.25 54.2363 14.5293C55.0098 13.8086 56.0674 13.4482 57.4092 13.4482C58.1299 13.4482 58.7451 13.5596 59.2549 13.7822C59.7646 14.0049 60.1543 14.3125 60.4238 14.7051C60.6934 15.0918 60.8838 15.502 60.9951 15.9355C61.1123 16.3691 61.1709 16.8496 61.1709 17.377C61.1709 17.8926 60.9072 18.1504 60.3799 18.1504H55.4141C55.4609 19.9727 56.2227 20.8838 57.6992 20.8838C58.2266 20.8838 58.707 20.7988 59.1406 20.6289C59.5801 20.4531 59.9375 20.2598 60.2129 20.0488C60.4941 19.8379 60.6582 19.7266 60.7051 19.7148H60.7754L60.8633 19.75C60.9219 19.8086 60.9658 19.9434 60.9951 20.1543C61.0303 20.3652 61.0479 20.5615 61.0479 20.7432L61.0654 21.0068C61.0654 21.165 60.9688 21.2969 60.7754 21.4023C59.8496 21.9297 58.8125 22.1963 57.6641 22.2021C56.1641 22.2021 55.0244 21.8301 54.2451 21.0859C53.4717 20.3418 53.085 19.249 53.085 17.8076ZM55.4316 16.9814H59.1582C59.123 16.2842 58.9854 15.7422 58.7451 15.3555C58.5049 14.9629 58.0596 14.7666 57.4092 14.7666C56.2373 14.7666 55.5781 15.5049 55.4316 16.9814Z" fill="white"/>
<path d="M62.8232 21.1914V9.85352C62.8232 9.29102 63.0752 9.00684 63.5791 9.00098C63.5791 9.00098 63.8545 9.00098 64.4053 9.00098C64.9561 9.00098 65.2314 9.27344 65.2314 9.81836V21.1211C65.2314 21.2676 65.2256 21.3818 65.2139 21.4639C65.2021 21.5459 65.1729 21.6338 65.126 21.7275C65.0791 21.8154 64.9971 21.8799 64.8799 21.9209C64.7686 21.9619 64.6162 21.9883 64.4229 22H63.6846C63.4092 22 63.1953 21.9473 63.043 21.8418C62.8965 21.7305 62.8232 21.5137 62.8232 21.1914Z" fill="white"/>
<path d="M66.8662 17.8076C66.8662 16.3428 67.25 15.25 68.0176 14.5293C68.791 13.8086 69.8486 13.4482 71.1904 13.4482C71.9111 13.4482 72.5264 13.5596 73.0361 13.7822C73.5459 14.0049 73.9355 14.3125 74.2051 14.7051C74.4746 15.0918 74.665 15.502 74.7764 15.9355C74.8936 16.3691 74.9521 16.8496 74.9521 17.377C74.9521 17.8926 74.6885 18.1504 74.1611 18.1504H69.1953C69.2422 19.9727 70.0039 20.8838 71.4805 20.8838C72.0078 20.8838 72.4883 20.7988 72.9219 20.6289C73.3613 20.4531 73.7188 20.2598 73.9941 20.0488C74.2754 19.8379 74.4395 19.7266 74.4863 19.7148H74.5566L74.6445 19.75C74.7031 19.8086 74.7471 19.9434 74.7764 20.1543C74.8115 20.3652 74.8291 20.5615 74.8291 20.7432L74.8467 21.0068C74.8467 21.165 74.75 21.2969 74.5566 21.4023C73.6309 21.9297 72.5938 22.1963 71.4453 22.2021C69.9453 22.2021 68.8057 21.8301 68.0264 21.0859C67.2529 20.3418 66.8662 19.249 66.8662 17.8076ZM69.2129 16.9814H72.9395C72.9043 16.2842 72.7666 15.7422 72.5264 15.3555C72.2861 14.9629 71.8408 14.7666 71.1904 14.7666C70.0186 14.7666 69.3594 15.5049 69.2129 16.9814Z" fill="white"/>
<path d="M76.5869 21.1914V14.459C76.5869 13.9316 76.8564 13.668 77.3955 13.668H78.1162C78.2334 13.668 78.3242 13.6738 78.3887 13.6855C78.459 13.6973 78.5439 13.7236 78.6436 13.7646C78.749 13.8057 78.8252 13.8848 78.8721 14.002C78.9189 14.1133 78.9424 14.2598 78.9424 14.4414V14.8018C79.1709 14.585 79.3496 14.4209 79.4785 14.3096C79.6133 14.1924 79.915 14.0371 80.3838 13.8438C80.8525 13.6504 81.3506 13.5537 81.8779 13.5537C82.5869 13.5537 83.1348 13.6592 83.5215 13.8701C83.9141 14.0811 84.2012 14.4209 84.3828 14.8896C85.127 13.999 86.123 13.5537 87.3711 13.5537C87.8867 13.5537 88.3203 13.6182 88.6719 13.7471C89.0234 13.8701 89.2871 14.0137 89.4629 14.1777C89.6387 14.3418 89.7705 14.5762 89.8584 14.8809C89.9521 15.1855 90.0049 15.4375 90.0166 15.6367C90.0283 15.8359 90.0342 16.1143 90.0342 16.4717V21.1914C90.0342 21.4551 89.9756 21.6572 89.8584 21.7979C89.7471 21.9326 89.5273 22 89.1992 22H88.4082C88.3145 22 88.2266 21.9941 88.1445 21.9824C88.0684 21.9707 88.0039 21.9531 87.9512 21.9297C87.8984 21.9062 87.8545 21.8799 87.8193 21.8506C87.7842 21.8154 87.749 21.7773 87.7139 21.7363C87.6846 21.6953 87.6611 21.6602 87.6436 21.6309C87.626 21.6016 87.6143 21.5576 87.6084 21.499C87.6025 21.4346 87.5967 21.3936 87.5908 21.376C87.585 21.3584 87.582 21.3203 87.582 21.2617C87.582 21.2031 87.582 21.168 87.582 21.1562V16.2607C87.582 16.0322 87.5762 15.8594 87.5645 15.7422C87.5527 15.6191 87.5146 15.4814 87.4502 15.3291C87.3857 15.1709 87.2773 15.0566 87.125 14.9863C86.9727 14.9102 86.7705 14.8721 86.5186 14.8721C86.0264 14.8721 85.6191 15.0244 85.2969 15.3291C84.9746 15.6338 84.752 15.9795 84.6289 16.3662C84.5703 16.5713 84.541 16.8818 84.541 17.2979V21.0244C84.541 21.0479 84.541 21.083 84.541 21.1299C84.541 21.1709 84.5264 21.25 84.4971 21.3672C84.4678 21.4785 84.4268 21.5752 84.374 21.6572C84.3271 21.7393 84.251 21.8184 84.1455 21.8945C84.04 21.9648 83.9082 22 83.75 22H82.9238C82.5898 22 82.3643 21.9326 82.2471 21.7979C82.1299 21.6572 82.0713 21.4551 82.0713 21.1914V16.1816C82.0713 15.7129 81.998 15.3789 81.8516 15.1797C81.7109 14.9746 81.4385 14.8721 81.0342 14.8721C80.5068 14.8721 80.0439 15.0742 79.6455 15.4785C79.2471 15.877 79.0479 16.4365 79.0479 17.1572V21.1914C79.0479 21.7305 78.7783 22 78.2393 22H77.4307C76.8682 22 76.5869 21.7305 76.5869 21.1914Z" fill="white"/>
<path d="M91.6514 19.5303C91.6514 19.0615 91.7891 18.6543 92.0645 18.3086C92.3457 17.9629 92.6797 17.6934 93.0664 17.5C93.459 17.3066 93.9219 17.1543 94.4551 17.043C94.9883 16.9258 95.4482 16.8496 95.835 16.8145C96.2275 16.7793 96.623 16.7617 97.0215 16.7617V16.3838C97.0215 15.8682 96.9365 15.4609 96.7666 15.1621C96.5967 14.8633 96.2539 14.7139 95.7383 14.7139C95.2695 14.7139 94.8418 14.7783 94.4551 14.9072C94.0742 15.0303 93.79 15.1709 93.6025 15.3291C93.4209 15.4814 93.248 15.625 93.084 15.7598C92.9258 15.8887 92.8086 15.9531 92.7324 15.9531L92.6621 15.9355L92.5918 15.8828C92.5566 15.8242 92.5244 15.6777 92.4951 15.4434C92.4658 15.209 92.4453 14.9951 92.4336 14.8018L92.4072 14.4941C92.4072 14.4355 92.4102 14.3916 92.416 14.3623C92.4277 14.333 92.4512 14.3008 92.4863 14.2656C92.5215 14.2246 92.5479 14.1982 92.5654 14.1865C92.583 14.1748 92.6328 14.1514 92.7148 14.1162C92.8027 14.0811 92.8701 14.0518 92.917 14.0283C93.7783 13.6416 94.7188 13.4482 95.7383 13.4482C97.1035 13.4482 98.0645 13.7061 98.6211 14.2217C99.1836 14.7373 99.4648 15.4814 99.4648 16.4541V21.1914C99.4648 21.7305 99.1953 22 98.6562 22H97.7949C97.5312 22 97.3408 21.9297 97.2236 21.7891C97.1123 21.6426 97.0566 21.4727 97.0566 21.2793C96.2656 21.8887 95.3398 22.1963 94.2793 22.2021C93.4766 22.2021 92.8379 21.9268 92.3633 21.376C91.8887 20.8193 91.6514 20.2041 91.6514 19.5303ZM94.0156 19.5303C94.0156 19.876 94.1299 20.1895 94.3584 20.4707C94.5869 20.7461 94.8857 20.8838 95.2549 20.8838C95.665 20.8838 96.0605 20.7549 96.4414 20.4971C96.8281 20.2393 97.0215 19.8174 97.0215 19.2314V17.8252C96.6523 17.8604 96.333 17.8984 96.0635 17.9395C95.7998 17.9805 95.4863 18.0596 95.123 18.1768C94.7656 18.2881 94.4902 18.4609 94.2969 18.6953C94.1094 18.9297 94.0156 19.208 94.0156 19.5303Z" fill="white"/>
<path d="M101.126 21.1035C101.126 21.0566 101.199 20.6348 101.346 19.8379C101.381 19.5625 101.466 19.4248 101.601 19.4248C101.659 19.4248 101.8 19.5361 102.022 19.7588C102.245 19.9814 102.57 20.207 102.998 20.4355C103.432 20.6641 103.93 20.7783 104.492 20.7783C105.43 20.7783 105.898 20.459 105.898 19.8203C105.898 19.4863 105.755 19.2432 105.468 19.0908C105.181 18.9326 104.759 18.8096 104.202 18.7217C103.651 18.6279 103.282 18.5459 103.095 18.4756C102.626 18.2939 102.195 18.0068 101.803 17.6143C101.416 17.2158 101.223 16.6914 101.223 16.041C101.223 14.3594 102.23 13.4951 104.246 13.4482H104.712C105.479 13.46 106.212 13.6094 106.909 13.8965C107.091 13.9668 107.208 14.0283 107.261 14.0811C107.313 14.1279 107.34 14.2129 107.34 14.3359C107.34 14.4062 107.281 14.7842 107.164 15.4697C107.117 15.6514 107.044 15.7393 106.944 15.7334C106.862 15.7334 106.722 15.6543 106.522 15.4961C106.323 15.332 106.036 15.1709 105.661 15.0127C105.292 14.8486 104.85 14.7666 104.334 14.7666C103.443 14.7666 102.998 15.0537 102.998 15.6279C102.998 15.9385 103.165 16.167 103.499 16.3135C103.839 16.4541 104.293 16.5771 104.861 16.6826C105.436 16.7822 105.854 16.9053 106.118 17.0518C106.347 17.1572 106.561 17.2949 106.76 17.4648C106.965 17.6348 107.173 17.9043 107.384 18.2734C107.595 18.6367 107.7 19.0381 107.7 19.4775C107.7 20.4854 107.41 21.1914 106.83 21.5957C106.256 22 105.465 22.2021 104.457 22.2021C103.209 22.2021 102.137 21.9121 101.24 21.332L101.17 21.2441C101.141 21.1738 101.126 21.127 101.126 21.1035Z" fill="white"/>
<path d="M108.544 14.4062C108.544 13.9727 108.808 13.7559 109.335 13.7559H109.766V12.209C109.766 11.6699 110.056 11.4004 110.636 11.4004H111.277C111.816 11.4004 112.086 11.6699 112.086 12.209V13.7559H113.729C113.946 13.7559 114.119 13.8057 114.248 13.9053C114.383 13.999 114.465 14.0869 114.494 14.1689C114.523 14.251 114.538 14.3359 114.538 14.4238C114.538 14.5059 114.523 14.5908 114.494 14.6787C114.465 14.7607 114.386 14.8486 114.257 14.9424C114.134 15.0303 113.97 15.0742 113.765 15.0742H112.086V18.6689C112.086 18.7275 112.083 18.8066 112.077 18.9062C112.071 19 112.068 19.0762 112.068 19.1348C112.068 19.7734 112.127 20.21 112.244 20.4443C112.367 20.6787 112.561 20.7959 112.824 20.7959C113.158 20.7959 113.507 20.6904 113.87 20.4795C114.233 20.2686 114.427 20.1631 114.45 20.1631C114.532 20.1631 114.605 20.248 114.67 20.418C114.74 20.582 114.793 20.749 114.828 20.9189L114.863 21.1562C114.863 21.3848 114.488 21.6162 113.738 21.8506C112.988 22.085 112.271 22.2021 111.585 22.2021C110.706 22.2021 110.138 21.7686 109.88 20.9014C109.774 20.5439 109.719 19.999 109.713 19.2666V15.0742H109.335C108.808 15.0742 108.544 14.8516 108.544 14.4062Z" fill="white"/>
<path d="M115.979 17.8076C115.979 16.3428 116.363 15.25 117.131 14.5293C117.904 13.8086 118.962 13.4482 120.304 13.4482C121.024 13.4482 121.64 13.5596 122.149 13.7822C122.659 14.0049 123.049 14.3125 123.318 14.7051C123.588 15.0918 123.778 15.502 123.89 15.9355C124.007 16.3691 124.065 16.8496 124.065 17.377C124.065 17.8926 123.802 18.1504 123.274 18.1504H118.309C118.355 19.9727 119.117 20.8838 120.594 20.8838C121.121 20.8838 121.602 20.7988 122.035 20.6289C122.475 20.4531 122.832 20.2598 123.107 20.0488C123.389 19.8379 123.553 19.7266 123.6 19.7148H123.67L123.758 19.75C123.816 19.8086 123.86 19.9434 123.89 20.1543C123.925 20.3652 123.942 20.5615 123.942 20.7432L123.96 21.0068C123.96 21.165 123.863 21.2969 123.67 21.4023C122.744 21.9297 121.707 22.1963 120.559 22.2021C119.059 22.2021 117.919 21.8301 117.14 21.0859C116.366 20.3418 115.979 19.249 115.979 17.8076ZM118.326 16.9814H122.053C122.018 16.2842 121.88 15.7422 121.64 15.3555C121.399 14.9629 120.954 14.7666 120.304 14.7666C119.132 14.7666 118.473 15.5049 118.326 16.9814Z" fill="white"/>
<path d="M125.718 21.2266V14.4766C125.718 14.1309 125.791 13.9111 125.938 13.8174C126.09 13.7178 126.292 13.668 126.544 13.668H127.142C127.464 13.668 127.704 13.7441 127.862 13.8965C127.944 13.9902 127.991 14.0869 128.003 14.1865C128.015 14.2861 128.026 14.5615 128.038 15.0127C128.325 14.6143 128.671 14.2979 129.075 14.0635C129.485 13.8232 129.808 13.6797 130.042 13.6328C130.276 13.5801 130.484 13.5537 130.666 13.5537H130.684C130.842 13.5537 130.941 13.5859 130.982 13.6504C131.023 13.709 131.044 13.8115 131.044 13.958V14.96C131.044 15.0947 131.015 15.2031 130.956 15.2852C130.886 15.3438 130.728 15.3906 130.481 15.4258C130.235 15.4551 130.016 15.499 129.822 15.5576C129.412 15.7041 129.058 15.9268 128.759 16.2256C128.46 16.5244 128.267 16.8701 128.179 17.2627C128.144 17.4209 128.126 17.6494 128.126 17.9482V21.1035C128.126 21.3555 128.108 21.5195 128.073 21.5957C128.038 21.6719 127.947 21.7715 127.801 21.8945C127.654 21.9648 127.487 22 127.3 22H126.526C126.204 22 125.987 21.9297 125.876 21.7891C125.771 21.6426 125.718 21.4551 125.718 21.2266Z" fill="white"/>
<path d="M41.7031 10.627V10.4775C41.7031 10.1553 41.7676 9.93262 41.8965 9.80957C42.0312 9.68066 42.2598 9.61621 42.582 9.61621H52.5928C52.9385 9.61621 53.1699 9.68359 53.2871 9.81836C53.4102 9.94727 53.4717 10.167 53.4717 10.4775V10.627C53.4717 10.9023 53.4189 11.1074 53.3135 11.2422C53.2139 11.3711 53.1113 11.4443 53.0059 11.4619C52.9004 11.4795 52.7393 11.4883 52.5225 11.4883C52.2588 11.4883 51.6523 11.4795 50.7031 11.4619C49.7539 11.4443 49.1475 11.4355 48.8838 11.4355V21.1387C48.8838 21.4609 48.8223 21.6865 48.6992 21.8154C48.582 21.9385 48.3564 22 48.0225 22H47.1699C46.8359 22 46.6074 21.9385 46.4844 21.8154C46.3672 21.6865 46.3086 21.4609 46.3086 21.1387V11.4355C44.3984 11.4707 43.1797 11.4883 42.6523 11.4883C42.4824 11.4883 42.3594 11.4824 42.2832 11.4707C42.207 11.459 42.1133 11.4297 42.002 11.3828C41.8965 11.3301 41.8203 11.2422 41.7734 11.1191C41.7266 10.9961 41.7031 10.832 41.7031 10.627Z" stroke="black" stroke-width="4" mask="url(#path-10-outside-1)"/>
<path d="M53.085 17.8076C53.085 16.3428 53.4688 15.25 54.2363 14.5293C55.0098 13.8086 56.0674 13.4482 57.4092 13.4482C58.1299 13.4482 58.7451 13.5596 59.2549 13.7822C59.7646 14.0049 60.1543 14.3125 60.4238 14.7051C60.6934 15.0918 60.8838 15.502 60.9951 15.9355C61.1123 16.3691 61.1709 16.8496 61.1709 17.377C61.1709 17.8926 60.9072 18.1504 60.3799 18.1504H55.4141C55.4609 19.9727 56.2227 20.8838 57.6992 20.8838C58.2266 20.8838 58.707 20.7988 59.1406 20.6289C59.5801 20.4531 59.9375 20.2598 60.2129 20.0488C60.4941 19.8379 60.6582 19.7266 60.7051 19.7148H60.7754L60.8633 19.75C60.9219 19.8086 60.9658 19.9434 60.9951 20.1543C61.0303 20.3652 61.0479 20.5615 61.0479 20.7432L61.0654 21.0068C61.0654 21.165 60.9688 21.2969 60.7754 21.4023C59.8496 21.9297 58.8125 22.1963 57.6641 22.2021C56.1641 22.2021 55.0244 21.8301 54.2451 21.0859C53.4717 20.3418 53.085 19.249 53.085 17.8076ZM55.4316 16.9814H59.1582C59.123 16.2842 58.9854 15.7422 58.7451 15.3555C58.5049 14.9629 58.0596 14.7666 57.4092 14.7666C56.2373 14.7666 55.5781 15.5049 55.4316 16.9814Z" stroke="black" stroke-width="4" mask="url(#path-10-outside-1)"/>
<path d="M62.8232 21.1914V9.85352C62.8232 9.29102 63.0752 9.00684 63.5791 9.00098C63.5791 9.00098 63.8545 9.00098 64.4053 9.00098C64.9561 9.00098 65.2314 9.27344 65.2314 9.81836V21.1211C65.2314 21.2676 65.2256 21.3818 65.2139 21.4639C65.2021 21.5459 65.1729 21.6338 65.126 21.7275C65.0791 21.8154 64.9971 21.8799 64.8799 21.9209C64.7686 21.9619 64.6162 21.9883 64.4229 22H63.6846C63.4092 22 63.1953 21.9473 63.043 21.8418C62.8965 21.7305 62.8232 21.5137 62.8232 21.1914Z" stroke="black" stroke-width="4" mask="url(#path-10-outside-1)"/>
<path d="M66.8662 17.8076C66.8662 16.3428 67.25 15.25 68.0176 14.5293C68.791 13.8086 69.8486 13.4482 71.1904 13.4482C71.9111 13.4482 72.5264 13.5596 73.0361 13.7822C73.5459 14.0049 73.9355 14.3125 74.2051 14.7051C74.4746 15.0918 74.665 15.502 74.7764 15.9355C74.8936 16.3691 74.9521 16.8496 74.9521 17.377C74.9521 17.8926 74.6885 18.1504 74.1611 18.1504H69.1953C69.2422 19.9727 70.0039 20.8838 71.4805 20.8838C72.0078 20.8838 72.4883 20.7988 72.9219 20.6289C73.3613 20.4531 73.7188 20.2598 73.9941 20.0488C74.2754 19.8379 74.4395 19.7266 74.4863 19.7148H74.5566L74.6445 19.75C74.7031 19.8086 74.7471 19.9434 74.7764 20.1543C74.8115 20.3652 74.8291 20.5615 74.8291 20.7432L74.8467 21.0068C74.8467 21.165 74.75 21.2969 74.5566 21.4023C73.6309 21.9297 72.5938 22.1963 71.4453 22.2021C69.9453 22.2021 68.8057 21.8301 68.0264 21.0859C67.2529 20.3418 66.8662 19.249 66.8662 17.8076ZM69.2129 16.9814H72.9395C72.9043 16.2842 72.7666 15.7422 72.5264 15.3555C72.2861 14.9629 71.8408 14.7666 71.1904 14.7666C70.0186 14.7666 69.3594 15.5049 69.2129 16.9814Z" stroke="black" stroke-width="4" mask="url(#path-10-outside-1)"/>
<path d="M76.5869 21.1914V14.459C76.5869 13.9316 76.8564 13.668 77.3955 13.668H78.1162C78.2334 13.668 78.3242 13.6738 78.3887 13.6855C78.459 13.6973 78.5439 13.7236 78.6436 13.7646C78.749 13.8057 78.8252 13.8848 78.8721 14.002C78.9189 14.1133 78.9424 14.2598 78.9424 14.4414V14.8018C79.1709 14.585 79.3496 14.4209 79.4785 14.3096C79.6133 14.1924 79.915 14.0371 80.3838 13.8438C80.8525 13.6504 81.3506 13.5537 81.8779 13.5537C82.5869 13.5537 83.1348 13.6592 83.5215 13.8701C83.9141 14.0811 84.2012 14.4209 84.3828 14.8896C85.127 13.999 86.123 13.5537 87.3711 13.5537C87.8867 13.5537 88.3203 13.6182 88.6719 13.7471C89.0234 13.8701 89.2871 14.0137 89.4629 14.1777C89.6387 14.3418 89.7705 14.5762 89.8584 14.8809C89.9521 15.1855 90.0049 15.4375 90.0166 15.6367C90.0283 15.8359 90.0342 16.1143 90.0342 16.4717V21.1914C90.0342 21.4551 89.9756 21.6572 89.8584 21.7979C89.7471 21.9326 89.5273 22 89.1992 22H88.4082C88.3145 22 88.2266 21.9941 88.1445 21.9824C88.0684 21.9707 88.0039 21.9531 87.9512 21.9297C87.8984 21.9062 87.8545 21.8799 87.8193 21.8506C87.7842 21.8154 87.749 21.7773 87.7139 21.7363C87.6846 21.6953 87.6611 21.6602 87.6436 21.6309C87.626 21.6016 87.6143 21.5576 87.6084 21.499C87.6025 21.4346 87.5967 21.3936 87.5908 21.376C87.585 21.3584 87.582 21.3203 87.582 21.2617C87.582 21.2031 87.582 21.168 87.582 21.1562V16.2607C87.582 16.0322 87.5762 15.8594 87.5645 15.7422C87.5527 15.6191 87.5146 15.4814 87.4502 15.3291C87.3857 15.1709 87.2773 15.0566 87.125 14.9863C86.9727 14.9102 86.7705 14.8721 86.5186 14.8721C86.0264 14.8721 85.6191 15.0244 85.2969 15.3291C84.9746 15.6338 84.752 15.9795 84.6289 16.3662C84.5703 16.5713 84.541 16.8818 84.541 17.2979V21.0244C84.541 21.0479 84.541 21.083 84.541 21.1299C84.541 21.1709 84.5264 21.25 84.4971 21.3672C84.4678 21.4785 84.4268 21.5752 84.374 21.6572C84.3271 21.7393 84.251 21.8184 84.1455 21.8945C84.04 21.9648 83.9082 22 83.75 22H82.9238C82.5898 22 82.3643 21.9326 82.2471 21.7979C82.1299 21.6572 82.0713 21.4551 82.0713 21.1914V16.1816C82.0713 15.7129 81.998 15.3789 81.8516 15.1797C81.7109 14.9746 81.4385 14.8721 81.0342 14.8721C80.5068 14.8721 80.0439 15.0742 79.6455 15.4785C79.2471 15.877 79.0479 16.4365 79.0479 17.1572V21.1914C79.0479 21.7305 78.7783 22 78.2393 22H77.4307C76.8682 22 76.5869 21.7305 76.5869 21.1914Z" stroke="black" stroke-width="4" mask="url(#path-10-outside-1)"/>
<path d="M91.6514 19.5303C91.6514 19.0615 91.7891 18.6543 92.0645 18.3086C92.3457 17.9629 92.6797 17.6934 93.0664 17.5C93.459 17.3066 93.9219 17.1543 94.4551 17.043C94.9883 16.9258 95.4482 16.8496 95.835 16.8145C96.2275 16.7793 96.623 16.7617 97.0215 16.7617V16.3838C97.0215 15.8682 96.9365 15.4609 96.7666 15.1621C96.5967 14.8633 96.2539 14.7139 95.7383 14.7139C95.2695 14.7139 94.8418 14.7783 94.4551 14.9072C94.0742 15.0303 93.79 15.1709 93.6025 15.3291C93.4209 15.4814 93.248 15.625 93.084 15.7598C92.9258 15.8887 92.8086 15.9531 92.7324 15.9531L92.6621 15.9355L92.5918 15.8828C92.5566 15.8242 92.5244 15.6777 92.4951 15.4434C92.4658 15.209 92.4453 14.9951 92.4336 14.8018L92.4072 14.4941C92.4072 14.4355 92.4102 14.3916 92.416 14.3623C92.4277 14.333 92.4512 14.3008 92.4863 14.2656C92.5215 14.2246 92.5479 14.1982 92.5654 14.1865C92.583 14.1748 92.6328 14.1514 92.7148 14.1162C92.8027 14.0811 92.8701 14.0518 92.917 14.0283C93.7783 13.6416 94.7188 13.4482 95.7383 13.4482C97.1035 13.4482 98.0645 13.7061 98.6211 14.2217C99.1836 14.7373 99.4648 15.4814 99.4648 16.4541V21.1914C99.4648 21.7305 99.1953 22 98.6562 22H97.7949C97.5312 22 97.3408 21.9297 97.2236 21.7891C97.1123 21.6426 97.0566 21.4727 97.0566 21.2793C96.2656 21.8887 95.3398 22.1963 94.2793 22.2021C93.4766 22.2021 92.8379 21.9268 92.3633 21.376C91.8887 20.8193 91.6514 20.2041 91.6514 19.5303ZM94.0156 19.5303C94.0156 19.876 94.1299 20.1895 94.3584 20.4707C94.5869 20.7461 94.8857 20.8838 95.2549 20.8838C95.665 20.8838 96.0605 20.7549 96.4414 20.4971C96.8281 20.2393 97.0215 19.8174 97.0215 19.2314V17.8252C96.6523 17.8604 96.333 17.8984 96.0635 17.9395C95.7998 17.9805 95.4863 18.0596 95.123 18.1768C94.7656 18.2881 94.4902 18.4609 94.2969 18.6953C94.1094 18.9297 94.0156 19.208 94.0156 19.5303Z" stroke="black" stroke-width="4" mask="url(#path-10-outside-1)"/>
<path d="M101.126 21.1035C101.126 21.0566 101.199 20.6348 101.346 19.8379C101.381 19.5625 101.466 19.4248 101.601 19.4248C101.659 19.4248 101.8 19.5361 102.022 19.7588C102.245 19.9814 102.57 20.207 102.998 20.4355C103.432 20.6641 103.93 20.7783 104.492 20.7783C105.43 20.7783 105.898 20.459 105.898 19.8203C105.898 19.4863 105.755 19.2432 105.468 19.0908C105.181 18.9326 104.759 18.8096 104.202 18.7217C103.651 18.6279 103.282 18.5459 103.095 18.4756C102.626 18.2939 102.195 18.0068 101.803 17.6143C101.416 17.2158 101.223 16.6914 101.223 16.041C101.223 14.3594 102.23 13.4951 104.246 13.4482H104.712C105.479 13.46 106.212 13.6094 106.909 13.8965C107.091 13.9668 107.208 14.0283 107.261 14.0811C107.313 14.1279 107.34 14.2129 107.34 14.3359C107.34 14.4062 107.281 14.7842 107.164 15.4697C107.117 15.6514 107.044 15.7393 106.944 15.7334C106.862 15.7334 106.722 15.6543 106.522 15.4961C106.323 15.332 106.036 15.1709 105.661 15.0127C105.292 14.8486 104.85 14.7666 104.334 14.7666C103.443 14.7666 102.998 15.0537 102.998 15.6279C102.998 15.9385 103.165 16.167 103.499 16.3135C103.839 16.4541 104.293 16.5771 104.861 16.6826C105.436 16.7822 105.854 16.9053 106.118 17.0518C106.347 17.1572 106.561 17.2949 106.76 17.4648C106.965 17.6348 107.173 17.9043 107.384 18.2734C107.595 18.6367 107.7 19.0381 107.7 19.4775C107.7 20.4854 107.41 21.1914 106.83 21.5957C106.256 22 105.465 22.2021 104.457 22.2021C103.209 22.2021 102.137 21.9121 101.24 21.332L101.17 21.2441C101.141 21.1738 101.126 21.127 101.126 21.1035Z" stroke="black" stroke-width="4" mask="url(#path-10-outside-1)"/>
<path d="M108.544 14.4062C108.544 13.9727 108.808 13.7559 109.335 13.7559H109.766V12.209C109.766 11.6699 110.056 11.4004 110.636 11.4004H111.277C111.816 11.4004 112.086 11.6699 112.086 12.209V13.7559H113.729C113.946 13.7559 114.119 13.8057 114.248 13.9053C114.383 13.999 114.465 14.0869 114.494 14.1689C114.523 14.251 114.538 14.3359 114.538 14.4238C114.538 14.5059 114.523 14.5908 114.494 14.6787C114.465 14.7607 114.386 14.8486 114.257 14.9424C114.134 15.0303 113.97 15.0742 113.765 15.0742H112.086V18.6689C112.086 18.7275 112.083 18.8066 112.077 18.9062C112.071 19 112.068 19.0762 112.068 19.1348C112.068 19.7734 112.127 20.21 112.244 20.4443C112.367 20.6787 112.561 20.7959 112.824 20.7959C113.158 20.7959 113.507 20.6904 113.87 20.4795C114.233 20.2686 114.427 20.1631 114.45 20.1631C114.532 20.1631 114.605 20.248 114.67 20.418C114.74 20.582 114.793 20.749 114.828 20.9189L114.863 21.1562C114.863 21.3848 114.488 21.6162 113.738 21.8506C112.988 22.085 112.271 22.2021 111.585 22.2021C110.706 22.2021 110.138 21.7686 109.88 20.9014C109.774 20.5439 109.719 19.999 109.713 19.2666V15.0742H109.335C108.808 15.0742 108.544 14.8516 108.544 14.4062Z" stroke="black" stroke-width="4" mask="url(#path-10-outside-1)"/>
<path d="M115.979 17.8076C115.979 16.3428 116.363 15.25 117.131 14.5293C117.904 13.8086 118.962 13.4482 120.304 13.4482C121.024 13.4482 121.64 13.5596 122.149 13.7822C122.659 14.0049 123.049 14.3125 123.318 14.7051C123.588 15.0918 123.778 15.502 123.89 15.9355C124.007 16.3691 124.065 16.8496 124.065 17.377C124.065 17.8926 123.802 18.1504 123.274 18.1504H118.309C118.355 19.9727 119.117 20.8838 120.594 20.8838C121.121 20.8838 121.602 20.7988 122.035 20.6289C122.475 20.4531 122.832 20.2598 123.107 20.0488C123.389 19.8379 123.553 19.7266 123.6 19.7148H123.67L123.758 19.75C123.816 19.8086 123.86 19.9434 123.89 20.1543C123.925 20.3652 123.942 20.5615 123.942 20.7432L123.96 21.0068C123.96 21.165 123.863 21.2969 123.67 21.4023C122.744 21.9297 121.707 22.1963 120.559 22.2021C119.059 22.2021 117.919 21.8301 117.14 21.0859C116.366 20.3418 115.979 19.249 115.979 17.8076ZM118.326 16.9814H122.053C122.018 16.2842 121.88 15.7422 121.64 15.3555C121.399 14.9629 120.954 14.7666 120.304 14.7666C119.132 14.7666 118.473 15.5049 118.326 16.9814Z" stroke="black" stroke-width="4" mask="url(#path-10-outside-1)"/>
<path d="M125.718 21.2266V14.4766C125.718 14.1309 125.791 13.9111 125.938 13.8174C126.09 13.7178 126.292 13.668 126.544 13.668H127.142C127.464 13.668 127.704 13.7441 127.862 13.8965C127.944 13.9902 127.991 14.0869 128.003 14.1865C128.015 14.2861 128.026 14.5615 128.038 15.0127C128.325 14.6143 128.671 14.2979 129.075 14.0635C129.485 13.8232 129.808 13.6797 130.042 13.6328C130.276 13.5801 130.484 13.5537 130.666 13.5537H130.684C130.842 13.5537 130.941 13.5859 130.982 13.6504C131.023 13.709 131.044 13.8115 131.044 13.958V14.96C131.044 15.0947 131.015 15.2031 130.956 15.2852C130.886 15.3438 130.728 15.3906 130.481 15.4258C130.235 15.4551 130.016 15.499 129.822 15.5576C129.412 15.7041 129.058 15.9268 128.759 16.2256C128.46 16.5244 128.267 16.8701 128.179 17.2627C128.144 17.4209 128.126 17.6494 128.126 17.9482V21.1035C128.126 21.3555 128.108 21.5195 128.073 21.5957C128.038 21.6719 127.947 21.7715 127.801 21.8945C127.654 21.9648 127.487 22 127.3 22H126.526C126.204 22 125.987 21.9297 125.876 21.7891C125.771 21.6426 125.718 21.4551 125.718 21.2266Z" stroke="black" stroke-width="4" mask="url(#path-10-outside-1)"/>
</g>
<defs>
<filter id="filter0_d" x="0" y="-4" width="42" height="40" filterUnits="userSpaceOnUse" color-interpolation-filters="sRGB">
<feFlood flood-opacity="0" result="BackgroundImageFix"/>
<feColorMatrix in="SourceAlpha" type="matrix" values="0 0 0 0 0 0 0 0 0 0 0 0 0 0 0 0 0 0 127 0"/>
<feOffset/>
<feGaussianBlur stdDeviation="2"/>
<feColorMatrix type="matrix" values="0 0 0 0 1 0 0 0 0 1 0 0 0 0 1 0 0 0 0.75 0"/>
<feBlend mode="normal" in2="BackgroundImageFix" result="effect1_dropShadow"/>
<feBlend mode="normal" in="SourceGraphic" in2="effect1_dropShadow" result="shape"/>
</filter>
<filter id="filter1_d" x="35.7031" y="3.00098" width="101.341" height="25.2012" filterUnits="userSpaceOnUse" color-interpolation-filters="sRGB">
<feFlood flood-opacity="0" result="BackgroundImageFix"/>
<feColorMatrix in="SourceAlpha" type="matrix" values="0 0 0 0 0 0 0 0 0 0 0 0 0 0 0 0 0 0 127 0"/>
<feOffset/>
<feGaussianBlur stdDeviation="2"/>
<feColorMatrix type="matrix" values="0 0 0 0 1 0 0 0 0 1 0 0 0 0 1 0 0 0 0.75 0"/>
<feBlend mode="normal" in2="BackgroundImageFix" result="effect1_dropShadow"/>
<feBlend mode="normal" in="SourceGraphic" in2="effect1_dropShadow" result="shape"/>
</filter>
</defs>
</svg>
